<?xml version="1.0" encoding="UTF-8" standalone="no"?>
<!DOCTYPE svg PUBLIC "-//W3C//DTD SVG 1.1//EN"
 "http://www.w3.org/Graphics/SVG/1.1/DTD/svg11.dtd">
<!-- Generated by graphviz version 2.40.1 (20161225.0304)
 -->
<!-- Title: dependencies Pages: 1 -->
<svg width="712pt" height="284pt"
 viewBox="0.00 0.00 712.00 284.00" xmlns="http://www.w3.org/2000/svg" xmlns:xlink="http://www.w3.org/1999/xlink">
<g id="graph0" class="graph" transform="scale(1 1) rotate(0) translate(4 280)">
<title>dependencies</title>
<polygon fill="#ffffff" stroke="transparent" points="-4,4 -4,-280 708,-280 708,4 -4,4"/>
<text text-anchor="start" x="331.0091" y="-42.4" font-family="sans-serif" font-weight="bold" font-size="14.00" fill="#000000">Legend</text>
<polygon fill="#ffffb3" stroke="transparent" points="118,-10 118,-30 138,-30 138,-10 118,-10"/>
<text text-anchor="start" x="141.629" y="-15.4" font-family="sans-serif" font-size="14.00" fill="#000000"> &#160;Declarations</text>
<polygon fill="#8dd3c7" stroke="transparent" points="231,-10 231,-30 251,-30 251,-10 231,-10"/>
<text text-anchor="start" x="254.7251" y="-15.4" font-family="sans-serif" font-size="14.00" fill="#000000"> &#160;Module</text>
<polygon fill="#80b1d3" stroke="transparent" points="317,-10 317,-30 337,-30 337,-10 317,-10"/>
<text text-anchor="start" x="340.7812" y="-15.4" font-family="sans-serif" font-size="14.00" fill="#000000"> &#160;Bootstrap</text>
<polygon fill="#fdb462" stroke="transparent" points="414,-10 414,-30 434,-30 434,-10 414,-10"/>
<text text-anchor="start" x="437.6732" y="-15.4" font-family="sans-serif" font-size="14.00" fill="#000000"> &#160;Providers</text>
<polygon fill="#fb8072" stroke="transparent" points="510,-10 510,-30 530,-30 530,-10 510,-10"/>
<text text-anchor="start" x="533.7258" y="-15.4" font-family="sans-serif" font-size="14.00" fill="#000000"> &#160;Exports</text>
<g id="clust1" class="cluster">
<title>cluster_RequestedLoanModule</title>
<polygon fill="none" stroke="#000000" stroke-dasharray="1,5" points="8,-70 8,-268 696,-268 696,-70 8,-70"/>
</g>
<g id="clust2" class="cluster">
<title>cluster_RequestedLoanModule_declarations</title>
<polygon fill="none" stroke="#000000" points="504,-78 504,-130 688,-130 688,-78 504,-78"/>
</g>
<g id="clust4" class="cluster">
<title>cluster_RequestedLoanModule_imports</title>
<polygon fill="none" stroke="#000000" points="382,-78 382,-130 496,-130 496,-78 382,-78"/>
</g>
<g id="clust5" class="cluster">
<title>cluster_RequestedLoanModule_exports</title>
<polygon fill="none" stroke="#000000" points="270,-208 270,-260 458,-260 458,-208 270,-208"/>
</g>
<g id="clust7" class="cluster">
<title>cluster_RequestedLoanModule_providers</title>
<polygon fill="none" stroke="#000000" points="16,-78 16,-130 374,-130 374,-78 16,-78"/>
</g>
<!-- RequestedLoanComponent -->
<g id="node1" class="node">
<title>RequestedLoanComponent</title>
<polygon fill="#ffffb3" stroke="#000000" points="680.4157,-122 511.5843,-122 511.5843,-86 680.4157,-86 680.4157,-122"/>
<text text-anchor="middle" x="596" y="-99.8" font-family="Times,serif" font-size="14.00" fill="#000000">RequestedLoanComponent</text>
</g>
<!-- RequestedLoanModule -->
<g id="node2" class="node">
<title>RequestedLoanModule</title>
<polygon fill="#8dd3c7" stroke="#000000" points="437.1331,-187 434.1331,-191 413.1331,-191 410.1331,-187 290.8669,-187 290.8669,-151 437.1331,-151 437.1331,-187"/>
<text text-anchor="middle" x="364" y="-164.8" font-family="Times,serif" font-size="14.00" fill="#000000">RequestedLoanModule</text>
</g>
<!-- RequestedLoanComponent&#45;&gt;RequestedLoanModule -->
<g id="edge1" class="edge">
<title>RequestedLoanComponent&#45;&gt;RequestedLoanModule</title>
<path fill="none" stroke="#000000" d="M596,-122.1061C596,-141.3391 596,-169 596,-169 596,-169 447.4063,-169 447.4063,-169"/>
<polygon fill="#000000" stroke="#000000" points="447.4063,-165.5001 437.4063,-169 447.4062,-172.5001 447.4063,-165.5001"/>
</g>
<!-- RequestedLoanComponent  -->
<g id="node4" class="node">
<title>RequestedLoanComponent </title>
<polygon fill="#fb8072" stroke="#000000" points="449.9152,-252 278.0848,-252 278.0848,-216 449.9152,-216 449.9152,-252"/>
<text text-anchor="middle" x="364" y="-229.8" font-family="Times,serif" font-size="14.00" fill="#000000">RequestedLoanComponent </text>
</g>
<!-- RequestedLoanModule&#45;&gt;RequestedLoanComponent  -->
<g id="edge3" class="edge">
<title>RequestedLoanModule&#45;&gt;RequestedLoanComponent </title>
<path fill="none" stroke="#000000" stroke-dasharray="5,2" d="M364,-187.1061C364,-187.1061 364,-205.991 364,-205.991"/>
<polygon fill="#000000" stroke="#000000" points="360.5001,-205.9909 364,-215.991 367.5001,-205.991 360.5001,-205.9909"/>
</g>
<!-- SharedModule -->
<g id="node3" class="node">
<title>SharedModule</title>
<polygon fill="#8dd3c7" stroke="#000000" points="488.4231,-122 485.4231,-126 464.4231,-126 461.4231,-122 389.5769,-122 389.5769,-86 488.4231,-86 488.4231,-122"/>
<text text-anchor="middle" x="439" y="-99.8" font-family="Times,serif" font-size="14.00" fill="#000000">SharedModule</text>
</g>
<!-- SharedModule&#45;&gt;RequestedLoanModule -->
<g id="edge2" class="edge">
<title>SharedModule&#45;&gt;RequestedLoanModule</title>
<path fill="none" stroke="#000000" d="M413.5526,-122.1061C413.5526,-122.1061 413.5526,-140.991 413.5526,-140.991"/>
<polygon fill="#000000" stroke="#000000" points="410.0527,-140.9909 413.5526,-150.991 417.0527,-140.991 410.0527,-140.9909"/>
</g>
<!-- ContractsService -->
<g id="node5" class="node">
<title>ContractsService</title>
<ellipse fill="#fdb462" stroke="#000000" cx="289" cy="-104" rx="77.0004" ry="18"/>
<text text-anchor="middle" x="289" y="-99.8" font-family="Times,serif" font-size="14.00" fill="#000000">ContractsService</text>
</g>
<!-- ContractsService&#45;&gt;RequestedLoanModule -->
<g id="edge4" class="edge">
<title>ContractsService&#45;&gt;RequestedLoanModule</title>
<path fill="none" stroke="#000000" d="M328.3419,-119.7347C328.3419,-119.7347 328.3419,-140.6451 328.3419,-140.6451"/>
<polygon fill="#000000" stroke="#000000" points="324.842,-140.645 328.3419,-150.6451 331.842,-140.6451 324.842,-140.645"/>
</g>
<!-- FilterLoansService -->
<g id="node6" class="node">
<title>FilterLoansService</title>
<ellipse fill="#fdb462" stroke="#000000" cx="109" cy="-104" rx="84.5227" ry="18"/>
<text text-anchor="middle" x="109" y="-99.8" font-family="Times,serif" font-size="14.00" fill="#000000">FilterLoansService</text>
</g>
<!-- FilterLoansService&#45;&gt;RequestedLoanModule -->
<g id="edge5" class="edge">
<title>FilterLoansService&#45;&gt;RequestedLoanModule</title>
<path fill="none" stroke="#000000" d="M109,-122.1061C109,-141.3391 109,-169 109,-169 109,-169 280.5855,-169 280.5855,-169"/>
<polygon fill="#000000" stroke="#000000" points="280.5856,-172.5001 290.5855,-169 280.5855,-165.5001 280.5856,-172.5001"/>
</g>
</g>
</svg>
