<?xml version="1.0" encoding="UTF-8" standalone="no"?>
<!DOCTYPE svg PUBLIC "-//W3C//DTD SVG 1.1//EN"
 "http://www.w3.org/Graphics/SVG/1.1/DTD/svg11.dtd">
<!-- Generated by graphviz version 2.40.1 (20161225.0304)
 -->
<!-- Title: dependencies Pages: 1 -->
<svg width="1552pt" height="284pt"
 viewBox="0.00 0.00 1552.00 284.00" xmlns="http://www.w3.org/2000/svg" xmlns:xlink="http://www.w3.org/1999/xlink">
<g id="graph0" class="graph" transform="scale(1 1) rotate(0) translate(4 280)">
<title>dependencies</title>
<polygon fill="#ffffff" stroke="transparent" points="-4,4 -4,-280 1548,-280 1548,4 -4,4"/>
<text text-anchor="start" x="751.0091" y="-42.4" font-family="sans-serif" font-weight="bold" font-size="14.00" fill="#000000">Legend</text>
<polygon fill="#ffffb3" stroke="transparent" points="538,-10 538,-30 558,-30 558,-10 538,-10"/>
<text text-anchor="start" x="561.629" y="-15.4" font-family="sans-serif" font-size="14.00" fill="#000000"> &#160;Declarations</text>
<polygon fill="#8dd3c7" stroke="transparent" points="651,-10 651,-30 671,-30 671,-10 651,-10"/>
<text text-anchor="start" x="674.7251" y="-15.4" font-family="sans-serif" font-size="14.00" fill="#000000"> &#160;Module</text>
<polygon fill="#80b1d3" stroke="transparent" points="737,-10 737,-30 757,-30 757,-10 737,-10"/>
<text text-anchor="start" x="760.7812" y="-15.4" font-family="sans-serif" font-size="14.00" fill="#000000"> &#160;Bootstrap</text>
<polygon fill="#fdb462" stroke="transparent" points="834,-10 834,-30 854,-30 854,-10 834,-10"/>
<text text-anchor="start" x="857.6732" y="-15.4" font-family="sans-serif" font-size="14.00" fill="#000000"> &#160;Providers</text>
<polygon fill="#fb8072" stroke="transparent" points="930,-10 930,-30 950,-30 950,-10 930,-10"/>
<text text-anchor="start" x="953.7258" y="-15.4" font-family="sans-serif" font-size="14.00" fill="#000000"> &#160;Exports</text>
<g id="clust1" class="cluster">
<title>cluster_CoreModule</title>
<polygon fill="none" stroke="#000000" stroke-dasharray="1,5" points="8,-70 8,-268 1536,-268 1536,-70 8,-70"/>
</g>
<g id="clust2" class="cluster">
<title>cluster_CoreModule_declarations</title>
<polygon fill="none" stroke="#000000" points="138,-78 138,-130 1528,-130 1528,-78 138,-78"/>
</g>
<g id="clust11" class="cluster">
<title>cluster_CoreModule_imports</title>
<polygon fill="none" stroke="#000000" points="16,-78 16,-130 130,-130 130,-78 16,-78"/>
</g>
<g id="clust12" class="cluster">
<title>cluster_CoreModule_exports</title>
<polygon fill="none" stroke="#000000" points="444,-208 444,-260 1123,-260 1123,-208 444,-208"/>
</g>
<!-- BalanceComponent -->
<g id="node1" class="node">
<title>BalanceComponent</title>
<polygon fill="#ffffb3" stroke="#000000" points="1520.4187,-122 1393.5813,-122 1393.5813,-86 1520.4187,-86 1520.4187,-122"/>
<text text-anchor="middle" x="1457" y="-99.8" font-family="Times,serif" font-size="14.00" fill="#000000">BalanceComponent</text>
</g>
<!-- CoreModule -->
<g id="node9" class="node">
<title>CoreModule</title>
<polygon fill="#8dd3c7" stroke="#000000" points="836.2619,-187 833.2619,-191 812.2619,-191 809.2619,-187 749.7381,-187 749.7381,-151 836.2619,-151 836.2619,-187"/>
<text text-anchor="middle" x="793" y="-164.8" font-family="Times,serif" font-size="14.00" fill="#000000">CoreModule</text>
</g>
<!-- BalanceComponent&#45;&gt;CoreModule -->
<g id="edge1" class="edge">
<title>BalanceComponent&#45;&gt;CoreModule</title>
<path fill="none" stroke="#000000" d="M1457,-122.2843C1457,-143.3211 1457,-175 1457,-175 1457,-175 846.3108,-175 846.3108,-175"/>
<polygon fill="#000000" stroke="#000000" points="846.3108,-171.5001 836.3108,-175 846.3107,-178.5001 846.3108,-171.5001"/>
</g>
<!-- ClickOutsideDirective -->
<g id="node2" class="node">
<title>ClickOutsideDirective</title>
<polygon fill="#ffffb3" stroke="#000000" points="1375.9622,-122 1234.0378,-122 1234.0378,-86 1375.9622,-86 1375.9622,-122"/>
<text text-anchor="middle" x="1305" y="-99.8" font-family="Times,serif" font-size="14.00" fill="#000000">ClickOutsideDirective</text>
</g>
<!-- ClickOutsideDirective&#45;&gt;CoreModule -->
<g id="edge2" class="edge">
<title>ClickOutsideDirective&#45;&gt;CoreModule</title>
<path fill="none" stroke="#000000" d="M1305,-122.1061C1305,-141.3391 1305,-169 1305,-169 1305,-169 846.6528,-169 846.6528,-169"/>
<polygon fill="#000000" stroke="#000000" points="846.6529,-165.5001 836.6528,-169 846.6528,-172.5001 846.6529,-165.5001"/>
</g>
<!-- ContentWrapperComponent -->
<g id="node3" class="node">
<title>ContentWrapperComponent</title>
<polygon fill="#ffffb3" stroke="#000000" points="1216.1302,-122 1041.8698,-122 1041.8698,-86 1216.1302,-86 1216.1302,-122"/>
<text text-anchor="middle" x="1129" y="-99.8" font-family="Times,serif" font-size="14.00" fill="#000000">ContentWrapperComponent</text>
</g>
<!-- ContentWrapperComponent&#45;&gt;CoreModule -->
<g id="edge3" class="edge">
<title>ContentWrapperComponent&#45;&gt;CoreModule</title>
<path fill="none" stroke="#000000" d="M1078.3221,-122.0225C1078.3221,-139.3734 1078.3221,-163 1078.3221,-163 1078.3221,-163 846.3343,-163 846.3343,-163"/>
<polygon fill="#000000" stroke="#000000" points="846.3343,-159.5001 836.3343,-163 846.3342,-166.5001 846.3343,-159.5001"/>
</g>
<!-- HeaderComponent -->
<g id="node4" class="node">
<title>HeaderComponent</title>
<polygon fill="#ffffb3" stroke="#000000" points="1023.7437,-122 902.2563,-122 902.2563,-86 1023.7437,-86 1023.7437,-122"/>
<text text-anchor="middle" x="963" y="-99.8" font-family="Times,serif" font-size="14.00" fill="#000000">HeaderComponent</text>
</g>
<!-- HeaderComponent&#45;&gt;CoreModule -->
<g id="edge4" class="edge">
<title>HeaderComponent&#45;&gt;CoreModule</title>
<path fill="none" stroke="#000000" d="M934.5966,-122.2396C934.5966,-137.5706 934.5966,-157 934.5966,-157 934.5966,-157 846.639,-157 846.639,-157"/>
<polygon fill="#000000" stroke="#000000" points="846.6391,-153.5001 836.639,-157 846.639,-160.5001 846.6391,-153.5001"/>
</g>
<!-- IconGroupHeaderComponent -->
<g id="node5" class="node">
<title>IconGroupHeaderComponent</title>
<polygon fill="#ffffb3" stroke="#000000" points="884.3862,-122 701.6138,-122 701.6138,-86 884.3862,-86 884.3862,-122"/>
<text text-anchor="middle" x="793" y="-99.8" font-family="Times,serif" font-size="14.00" fill="#000000">IconGroupHeaderComponent</text>
</g>
<!-- IconGroupHeaderComponent&#45;&gt;CoreModule -->
<g id="edge5" class="edge">
<title>IconGroupHeaderComponent&#45;&gt;CoreModule</title>
<path fill="none" stroke="#000000" d="M793,-122.1061C793,-122.1061 793,-140.991 793,-140.991"/>
<polygon fill="#000000" stroke="#000000" points="789.5001,-140.9909 793,-150.991 796.5001,-140.991 789.5001,-140.9909"/>
</g>
<!-- NotificationItemComponent -->
<g id="node6" class="node">
<title>NotificationItemComponent</title>
<polygon fill="#ffffb3" stroke="#000000" points="683.1386,-122 508.8614,-122 508.8614,-86 683.1386,-86 683.1386,-122"/>
<text text-anchor="middle" x="596" y="-99.8" font-family="Times,serif" font-size="14.00" fill="#000000">NotificationItemComponent</text>
</g>
<!-- NotificationItemComponent&#45;&gt;CoreModule -->
<g id="edge6" class="edge">
<title>NotificationItemComponent&#45;&gt;CoreModule</title>
<path fill="none" stroke="#000000" d="M664.3487,-122.2396C664.3487,-137.5706 664.3487,-157 664.3487,-157 664.3487,-157 739.4445,-157 739.4445,-157"/>
<polygon fill="#000000" stroke="#000000" points="739.4446,-160.5001 749.4445,-157 739.4445,-153.5001 739.4446,-160.5001"/>
</g>
<!-- NotificationsComponent -->
<g id="node7" class="node">
<title>NotificationsComponent</title>
<polygon fill="#ffffb3" stroke="#000000" points="490.427,-122 335.573,-122 335.573,-86 490.427,-86 490.427,-122"/>
<text text-anchor="middle" x="413" y="-99.8" font-family="Times,serif" font-size="14.00" fill="#000000">NotificationsComponent</text>
</g>
<!-- NotificationsComponent&#45;&gt;CoreModule -->
<g id="edge7" class="edge">
<title>NotificationsComponent&#45;&gt;CoreModule</title>
<path fill="none" stroke="#000000" d="M471.3484,-122.0225C471.3484,-139.3734 471.3484,-163 471.3484,-163 471.3484,-163 739.6206,-163 739.6206,-163"/>
<polygon fill="#000000" stroke="#000000" points="739.6207,-166.5001 749.6206,-163 739.6206,-159.5001 739.6207,-166.5001"/>
</g>
<!-- SocialContainerComponent -->
<g id="node8" class="node">
<title>SocialContainerComponent</title>
<polygon fill="#ffffb3" stroke="#000000" points="317.5336,-122 146.4664,-122 146.4664,-86 317.5336,-86 317.5336,-122"/>
<text text-anchor="middle" x="232" y="-99.8" font-family="Times,serif" font-size="14.00" fill="#000000">SocialContainerComponent</text>
</g>
<!-- SocialContainerComponent&#45;&gt;CoreModule -->
<g id="edge8" class="edge">
<title>SocialContainerComponent&#45;&gt;CoreModule</title>
<path fill="none" stroke="#000000" d="M232,-122.1061C232,-141.3391 232,-169 232,-169 232,-169 739.4461,-169 739.4461,-169"/>
<polygon fill="#000000" stroke="#000000" points="739.4461,-172.5001 749.4461,-169 739.446,-165.5001 739.4461,-172.5001"/>
</g>
<!-- BalanceComponent  -->
<g id="node11" class="node">
<title>BalanceComponent </title>
<polygon fill="#fb8072" stroke="#000000" points="1114.918,-252 985.082,-252 985.082,-216 1114.918,-216 1114.918,-252"/>
<text text-anchor="middle" x="1050" y="-229.8" font-family="Times,serif" font-size="14.00" fill="#000000">BalanceComponent </text>
</g>
<!-- CoreModule&#45;&gt;BalanceComponent  -->
<g id="edge10" class="edge">
<title>CoreModule&#45;&gt;BalanceComponent </title>
<path fill="none" stroke="#000000" stroke-dasharray="5,2" d="M836.3016,-181C898.1659,-181 1004.4564,-181 1004.4564,-181 1004.4564,-181 1004.4564,-205.7604 1004.4564,-205.7604"/>
<polygon fill="#000000" stroke="#000000" points="1000.9564,-205.7604 1004.4564,-215.7604 1007.9564,-205.7604 1000.9564,-205.7604"/>
</g>
<!-- ContentWrapperComponent  -->
<g id="node12" class="node">
<title>ContentWrapperComponent </title>
<polygon fill="#fb8072" stroke="#000000" points="967.1298,-252 788.8702,-252 788.8702,-216 967.1298,-216 967.1298,-252"/>
<text text-anchor="middle" x="878" y="-229.8" font-family="Times,serif" font-size="14.00" fill="#000000">ContentWrapperComponent </text>
</g>
<!-- CoreModule&#45;&gt;ContentWrapperComponent  -->
<g id="edge11" class="edge">
<title>CoreModule&#45;&gt;ContentWrapperComponent </title>
<path fill="none" stroke="#000000" stroke-dasharray="5,2" d="M812.658,-187.1061C812.658,-187.1061 812.658,-205.991 812.658,-205.991"/>
<polygon fill="#000000" stroke="#000000" points="809.158,-205.9909 812.658,-215.991 816.158,-205.991 809.158,-205.9909"/>
</g>
<!-- HeaderComponent  -->
<g id="node13" class="node">
<title>HeaderComponent </title>
<polygon fill="#fb8072" stroke="#000000" points="770.7436,-252 645.2564,-252 645.2564,-216 770.7436,-216 770.7436,-252"/>
<text text-anchor="middle" x="708" y="-229.8" font-family="Times,serif" font-size="14.00" fill="#000000">HeaderComponent </text>
</g>
<!-- CoreModule&#45;&gt;HeaderComponent  -->
<g id="edge12" class="edge">
<title>CoreModule&#45;&gt;HeaderComponent </title>
<path fill="none" stroke="#000000" stroke-dasharray="5,2" d="M760.1205,-187.1061C760.1205,-187.1061 760.1205,-205.991 760.1205,-205.991"/>
<polygon fill="#000000" stroke="#000000" points="756.6205,-205.9909 760.1205,-215.991 763.6205,-205.991 756.6205,-205.9909"/>
</g>
<!-- SocialContainerComponent  -->
<g id="node14" class="node">
<title>SocialContainerComponent </title>
<polygon fill="#fb8072" stroke="#000000" points="627.533,-252 452.467,-252 452.467,-216 627.533,-216 627.533,-252"/>
<text text-anchor="middle" x="540" y="-229.8" font-family="Times,serif" font-size="14.00" fill="#000000">SocialContainerComponent </text>
</g>
<!-- CoreModule&#45;&gt;SocialContainerComponent  -->
<g id="edge13" class="edge">
<title>CoreModule&#45;&gt;SocialContainerComponent </title>
<path fill="none" stroke="#000000" stroke-dasharray="5,2" d="M749.6368,-181C684.2831,-181 568.0987,-181 568.0987,-181 568.0987,-181 568.0987,-205.7604 568.0987,-205.7604"/>
<polygon fill="#000000" stroke="#000000" points="564.5988,-205.7604 568.0987,-215.7604 571.5988,-205.7604 564.5988,-205.7604"/>
</g>
<!-- SharedModule -->
<g id="node10" class="node">
<title>SharedModule</title>
<polygon fill="#8dd3c7" stroke="#000000" points="122.4231,-122 119.4231,-126 98.4231,-126 95.4231,-122 23.5769,-122 23.5769,-86 122.4231,-86 122.4231,-122"/>
<text text-anchor="middle" x="73" y="-99.8" font-family="Times,serif" font-size="14.00" fill="#000000">SharedModule</text>
</g>
<!-- SharedModule&#45;&gt;CoreModule -->
<g id="edge9" class="edge">
<title>SharedModule&#45;&gt;CoreModule</title>
<path fill="none" stroke="#000000" d="M73,-122.2843C73,-143.3211 73,-175 73,-175 73,-175 739.5822,-175 739.5822,-175"/>
<polygon fill="#000000" stroke="#000000" points="739.5822,-178.5001 749.5822,-175 739.5822,-171.5001 739.5822,-178.5001"/>
</g>
</g>
</svg>
