<?xml version="1.0" encoding="UTF-8" standalone="no"?>
<!DOCTYPE svg PUBLIC "-//W3C//DTD SVG 1.1//EN"
 "http://www.w3.org/Graphics/SVG/1.1/DTD/svg11.dtd">
<!-- Generated by graphviz version 2.40.1 (20161225.0304)
 -->
<!-- Title: dependencies Pages: 1 -->
<svg width="3133pt" height="284pt"
 viewBox="0.00 0.00 3133.00 284.00" xmlns="http://www.w3.org/2000/svg" xmlns:xlink="http://www.w3.org/1999/xlink">
<g id="graph0" class="graph" transform="scale(1 1) rotate(0) translate(4 280)">
<title>dependencies</title>
<polygon fill="#ffffff" stroke="transparent" points="-4,4 -4,-280 3129,-280 3129,4 -4,4"/>
<text text-anchor="start" x="1541.5091" y="-42.4" font-family="sans-serif" font-weight="bold" font-size="14.00" fill="#000000">Legend</text>
<polygon fill="#ffffb3" stroke="transparent" points="1328.5,-10 1328.5,-30 1348.5,-30 1348.5,-10 1328.5,-10"/>
<text text-anchor="start" x="1352.129" y="-15.4" font-family="sans-serif" font-size="14.00" fill="#000000"> &#160;Declarations</text>
<polygon fill="#8dd3c7" stroke="transparent" points="1441.5,-10 1441.5,-30 1461.5,-30 1461.5,-10 1441.5,-10"/>
<text text-anchor="start" x="1465.2251" y="-15.4" font-family="sans-serif" font-size="14.00" fill="#000000"> &#160;Module</text>
<polygon fill="#80b1d3" stroke="transparent" points="1527.5,-10 1527.5,-30 1547.5,-30 1547.5,-10 1527.5,-10"/>
<text text-anchor="start" x="1551.2812" y="-15.4" font-family="sans-serif" font-size="14.00" fill="#000000"> &#160;Bootstrap</text>
<polygon fill="#fdb462" stroke="transparent" points="1624.5,-10 1624.5,-30 1644.5,-30 1644.5,-10 1624.5,-10"/>
<text text-anchor="start" x="1648.1732" y="-15.4" font-family="sans-serif" font-size="14.00" fill="#000000"> &#160;Providers</text>
<polygon fill="#fb8072" stroke="transparent" points="1720.5,-10 1720.5,-30 1740.5,-30 1740.5,-10 1720.5,-10"/>
<text text-anchor="start" x="1744.2258" y="-15.4" font-family="sans-serif" font-size="14.00" fill="#000000"> &#160;Exports</text>
<g id="clust1" class="cluster">
<title>cluster_LoanDetailModule</title>
<polygon fill="none" stroke="#000000" stroke-dasharray="1,5" points="8,-70 8,-268 3117,-268 3117,-70 8,-70"/>
</g>
<g id="clust2" class="cluster">
<title>cluster_LoanDetailModule_declarations</title>
<polygon fill="none" stroke="#000000" points="652,-78 652,-130 3109,-130 3109,-78 652,-78"/>
</g>
<g id="clust16" class="cluster">
<title>cluster_LoanDetailModule_imports</title>
<polygon fill="none" stroke="#000000" points="530,-78 530,-130 644,-130 644,-78 530,-78"/>
</g>
<g id="clust17" class="cluster">
<title>cluster_LoanDetailModule_exports</title>
<polygon fill="none" stroke="#000000" points="1401,-208 1401,-260 1589,-260 1589,-208 1401,-208"/>
</g>
<g id="clust19" class="cluster">
<title>cluster_LoanDetailModule_providers</title>
<polygon fill="none" stroke="#000000" points="16,-78 16,-130 522,-130 522,-78 16,-78"/>
</g>
<!-- DecentralandCosignerComponent -->
<g id="node1" class="node">
<title>DecentralandCosignerComponent</title>
<polygon fill="#ffffb3" stroke="#000000" points="3101.0014,-122 2894.9986,-122 2894.9986,-86 3101.0014,-86 3101.0014,-122"/>
<text text-anchor="middle" x="2998" y="-99.8" font-family="Times,serif" font-size="14.00" fill="#000000">DecentralandCosignerComponent</text>
</g>
<!-- LoanDetailModule -->
<g id="node14" class="node">
<title>LoanDetailModule</title>
<polygon fill="#8dd3c7" stroke="#000000" points="1556.0255,-187 1553.0255,-191 1532.0255,-191 1529.0255,-187 1433.9745,-187 1433.9745,-151 1556.0255,-151 1556.0255,-187"/>
<text text-anchor="middle" x="1495" y="-164.8" font-family="Times,serif" font-size="14.00" fill="#000000">LoanDetailModule</text>
</g>
<!-- DecentralandCosignerComponent&#45;&gt;LoanDetailModule -->
<g id="edge1" class="edge">
<title>DecentralandCosignerComponent&#45;&gt;LoanDetailModule</title>
<path fill="none" stroke="#000000" d="M2998,-122.3228C2998,-145.6602 2998,-183 2998,-183 2998,-183 1566.2504,-183 1566.2504,-183"/>
<polygon fill="#000000" stroke="#000000" points="1566.2504,-179.5001 1556.2504,-183 1566.2503,-186.5001 1566.2504,-179.5001"/>
</g>
<!-- DecentralandMapComponent -->
<g id="node2" class="node">
<title>DecentralandMapComponent</title>
<polygon fill="#ffffb3" stroke="#000000" points="2876.6134,-122 2695.3866,-122 2695.3866,-86 2876.6134,-86 2876.6134,-122"/>
<text text-anchor="middle" x="2786" y="-99.8" font-family="Times,serif" font-size="14.00" fill="#000000">DecentralandMapComponent</text>
</g>
<!-- DecentralandMapComponent&#45;&gt;LoanDetailModule -->
<g id="edge2" class="edge">
<title>DecentralandMapComponent&#45;&gt;LoanDetailModule</title>
<path fill="none" stroke="#000000" d="M2786,-122.1554C2786,-144.3519 2786,-179 2786,-179 2786,-179 1566.3991,-179 1566.3991,-179"/>
<polygon fill="#000000" stroke="#000000" points="1566.3991,-175.5001 1556.3991,-179 1566.3991,-182.5001 1566.3991,-175.5001"/>
</g>
<!-- DetailCosignerComponent -->
<g id="node3" class="node">
<title>DetailCosignerComponent</title>
<polygon fill="#ffffb3" stroke="#000000" points="2677.087,-122 2510.913,-122 2510.913,-86 2677.087,-86 2677.087,-122"/>
<text text-anchor="middle" x="2594" y="-99.8" font-family="Times,serif" font-size="14.00" fill="#000000">DetailCosignerComponent</text>
</g>
<!-- DetailCosignerComponent&#45;&gt;LoanDetailModule -->
<g id="edge3" class="edge">
<title>DetailCosignerComponent&#45;&gt;LoanDetailModule</title>
<path fill="none" stroke="#000000" d="M2594,-122.2843C2594,-143.3211 2594,-175 2594,-175 2594,-175 1566.0466,-175 1566.0466,-175"/>
<polygon fill="#000000" stroke="#000000" points="1566.0467,-171.5001 1556.0466,-175 1566.0466,-178.5001 1566.0467,-171.5001"/>
</g>
<!-- DetailIdentityComponent -->
<g id="node4" class="node">
<title>DetailIdentityComponent</title>
<polygon fill="#ffffb3" stroke="#000000" points="2492.587,-122 2333.413,-122 2333.413,-86 2492.587,-86 2492.587,-122"/>
<text text-anchor="middle" x="2413" y="-99.8" font-family="Times,serif" font-size="14.00" fill="#000000">DetailIdentityComponent</text>
</g>
<!-- DetailIdentityComponent&#45;&gt;LoanDetailModule -->
<g id="edge4" class="edge">
<title>DetailIdentityComponent&#45;&gt;LoanDetailModule</title>
<path fill="none" stroke="#000000" d="M2413,-122.308C2413,-142.1455 2413,-171 2413,-171 2413,-171 1566.3003,-171 1566.3003,-171"/>
<polygon fill="#000000" stroke="#000000" points="1566.3003,-167.5001 1556.3003,-171 1566.3003,-174.5001 1566.3003,-167.5001"/>
</g>
<!-- DetailTableComponent -->
<g id="node5" class="node">
<title>DetailTableComponent</title>
<polygon fill="#ffffb3" stroke="#000000" points="2315.913,-122 2168.087,-122 2168.087,-86 2315.913,-86 2315.913,-122"/>
<text text-anchor="middle" x="2242" y="-99.8" font-family="Times,serif" font-size="14.00" fill="#000000">DetailTableComponent</text>
</g>
<!-- DetailTableComponent&#45;&gt;LoanDetailModule -->
<g id="edge5" class="edge">
<title>DetailTableComponent&#45;&gt;LoanDetailModule</title>
<path fill="none" stroke="#000000" d="M2242,-122.2222C2242,-140.8285 2242,-167 2242,-167 2242,-167 1566.1301,-167 1566.1301,-167"/>
<polygon fill="#000000" stroke="#000000" points="1566.1302,-163.5001 1556.1301,-167 1566.1301,-170.5001 1566.1302,-163.5001"/>
</g>
<!-- DialogLoanPayComponent -->
<g id="node6" class="node">
<title>DialogLoanPayComponent</title>
<polygon fill="#ffffb3" stroke="#000000" points="2150.6993,-122 1981.3007,-122 1981.3007,-86 2150.6993,-86 2150.6993,-122"/>
<text text-anchor="middle" x="2066" y="-99.8" font-family="Times,serif" font-size="14.00" fill="#000000">DialogLoanPayComponent</text>
</g>
<!-- DialogLoanPayComponent&#45;&gt;LoanDetailModule -->
<g id="edge6" class="edge">
<title>DialogLoanPayComponent&#45;&gt;LoanDetailModule</title>
<path fill="none" stroke="#000000" d="M2066,-122.0225C2066,-139.3734 2066,-163 2066,-163 2066,-163 1566.107,-163 1566.107,-163"/>
<polygon fill="#000000" stroke="#000000" points="1566.107,-159.5001 1556.107,-163 1566.107,-166.5001 1566.107,-159.5001"/>
</g>
<!-- DialogLoanTransferComponent -->
<g id="node7" class="node">
<title>DialogLoanTransferComponent</title>
<polygon fill="#ffffb3" stroke="#000000" points="1963.6106,-122 1768.3894,-122 1768.3894,-86 1963.6106,-86 1963.6106,-122"/>
<text text-anchor="middle" x="1866" y="-99.8" font-family="Times,serif" font-size="14.00" fill="#000000">DialogLoanTransferComponent</text>
</g>
<!-- DialogLoanTransferComponent&#45;&gt;LoanDetailModule -->
<g id="edge7" class="edge">
<title>DialogLoanTransferComponent&#45;&gt;LoanDetailModule</title>
<path fill="none" stroke="#000000" d="M1866,-122.0091C1866,-138.0494 1866,-159 1866,-159 1866,-159 1566.2631,-159 1566.2631,-159"/>
<polygon fill="#000000" stroke="#000000" points="1566.2631,-155.5001 1556.2631,-159 1566.2631,-162.5001 1566.2631,-155.5001"/>
</g>
<!-- GobackButtonComponent -->
<g id="node8" class="node">
<title>GobackButtonComponent</title>
<polygon fill="#ffffb3" stroke="#000000" points="1750.486,-122 1587.514,-122 1587.514,-86 1750.486,-86 1750.486,-122"/>
<text text-anchor="middle" x="1669" y="-99.8" font-family="Times,serif" font-size="14.00" fill="#000000">GobackButtonComponent</text>
</g>
<!-- GobackButtonComponent&#45;&gt;LoanDetailModule -->
<g id="edge8" class="edge">
<title>GobackButtonComponent&#45;&gt;LoanDetailModule</title>
<path fill="none" stroke="#000000" d="M1669,-122.1243C1669,-136.7832 1669,-155 1669,-155 1669,-155 1566.3459,-155 1566.3459,-155"/>
<polygon fill="#000000" stroke="#000000" points="1566.3459,-151.5001 1556.3459,-155 1566.3459,-158.5001 1566.3459,-151.5001"/>
</g>
<!-- ItemFeatureComponent -->
<g id="node9" class="node">
<title>ItemFeatureComponent</title>
<polygon fill="#ffffb3" stroke="#000000" points="1569.4664,-122 1420.5336,-122 1420.5336,-86 1569.4664,-86 1569.4664,-122"/>
<text text-anchor="middle" x="1495" y="-99.8" font-family="Times,serif" font-size="14.00" fill="#000000">ItemFeatureComponent</text>
</g>
<!-- ItemFeatureComponent&#45;&gt;LoanDetailModule -->
<g id="edge9" class="edge">
<title>ItemFeatureComponent&#45;&gt;LoanDetailModule</title>
<path fill="none" stroke="#000000" d="M1495,-122.1061C1495,-122.1061 1495,-140.991 1495,-140.991"/>
<polygon fill="#000000" stroke="#000000" points="1491.5001,-140.9909 1495,-150.991 1498.5001,-140.991 1491.5001,-140.9909"/>
</g>
<!-- LoanDetailComponent -->
<g id="node10" class="node">
<title>LoanDetailComponent</title>
<polygon fill="#ffffb3" stroke="#000000" points="1402.3075,-122 1257.6925,-122 1257.6925,-86 1402.3075,-86 1402.3075,-122"/>
<text text-anchor="middle" x="1330" y="-99.8" font-family="Times,serif" font-size="14.00" fill="#000000">LoanDetailComponent</text>
</g>
<!-- LoanDetailComponent&#45;&gt;LoanDetailModule -->
<g id="edge10" class="edge">
<title>LoanDetailComponent&#45;&gt;LoanDetailModule</title>
<path fill="none" stroke="#000000" d="M1330,-122.1243C1330,-136.7832 1330,-155 1330,-155 1330,-155 1423.5601,-155 1423.5601,-155"/>
<polygon fill="#000000" stroke="#000000" points="1423.5601,-158.5001 1433.5601,-155 1423.5601,-151.5001 1423.5601,-158.5001"/>
</g>
<!-- LoanDoesNotExistComponent -->
<g id="node11" class="node">
<title>LoanDoesNotExistComponent</title>
<polygon fill="#ffffb3" stroke="#000000" points="1240.1413,-122 1051.8587,-122 1051.8587,-86 1240.1413,-86 1240.1413,-122"/>
<text text-anchor="middle" x="1146" y="-99.8" font-family="Times,serif" font-size="14.00" fill="#000000">LoanDoesNotExistComponent</text>
</g>
<!-- LoanDoesNotExistComponent&#45;&gt;LoanDetailModule -->
<g id="edge11" class="edge">
<title>LoanDoesNotExistComponent&#45;&gt;LoanDetailModule</title>
<path fill="none" stroke="#000000" d="M1146,-122.0091C1146,-138.0494 1146,-159 1146,-159 1146,-159 1423.8095,-159 1423.8095,-159"/>
<polygon fill="#000000" stroke="#000000" points="1423.8095,-162.5001 1433.8095,-159 1423.8094,-155.5001 1423.8095,-162.5001"/>
</g>
<!-- TransactionHistoryComponent -->
<g id="node12" class="node">
<title>TransactionHistoryComponent</title>
<polygon fill="#ffffb3" stroke="#000000" points="1033.9086,-122 844.0914,-122 844.0914,-86 1033.9086,-86 1033.9086,-122"/>
<text text-anchor="middle" x="939" y="-99.8" font-family="Times,serif" font-size="14.00" fill="#000000">TransactionHistoryComponent</text>
</g>
<!-- TransactionHistoryComponent&#45;&gt;LoanDetailModule -->
<g id="edge12" class="edge">
<title>TransactionHistoryComponent&#45;&gt;LoanDetailModule</title>
<path fill="none" stroke="#000000" d="M939,-122.0225C939,-139.3734 939,-163 939,-163 939,-163 1423.9078,-163 1423.9078,-163"/>
<polygon fill="#000000" stroke="#000000" points="1423.9078,-166.5001 1433.9078,-163 1423.9078,-159.5001 1423.9078,-166.5001"/>
</g>
<!-- TransferButtonComponent -->
<g id="node13" class="node">
<title>TransferButtonComponent</title>
<polygon fill="#ffffb3" stroke="#000000" points="826.3585,-122 659.6415,-122 659.6415,-86 826.3585,-86 826.3585,-122"/>
<text text-anchor="middle" x="743" y="-99.8" font-family="Times,serif" font-size="14.00" fill="#000000">TransferButtonComponent</text>
</g>
<!-- TransferButtonComponent&#45;&gt;LoanDetailModule -->
<g id="edge13" class="edge">
<title>TransferButtonComponent&#45;&gt;LoanDetailModule</title>
<path fill="none" stroke="#000000" d="M743,-122.2222C743,-140.8285 743,-167 743,-167 743,-167 1423.7795,-167 1423.7795,-167"/>
<polygon fill="#000000" stroke="#000000" points="1423.7796,-170.5001 1433.7795,-167 1423.7795,-163.5001 1423.7796,-170.5001"/>
</g>
<!-- DialogLoanPayComponent  -->
<g id="node16" class="node">
<title>DialogLoanPayComponent </title>
<polygon fill="#fb8072" stroke="#000000" points="1581.1995,-252 1408.8005,-252 1408.8005,-216 1581.1995,-216 1581.1995,-252"/>
<text text-anchor="middle" x="1495" y="-229.8" font-family="Times,serif" font-size="14.00" fill="#000000">DialogLoanPayComponent </text>
</g>
<!-- LoanDetailModule&#45;&gt;DialogLoanPayComponent  -->
<g id="edge15" class="edge">
<title>LoanDetailModule&#45;&gt;DialogLoanPayComponent </title>
<path fill="none" stroke="#000000" stroke-dasharray="5,2" d="M1495,-187.1061C1495,-187.1061 1495,-205.991 1495,-205.991"/>
<polygon fill="#000000" stroke="#000000" points="1491.5001,-205.9909 1495,-215.991 1498.5001,-205.991 1491.5001,-205.9909"/>
</g>
<!-- SharedModule -->
<g id="node15" class="node">
<title>SharedModule</title>
<polygon fill="#8dd3c7" stroke="#000000" points="636.4231,-122 633.4231,-126 612.4231,-126 609.4231,-122 537.5769,-122 537.5769,-86 636.4231,-86 636.4231,-122"/>
<text text-anchor="middle" x="587" y="-99.8" font-family="Times,serif" font-size="14.00" fill="#000000">SharedModule</text>
</g>
<!-- SharedModule&#45;&gt;LoanDetailModule -->
<g id="edge14" class="edge">
<title>SharedModule&#45;&gt;LoanDetailModule</title>
<path fill="none" stroke="#000000" d="M587,-122.308C587,-142.1455 587,-171 587,-171 587,-171 1423.6589,-171 1423.6589,-171"/>
<polygon fill="#000000" stroke="#000000" points="1423.659,-174.5001 1433.6589,-171 1423.6589,-167.5001 1423.659,-174.5001"/>
</g>
<!-- CommitsService -->
<g id="node17" class="node">
<title>CommitsService</title>
<ellipse fill="#fdb462" stroke="#000000" cx="439" cy="-104" rx="75.3157" ry="18"/>
<text text-anchor="middle" x="439" y="-99.8" font-family="Times,serif" font-size="14.00" fill="#000000">CommitsService</text>
</g>
<!-- CommitsService&#45;&gt;LoanDetailModule -->
<g id="edge16" class="edge">
<title>CommitsService&#45;&gt;LoanDetailModule</title>
<path fill="none" stroke="#000000" d="M439,-122.2843C439,-143.3211 439,-175 439,-175 439,-175 1423.6606,-175 1423.6606,-175"/>
<polygon fill="#000000" stroke="#000000" points="1423.6606,-178.5001 1433.6606,-175 1423.6605,-171.5001 1423.6606,-178.5001"/>
</g>
<!-- ContractsService -->
<g id="node18" class="node">
<title>ContractsService</title>
<ellipse fill="#fdb462" stroke="#000000" cx="269" cy="-104" rx="77.0004" ry="18"/>
<text text-anchor="middle" x="269" y="-99.8" font-family="Times,serif" font-size="14.00" fill="#000000">ContractsService</text>
</g>
<!-- ContractsService&#45;&gt;LoanDetailModule -->
<g id="edge17" class="edge">
<title>ContractsService&#45;&gt;LoanDetailModule</title>
<path fill="none" stroke="#000000" d="M269,-122.1554C269,-144.3519 269,-179 269,-179 269,-179 1423.783,-179 1423.783,-179"/>
<polygon fill="#000000" stroke="#000000" points="1423.783,-182.5001 1433.783,-179 1423.783,-175.5001 1423.783,-182.5001"/>
</g>
<!-- CosignerService -->
<g id="node19" class="node">
<title>CosignerService</title>
<ellipse fill="#fdb462" stroke="#000000" cx="99" cy="-104" rx="74.7168" ry="18"/>
<text text-anchor="middle" x="99" y="-99.8" font-family="Times,serif" font-size="14.00" fill="#000000">CosignerService</text>
</g>
<!-- CosignerService&#45;&gt;LoanDetailModule -->
<g id="edge18" class="edge">
<title>CosignerService&#45;&gt;LoanDetailModule</title>
<path fill="none" stroke="#000000" d="M99,-122.3228C99,-145.6602 99,-183 99,-183 99,-183 1423.6669,-183 1423.6669,-183"/>
<polygon fill="#000000" stroke="#000000" points="1423.6669,-186.5001 1433.6669,-183 1423.6669,-179.5001 1423.6669,-186.5001"/>
</g>
</g>
</svg>
