<?xml version="1.0" encoding="utf-8"?>
<!-- Generator: Adobe Illustrator 23.0.6, SVG Export Plug-In . SVG Version: 6.00 Build 0)  -->
<svg version="1.1" id="Capa_1" xmlns="http://www.w3.org/2000/svg" xmlns:xlink="http://www.w3.org/1999/xlink" x="0px" y="0px"
	 viewBox="0 0 130 130" style="enable-background:new 0 0 130 130;" xml:space="preserve">
<style type="text/css">
	.st0{fill:#FFFFFF;}
	.st1{enable-background:new    ;}
	.st2{fill:url(#SVGID_1_);}
	.st3{opacity:0.22;}
	.st4{fill:url(#SVGID_2_);}
</style>
<g>
	<path class="st0" d="M65,129.8c-16.6,0-32.2-6.5-43.9-18.2S2.9,84.2,2.9,67.6c0-15.6,5.8-30.5,16.3-42C29.7,14.2,43.9,7.2,59.3,5.8
		l0,0.5C44.1,7.7,30,14.7,19.6,26C9.2,37.4,3.4,52.2,3.4,67.6c0,16.5,6.4,31.9,18,43.6s27.1,18,43.6,18s31.9-6.4,43.6-18
		c11.6-11.6,18-27.1,18-43.6c0-6.8-1.1-13.5-3.3-19.9l0.5-0.2c2.2,6.4,3.3,13.2,3.3,20c0,16.6-6.5,32.2-18.2,43.9
		S81.6,129.8,65,129.8z"/>
</g>
<g class="st1">
	<path class="st0" d="M92.9,12C92.9,12,92.9,12,92.9,12L82.7,8.6c-0.1,0-0.2-0.2-0.2-0.3c0-0.1,0.2-0.2,0.3-0.2L93,11.5
		c0.1,0,0.2,0.2,0.2,0.3C93.2,11.9,93.1,12,92.9,12z"/>
</g>
<g class="st1">
	<path class="st0" d="M90.2,20.4C90.1,20.4,90.1,20.4,90.2,20.4L80,17c-0.1,0-0.2-0.2-0.2-0.3c0-0.1,0.2-0.2,0.3-0.2l10.1,3.4
		c0.1,0,0.2,0.2,0.2,0.3C90.4,20.3,90.3,20.4,90.2,20.4z"/>
</g>
<g class="st1">
	<path class="st0" d="M64.3,12.5l-3.8-1.3c-0.7-0.3-1.4-0.8-1.7-1.5c-0.4-0.7-0.4-1.5-0.2-2.3l1.5-4.7c0.3-0.7,0.8-1.4,1.5-1.7
		c0.7-0.4,1.5-0.4,2.3-0.2l3.8,1.3l-0.2,0.5l-3.8-1.3c-0.6-0.2-1.3-0.2-1.8,0.1c-0.6,0.3-1,0.8-1.2,1.4l-1.5,4.7
		c-0.2,0.6-0.2,1.3,0.1,1.8c0.3,0.6,0.8,1,1.4,1.2l3.8,1.3L64.3,12.5z"/>
</g>
<g>
	
		<linearGradient id="SVGID_1_" gradientUnits="userSpaceOnUse" x1="1079.1643" y1="8449.3027" x2="1067.985" y2="8429.9395" gradientTransform="matrix(-0.3171 0.9484 -0.9484 -0.3171 8419.6611 1669.1727)">
		<stop  offset="0" style="stop-color:#8482FF"/>
		<stop  offset="1.961066e-02" style="stop-color:#6F7CFF"/>
		<stop  offset="4.340331e-02" style="stop-color:#5E77FF"/>
		<stop  offset="7.303896e-02" style="stop-color:#5374FF"/>
		<stop  offset="0.1146" style="stop-color:#4C72FF"/>
		<stop  offset="0.23" style="stop-color:#4A71FF"/>
		<stop  offset="0.3467" style="stop-color:#5378FE"/>
		<stop  offset="0.5403" style="stop-color:#6D8DFC"/>
		<stop  offset="0.7852" style="stop-color:#95ADF9"/>
		<stop  offset="1" style="stop-color:#BFCEF5"/>
	</linearGradient>
	<path class="st2" d="M64.2,6.7c1.7-5.1,7.3-7.9,12.5-6.2L85,3.3L78.8,22l-8.3-2.8C65.3,17.5,62.5,11.9,64.2,6.7z"/>
	<g class="st3">
		
			<image style="overflow:visible;" width="194" height="196" xlink:href="A76F9B9BBC8AD732.png"  transform="matrix(0.48 0 0 0.48 27.8327 -36)">
		</image>
	</g>
</g>
<circle class="st0" cx="114.8" cy="27.7" r="1.2"/>
<circle class="st0" cx="107.8" cy="32.8" r="1.2"/>
<g class="st1">
	<path class="st0" d="M120.2,49.8c-0.1,0-0.3,0-0.4,0c-0.8-0.1-1.5-0.5-1.9-1.2l-2.4-3.3l0.4-0.3l2.4,3.3c0.4,0.5,0.9,0.9,1.6,0.9
		c0.6,0.1,1.3-0.1,1.8-0.4l3.9-2.9c0.5-0.4,0.9-0.9,1-1.6c0.1-0.6-0.1-1.3-0.4-1.8l-2.4-3.3l0.4-0.3l2.4,3.3
		c0.5,0.6,0.7,1.4,0.5,2.2c-0.1,0.8-0.5,1.5-1.2,1.9l-3.9,2.9C121.5,49.6,120.9,49.8,120.2,49.8z"/>
</g>
<g>
	
		<linearGradient id="SVGID_2_" gradientUnits="userSpaceOnUse" x1="-3592.4526" y1="5408.7153" x2="-3574.3442" y2="5398.2607" gradientTransform="matrix(0.5944 0.8042 -0.8042 0.5944 6590.5928 -295.7634)">
		<stop  offset="0" style="stop-color:#8482FF"/>
		<stop  offset="4.689879e-02" style="stop-color:#6F7CFF"/>
		<stop  offset="0.1038" style="stop-color:#5E77FF"/>
		<stop  offset="0.1747" style="stop-color:#5374FF"/>
		<stop  offset="0.2741" style="stop-color:#4C72FF"/>
		<stop  offset="0.55" style="stop-color:#4A71FF"/>
		<stop  offset="0.6183" style="stop-color:#5378FE"/>
		<stop  offset="0.7314" style="stop-color:#6D8DFC"/>
		<stop  offset="0.8745" style="stop-color:#95ADF9"/>
		<stop  offset="1" style="stop-color:#BFCEF5"/>
	</linearGradient>
	<path class="st4" d="M123.3,29.7l-4-5.6c3.3,4.5,2.4,10.8-2,14l0,0c-4.4,3.3-10.7,2.3-14-2.2l0,0l4.1,5.5c3.3,4.4,9.6,5.4,14,2.2
		C125.7,40.4,126.6,34.2,123.3,29.7z"/>
	<g class="st3">
		
			<image style="overflow:visible;" width="196" height="195" xlink:href="A76F9B9BBC8AD736.png"  transform="matrix(0.48 0 0 0.48 67.1927 -12)">
		</image>
	</g>
</g>
<g>
	<path class="st0" d="M111.4,40.3c-0.5,0-1,0-1.5-0.1c-2.7-0.4-5-1.8-6.6-4c-1.6-2.2-2.3-4.8-1.9-7.5c0.4-2.7,1.8-5,4-6.6
		c2.2-1.6,4.8-2.3,7.5-1.9c2.7,0.4,5,1.8,6.6,4c1.6,2.2,2.3,4.8,1.9,7.5c-0.4,2.7-1.8,5-4,6.6C115.6,39.6,113.5,40.3,111.4,40.3z
		 M111.3,20.7c-2,0-4,0.6-5.6,1.9c-4.2,3.1-5.1,9.1-2,13.3l0,0c1.5,2,3.7,3.4,6.2,3.8c2.5,0.4,5-0.2,7.1-1.8c4.2-3.1,5.1-9.1,2-13.3
		c-1.5-2-3.7-3.4-6.2-3.8C112.3,20.8,111.8,20.7,111.3,20.7z"/>
</g>
<g>
	<path class="st0" d="M86.7,75.9C86.7,75.9,86.7,75.9,86.7,75.9l-21.8-5.3l-0.1-0.1L39.3,43.8c-0.1-0.1-0.1-0.3,0-0.4
		c0.1-0.1,0.3-0.1,0.4,0L65.2,70l21.6,5.3c0.1,0,0.2,0.2,0.2,0.3C87,75.8,86.9,75.9,86.7,75.9z"/>
</g>
</svg>
