<?xml version="1.0" encoding="utf-8"?>
<!-- Generator: Adobe Illustrator 23.0.6, SVG Export Plug-In . SVG Version: 6.00 Build 0)  -->
<svg version="1.1" id="Capa_1" xmlns="http://www.w3.org/2000/svg" xmlns:xlink="http://www.w3.org/1999/xlink" x="0px" y="0px"
	 viewBox="0 0 195.8 128.9" style="enable-background:new 0 0 195.8 128.9;" xml:space="preserve">
<style type="text/css">
	.st0{fill:url(#SVGID_1_);}
	.st1{opacity:0.22;}
	.st2{fill:#FFFFFF;}
</style>
<g>
	<linearGradient id="SVGID_1_" gradientUnits="userSpaceOnUse" x1="34.29" y1="98.225" x2="153.6001" y2="29.3413">
		<stop  offset="0.23" style="stop-color:#4A71FF"/>
		<stop  offset="0.3467" style="stop-color:#5378FE"/>
		<stop  offset="0.5403" style="stop-color:#6D8DFC"/>
		<stop  offset="0.7852" style="stop-color:#95ADF9"/>
		<stop  offset="1" style="stop-color:#BFCEF5"/>
	</linearGradient>
	<path class="st0" d="M132.4-0.2H55.5c-4,0-7.2,3.2-7.2,7.2V73l4.9,2l25,1.1c7.9,0,7.6,11.6,1.4,11.6c-2.9,0-18.2-0.4-22.3,0
		c-2.2,0.2-5.4,3.6-9,6.8v26.1c0,4,3.2,7.2,7.2,7.2h76.8c4,0,7.2-3.2,7.2-7.2c0,0,0-40.8,0-54.6c0-13.8,0-59.1,0-59.1
		C139.6,3,136.3-0.2,132.4-0.2z"/>
	<g class="st1">
		
			<image style="overflow:visible;" width="341" height="418" xlink:href="CE970AEDB8727EFA.png"  transform="matrix(0.48 0 0 0.48 12.1036 -36.5962)">
		</image>
	</g>
</g>
<g>
	<path class="st2" d="M15.9,66.8c-0.3,0-0.5-0.2-0.5-0.5c0-0.3,0.2-0.5,0.5-0.5c3.5-0.3,5.7-0.5,6.3-0.6c0.8-0.2,13.5-4.8,21.9-7.9
		l3.9-1.4c0.3-0.1,0.5,0,0.6,0.3c0.1,0.3,0,0.5-0.3,0.6l-3.9,1.4c-12,4.4-21.3,7.8-22.1,7.9C21.7,66.2,19.6,66.5,15.9,66.8
		C16,66.8,15.9,66.8,15.9,66.8z"/>
</g>
<g>
	<path class="st2" d="M132.1,129.1H55.3c-4.2,0-7.7-3.5-7.7-7.7V94.9h1v26.4c0,3.7,3,6.7,6.7,6.7h76.8c3.7,0,6.7-3,6.7-6.7V7.7
		c0-3.7-3-6.7-6.7-6.7H55.3c-3.7,0-6.7,3-6.7,6.7V73h-1V7.7C47.6,3.5,51,0,55.3,0h76.8c4.2,0,7.7,3.5,7.7,7.7v113.7
		C139.8,125.6,136.4,129.1,132.1,129.1z"/>
</g>
<g>
	<path class="st2" d="M38.5,100.2H16c-0.3,0-0.5-0.2-0.5-0.5s0.2-0.5,0.5-0.5h22.5c3.7,0,7.8-3.8,11.4-7.1c2.8-2.6,5.2-4.8,7.1-5
		c3.1-0.3,12.7-0.1,18.4-0.1c1.8,0,3.2,0.1,3.9,0.1c2.7,0,4.1-2.5,4.1-5c0-1.5-0.5-2.8-1.3-3.9c-1-1.1-2.4-1.8-4.2-1.8l-25.2-1.1
		l-11.5-4.8c-0.3-0.1-0.4-0.4-0.3-0.7c0.1-0.3,0.4-0.4,0.7-0.3L53,74.5l24.9,1.1c0,0,0,0,0,0c2,0,3.7,0.7,4.9,2.1
		c1,1.2,1.6,2.8,1.6,4.5c0,3-1.8,6-5.1,6c-0.7,0-2.1,0-4-0.1c-5.7-0.1-15.2-0.2-18.3,0c-1.6,0.1-4,2.4-6.5,4.7
		C46.8,96.3,42.5,100.2,38.5,100.2z"/>
</g>
<g>
	<path class="st2" d="M107.5,23.8h-47c-0.3,0-0.5-0.2-0.5-0.5s0.2-0.5,0.5-0.5h47c0.3,0,0.5,0.2,0.5,0.5S107.8,23.8,107.5,23.8z"/>
</g>
<g>
	<path class="st2" d="M124.1,36.8H60.6c-0.3,0-0.5-0.2-0.5-0.5s0.2-0.5,0.5-0.5h63.6c0.3,0,0.5,0.2,0.5,0.5S124.4,36.8,124.1,36.8z"
		/>
</g>
<g>
	<path class="st2" d="M100.5,109.3H87.4c-0.3,0-0.5-0.2-0.5-0.5s0.2-0.5,0.5-0.5h13.1c0.3,0,0.5,0.2,0.5,0.5
		S100.8,109.3,100.5,109.3z"/>
</g>
<g>
	<path class="st2" d="M124.5,109.3h-13.1c-0.3,0-0.5-0.2-0.5-0.5s0.2-0.5,0.5-0.5h13.1c0.3,0,0.5,0.2,0.5,0.5
		S124.8,109.3,124.5,109.3z"/>
</g>
<g>
	<path class="st2" d="M13.4,105.2H3c-1.7,0-3-1.4-3-3V64.4c0-1.7,1.4-3,3-3h10.3c1.7,0,3,1.4,3,3v37.8
		C16.4,103.8,15.1,105.2,13.4,105.2z M3,62.4c-1.1,0-2,0.9-2,2v37.8c0,1.1,0.9,2,2,2h10.3c1.1,0,2-0.9,2-2V64.4c0-1.1-0.9-2-2-2H3z"
		/>
</g>
<g>
	<path class="st2" d="M175.8,83.1h-19.5c-0.3,0-0.5-0.2-0.5-0.5s0.2-0.5,0.5-0.5h19.5c0.3,0,0.5,0.2,0.5,0.5S176.1,83.1,175.8,83.1z
		"/>
</g>
<g>
	<path class="st2" d="M195.3,66.1h-38.9c-0.3,0-0.5-0.2-0.5-0.5s0.2-0.5,0.5-0.5h38.9c0.3,0,0.5,0.2,0.5,0.5S195.6,66.1,195.3,66.1z
		"/>
</g>
<g>
	<path class="st2" d="M175.8,49.2h-19.5c-0.3,0-0.5-0.2-0.5-0.5s0.2-0.5,0.5-0.5h19.5c0.3,0,0.5,0.2,0.5,0.5S176.1,49.2,175.8,49.2z
		"/>
</g>
<g>
	<path class="st2" d="M88.8,49.8H60.6c-0.3,0-0.5-0.2-0.5-0.5s0.2-0.5,0.5-0.5h28.2c0.3,0,0.5,0.2,0.5,0.5S89.1,49.8,88.8,49.8z"/>
</g>
</svg>
