<svg xmlns="http://www.w3.org/2000/svg" xmlns:xlink="http://www.w3.org/1999/xlink" width="1775.469" height="322.944" viewBox="0 0 1775.469 322.944"><defs><style>.a{fill:none;}.b{opacity:0.439;}.c{clip-path:url(#a);}.d{clip-path:url(#b);}.e{opacity:0.75;}.f{clip-path:url(#c);}.g{fill:#c0c1c7;}.h{clip-path:url(#d);}</style><clipPath id="a"><rect class="a" width="1775.469" height="322.944"/></clipPath><clipPath id="b"><rect class="a" width="1775.472" height="322.944"/></clipPath><clipPath id="c"><rect class="a" width="874.313" height="322.944"/></clipPath><clipPath id="d"><rect class="a" width="874.305" height="322.944"/></clipPath></defs><g class="b" transform="translate(1775.469 322.944) rotate(180)"><g class="c"><g class="d"><g class="e"><g class="f"><path class="g" d="M4.252,275.069a2.059,2.059,0,0,1-2.126,1.984,1.989,1.989,0,1,1,0-3.968,2.058,2.058,0,0,1,2.126,1.984" transform="translate(0 -70.102)"/><path class="g" d="M43.265,275.069a2.131,2.131,0,1,1-2.126-1.984,2.059,2.059,0,0,1,2.126,1.984" transform="translate(-7.939 -70.102)"/><path class="g" d="M82.278,275.069a2.131,2.131,0,1,1-2.126-1.984,2.059,2.059,0,0,1,2.126,1.984" transform="translate(-15.879 -70.102)"/><path class="g" d="M121.292,275.069a2.131,2.131,0,1,1-2.126-1.984,2.059,2.059,0,0,1,2.126,1.984" transform="translate(-23.818 -70.102)"/><path class="g" d="M160.3,275.069a2.131,2.131,0,1,1-2.126-1.984,2.059,2.059,0,0,1,2.126,1.984" transform="translate(-31.757 -70.102)"/><path class="g" d="M199.318,275.069a2.131,2.131,0,1,1-2.126-1.984,2.059,2.059,0,0,1,2.126,1.984" transform="translate(-39.697 -70.102)"/><path class="g" d="M238.331,275.069a2.131,2.131,0,1,1-2.126-1.984,2.059,2.059,0,0,1,2.126,1.984" transform="translate(-47.636 -70.102)"/><path class="g" d="M277.344,275.069a2.131,2.131,0,1,1-2.126-1.984,2.059,2.059,0,0,1,2.126,1.984" transform="translate(-55.575 -70.102)"/><path class="g" d="M4.252,314.081a2.058,2.058,0,0,1-2.126,1.984,1.989,1.989,0,1,1,0-3.968,2.059,2.059,0,0,1,2.126,1.984" transform="translate(0 -80.117)"/><path class="g" d="M43.265,314.081a2.131,2.131,0,1,1-2.126-1.984,2.058,2.058,0,0,1,2.126,1.984" transform="translate(-7.939 -80.117)"/><path class="g" d="M82.278,314.081a2.131,2.131,0,1,1-2.126-1.984,2.058,2.058,0,0,1,2.126,1.984" transform="translate(-15.879 -80.117)"/><path class="g" d="M121.292,314.081a2.131,2.131,0,1,1-2.126-1.984,2.058,2.058,0,0,1,2.126,1.984" transform="translate(-23.818 -80.117)"/><path class="g" d="M160.3,314.081a2.131,2.131,0,1,1-2.126-1.984,2.058,2.058,0,0,1,2.126,1.984" transform="translate(-31.757 -80.117)"/><path class="g" d="M199.318,314.081a2.131,2.131,0,1,1-2.126-1.984,2.058,2.058,0,0,1,2.126,1.984" transform="translate(-39.697 -80.117)"/><path class="g" d="M238.331,314.081A2.131,2.131,0,1,1,236.2,312.1a2.058,2.058,0,0,1,2.126,1.984" transform="translate(-47.636 -80.117)"/><path class="g" d="M277.344,314.081a2.131,2.131,0,1,1-2.126-1.984,2.058,2.058,0,0,1,2.126,1.984" transform="translate(-55.575 -80.117)"/><path class="g" d="M4.252,353.095a2.059,2.059,0,0,1-2.126,1.984,1.989,1.989,0,1,1,0-3.968,2.059,2.059,0,0,1,2.126,1.985" transform="translate(0 -90.131)"/><path class="g" d="M43.265,353.095a2.131,2.131,0,1,1-2.126-1.985,2.059,2.059,0,0,1,2.126,1.985" transform="translate(-7.939 -90.131)"/><path class="g" d="M82.278,353.095a2.131,2.131,0,1,1-2.126-1.985,2.059,2.059,0,0,1,2.126,1.985" transform="translate(-15.879 -90.131)"/><path class="g" d="M121.292,353.095a2.131,2.131,0,1,1-2.126-1.985,2.059,2.059,0,0,1,2.126,1.985" transform="translate(-23.818 -90.131)"/><path class="g" d="M160.3,353.095a2.131,2.131,0,1,1-2.126-1.985,2.059,2.059,0,0,1,2.126,1.985" transform="translate(-31.757 -90.131)"/><path class="g" d="M199.318,353.095a2.131,2.131,0,1,1-2.126-1.985,2.059,2.059,0,0,1,2.126,1.985" transform="translate(-39.697 -90.131)"/><path class="g" d="M238.331,353.095a2.131,2.131,0,1,1-2.126-1.985,2.059,2.059,0,0,1,2.126,1.985" transform="translate(-47.636 -90.131)"/><path class="g" d="M277.344,353.095a2.131,2.131,0,1,1-2.126-1.985,2.059,2.059,0,0,1,2.126,1.985" transform="translate(-55.575 -90.131)"/><path class="g" d="M4.252,392.108a2.058,2.058,0,0,1-2.126,1.984,1.989,1.989,0,1,1,0-3.968,2.059,2.059,0,0,1,2.126,1.984" transform="translate(0 -100.146)"/><path class="g" d="M43.265,392.108a2.131,2.131,0,1,1-2.126-1.984,2.058,2.058,0,0,1,2.126,1.984" transform="translate(-7.939 -100.146)"/><path class="g" d="M82.278,392.108a2.131,2.131,0,1,1-2.126-1.984,2.058,2.058,0,0,1,2.126,1.984" transform="translate(-15.879 -100.146)"/><path class="g" d="M121.292,392.108a2.131,2.131,0,1,1-2.126-1.984,2.058,2.058,0,0,1,2.126,1.984" transform="translate(-23.818 -100.146)"/><path class="g" d="M160.3,392.108a2.131,2.131,0,1,1-2.126-1.984,2.058,2.058,0,0,1,2.126,1.984" transform="translate(-31.757 -100.146)"/><path class="g" d="M199.318,392.108a2.131,2.131,0,1,1-2.126-1.984,2.058,2.058,0,0,1,2.126,1.984" transform="translate(-39.697 -100.146)"/><path class="g" d="M238.331,392.108a2.131,2.131,0,1,1-2.126-1.984,2.058,2.058,0,0,1,2.126,1.984" transform="translate(-47.636 -100.146)"/><path class="g" d="M277.344,392.108a2.131,2.131,0,1,1-2.126-1.984,2.058,2.058,0,0,1,2.126,1.984" transform="translate(-55.575 -100.146)"/><path class="g" d="M4.252,431.12A2.059,2.059,0,0,1,2.126,433.1a1.989,1.989,0,1,1,0-3.969,2.059,2.059,0,0,1,2.126,1.984" transform="translate(0 -110.161)"/><path class="g" d="M43.265,431.12a2.131,2.131,0,1,1-2.126-1.984,2.059,2.059,0,0,1,2.126,1.984" transform="translate(-7.939 -110.161)"/><path class="g" d="M82.278,431.12a2.131,2.131,0,1,1-2.126-1.984,2.059,2.059,0,0,1,2.126,1.984" transform="translate(-15.879 -110.161)"/><path class="g" d="M121.292,431.12a2.131,2.131,0,1,1-2.126-1.984,2.059,2.059,0,0,1,2.126,1.984" transform="translate(-23.818 -110.161)"/><path class="g" d="M160.3,431.12a2.131,2.131,0,1,1-2.126-1.984,2.059,2.059,0,0,1,2.126,1.984" transform="translate(-31.757 -110.161)"/><path class="g" d="M316.356,275.069a2.131,2.131,0,1,1-2.126-1.984,2.059,2.059,0,0,1,2.126,1.984" transform="translate(-63.514 -70.102)"/><path class="g" d="M355.369,275.069a2.131,2.131,0,1,1-2.126-1.984,2.059,2.059,0,0,1,2.126,1.984" transform="translate(-71.454 -70.102)"/><path class="g" d="M394.382,275.069a2.131,2.131,0,1,1-2.126-1.984,2.059,2.059,0,0,1,2.126,1.984" transform="translate(-79.393 -70.102)"/><path class="g" d="M433.395,275.069a2.131,2.131,0,1,1-2.126-1.984,2.059,2.059,0,0,1,2.126,1.984" transform="translate(-87.332 -70.102)"/><path class="g" d="M472.408,275.069a2.131,2.131,0,1,1-2.126-1.984,2.059,2.059,0,0,1,2.126,1.984" transform="translate(-95.272 -70.102)"/><path class="g" d="M316.356,314.081a2.131,2.131,0,1,1-2.126-1.984,2.058,2.058,0,0,1,2.126,1.984" transform="translate(-63.514 -80.117)"/><path class="g" d="M355.369,314.081a2.131,2.131,0,1,1-2.126-1.984,2.058,2.058,0,0,1,2.126,1.984" transform="translate(-71.454 -80.117)"/><path class="g" d="M394.382,314.081a2.131,2.131,0,1,1-2.126-1.984,2.058,2.058,0,0,1,2.126,1.984" transform="translate(-79.393 -80.117)"/><path class="g" d="M433.395,314.081a2.131,2.131,0,1,1-2.126-1.984,2.058,2.058,0,0,1,2.126,1.984" transform="translate(-87.332 -80.117)"/><path class="g" d="M472.408,314.081a2.131,2.131,0,1,1-2.126-1.984,2.058,2.058,0,0,1,2.126,1.984" transform="translate(-95.272 -80.117)"/><path class="g" d="M511.421,314.081a2.131,2.131,0,1,1-2.126-1.984,2.058,2.058,0,0,1,2.126,1.984" transform="translate(-103.211 -80.117)"/><path class="g" d="M550.434,314.081a2.131,2.131,0,1,1-2.126-1.984,2.058,2.058,0,0,1,2.126,1.984" transform="translate(-111.15 -80.117)"/><path class="g" d="M316.356,353.095a2.131,2.131,0,1,1-2.126-1.985,2.059,2.059,0,0,1,2.126,1.985" transform="translate(-63.514 -90.131)"/><path class="g" d="M355.369,353.095a2.131,2.131,0,1,1-2.126-1.985,2.059,2.059,0,0,1,2.126,1.985" transform="translate(-71.454 -90.131)"/><path class="g" d="M394.382,353.095a2.131,2.131,0,1,1-2.126-1.985,2.059,2.059,0,0,1,2.126,1.985" transform="translate(-79.393 -90.131)"/><path class="g" d="M433.395,353.095a2.131,2.131,0,1,1-2.126-1.985,2.059,2.059,0,0,1,2.126,1.985" transform="translate(-87.332 -90.131)"/><path class="g" d="M472.408,353.095a2.131,2.131,0,1,1-2.126-1.985,2.059,2.059,0,0,1,2.126,1.985" transform="translate(-95.272 -90.131)"/><path class="g" d="M511.421,353.095a2.131,2.131,0,1,1-2.126-1.985,2.059,2.059,0,0,1,2.126,1.985" transform="translate(-103.211 -90.131)"/><path class="g" d="M550.434,353.095a2.131,2.131,0,1,1-2.126-1.985,2.059,2.059,0,0,1,2.126,1.985" transform="translate(-111.15 -90.131)"/><path class="g" d="M316.356,392.108a2.131,2.131,0,1,1-2.126-1.984,2.058,2.058,0,0,1,2.126,1.984" transform="translate(-63.514 -100.146)"/><path class="g" d="M355.369,392.108a2.131,2.131,0,1,1-2.126-1.984,2.058,2.058,0,0,1,2.126,1.984" transform="translate(-71.454 -100.146)"/><path class="g" d="M394.382,392.108a2.131,2.131,0,1,1-2.126-1.984,2.058,2.058,0,0,1,2.126,1.984" transform="translate(-79.393 -100.146)"/><path class="g" d="M433.395,392.108a2.131,2.131,0,1,1-2.126-1.984,2.058,2.058,0,0,1,2.126,1.984" transform="translate(-87.332 -100.146)"/><path class="g" d="M511.421,392.108a2.131,2.131,0,1,1-2.126-1.984,2.058,2.058,0,0,1,2.126,1.984" transform="translate(-103.211 -100.146)"/><path class="g" d="M550.434,392.108a2.131,2.131,0,1,1-2.126-1.984,2.058,2.058,0,0,1,2.126,1.984" transform="translate(-111.15 -100.146)"/><path class="g" d="M316.356,431.12a2.131,2.131,0,1,1-2.126-1.984,2.059,2.059,0,0,1,2.126,1.984" transform="translate(-63.514 -110.161)"/><path class="g" d="M355.369,431.12a2.131,2.131,0,1,1-2.126-1.984,2.059,2.059,0,0,1,2.126,1.984" transform="translate(-71.454 -110.161)"/><path class="g" d="M394.382,431.12a2.131,2.131,0,1,1-2.126-1.984,2.059,2.059,0,0,1,2.126,1.984" transform="translate(-79.393 -110.161)"/><path class="g" d="M433.395,431.12a2.131,2.131,0,1,1-2.126-1.984,2.059,2.059,0,0,1,2.126,1.984" transform="translate(-87.332 -110.161)"/><path class="g" d="M511.421,431.12a2.131,2.131,0,1,1-2.126-1.984,2.059,2.059,0,0,1,2.126,1.984" transform="translate(-103.211 -110.161)"/><path class="g" d="M550.434,431.12a2.131,2.131,0,1,1-2.126-1.984,2.059,2.059,0,0,1,2.126,1.984" transform="translate(-111.15 -110.161)"/><path class="g" d="M589.444,275.069a2.131,2.131,0,1,1-2.126-1.984,2.059,2.059,0,0,1,2.126,1.984" transform="translate(-119.089 -70.102)"/><path class="g" d="M589.444,314.081a2.131,2.131,0,1,1-2.126-1.984,2.058,2.058,0,0,1,2.126,1.984" transform="translate(-119.089 -80.117)"/><path class="g" d="M628.457,314.081a2.131,2.131,0,1,1-2.126-1.984,2.058,2.058,0,0,1,2.126,1.984" transform="translate(-127.028 -80.117)"/><path class="g" d="M667.47,353.095a2.131,2.131,0,1,1-2.126-1.985,2.059,2.059,0,0,1,2.126,1.985" transform="translate(-134.968 -90.131)"/><path class="g" d="M589.444,392.108a2.131,2.131,0,1,1-2.126-1.984,2.058,2.058,0,0,1,2.126,1.984" transform="translate(-119.089 -100.146)"/><path class="g" d="M628.457,392.108a2.131,2.131,0,1,1-2.126-1.984,2.058,2.058,0,0,1,2.126,1.984" transform="translate(-127.028 -100.146)"/><path class="g" d="M667.47,392.108a2.131,2.131,0,1,1-2.126-1.984,2.058,2.058,0,0,1,2.126,1.984" transform="translate(-134.968 -100.146)"/><path class="g" d="M706.483,392.108a2.131,2.131,0,1,1-2.126-1.984,2.058,2.058,0,0,1,2.126,1.984" transform="translate(-142.907 -100.146)"/><path class="g" d="M745.5,392.108a2.131,2.131,0,1,1-2.126-1.984,2.058,2.058,0,0,1,2.126,1.984" transform="translate(-150.846 -100.146)"/><path class="g" d="M784.51,392.108a2.131,2.131,0,1,1-2.126-1.984,2.058,2.058,0,0,1,2.126,1.984" transform="translate(-158.786 -100.146)"/><path class="g" d="M823.523,392.108a2.131,2.131,0,1,1-2.126-1.984,2.058,2.058,0,0,1,2.126,1.984" transform="translate(-166.725 -100.146)"/><path class="g" d="M589.444,431.12a2.131,2.131,0,1,1-2.126-1.984,2.059,2.059,0,0,1,2.126,1.984" transform="translate(-119.089 -110.161)"/><path class="g" d="M628.457,431.12a2.131,2.131,0,1,1-2.126-1.984,2.059,2.059,0,0,1,2.126,1.984" transform="translate(-127.028 -110.161)"/><path class="g" d="M667.47,431.12a2.131,2.131,0,1,1-2.126-1.984,2.059,2.059,0,0,1,2.126,1.984" transform="translate(-134.968 -110.161)"/><path class="g" d="M706.483,431.12a2.131,2.131,0,1,1-2.126-1.984,2.059,2.059,0,0,1,2.126,1.984" transform="translate(-142.907 -110.161)"/><path class="g" d="M745.5,431.12a2.131,2.131,0,1,1-2.126-1.984,2.059,2.059,0,0,1,2.126,1.984" transform="translate(-150.846 -110.161)"/><path class="g" d="M784.51,431.12a2.131,2.131,0,1,1-2.126-1.984,2.059,2.059,0,0,1,2.126,1.984" transform="translate(-158.786 -110.161)"/><path class="g" d="M823.523,431.12a2.131,2.131,0,1,1-2.126-1.984,2.059,2.059,0,0,1,2.126,1.984" transform="translate(-166.725 -110.161)"/><path class="g" d="M862.534,392.108a2.131,2.131,0,1,1-2.126-1.984,2.058,2.058,0,0,1,2.126,1.984" transform="translate(-174.664 -100.146)"/><path class="g" d="M901.547,392.108a2.131,2.131,0,1,1-2.126-1.984,2.058,2.058,0,0,1,2.126,1.984" transform="translate(-182.603 -100.146)"/><path class="g" d="M940.561,392.108a2.131,2.131,0,1,1-2.126-1.984,2.058,2.058,0,0,1,2.126,1.984" transform="translate(-190.543 -100.146)"/><path class="g" d="M1018.587,392.108a2.131,2.131,0,1,1-2.126-1.984,2.058,2.058,0,0,1,2.126,1.984" transform="translate(-206.421 -100.146)"/><path class="g" d="M1057.6,392.108a2.131,2.131,0,1,1-2.126-1.984,2.058,2.058,0,0,1,2.126,1.984" transform="translate(-214.361 -100.146)"/><path class="g" d="M862.534,431.12a2.131,2.131,0,1,1-2.126-1.984,2.059,2.059,0,0,1,2.126,1.984" transform="translate(-174.664 -110.161)"/><path class="g" d="M901.547,431.12a2.131,2.131,0,1,1-2.126-1.984,2.059,2.059,0,0,1,2.126,1.984" transform="translate(-182.603 -110.161)"/><path class="g" d="M940.561,431.12a2.131,2.131,0,1,1-2.126-1.984,2.059,2.059,0,0,1,2.126,1.984" transform="translate(-190.543 -110.161)"/><path class="g" d="M979.573,431.12a2.131,2.131,0,1,1-2.126-1.984,2.059,2.059,0,0,1,2.126,1.984" transform="translate(-198.482 -110.161)"/><path class="g" d="M1018.587,431.12a2.131,2.131,0,1,1-2.126-1.984,2.059,2.059,0,0,1,2.126,1.984" transform="translate(-206.421 -110.161)"/><path class="g" d="M1057.6,431.12a2.131,2.131,0,1,1-2.126-1.984,2.059,2.059,0,0,1,2.126,1.984" transform="translate(-214.361 -110.161)"/><path class="g" d="M1096.613,431.12a2.131,2.131,0,1,1-2.126-1.984,2.059,2.059,0,0,1,2.126,1.984" transform="translate(-222.3 -110.161)"/><path class="g" d="M43.265,1.985a2.131,2.131,0,0,1-4.252,0,2.131,2.131,0,0,1,4.252,0" transform="translate(-7.939)"/><path class="g" d="M82.278,41a2.131,2.131,0,1,1-2.126-1.984A2.058,2.058,0,0,1,82.278,41" transform="translate(-15.879 -10.015)"/><path class="g" d="M121.292,41a2.131,2.131,0,1,1-2.126-1.984A2.058,2.058,0,0,1,121.292,41" transform="translate(-23.818 -10.015)"/><path class="g" d="M160.3,41a2.131,2.131,0,1,1-2.126-1.984A2.058,2.058,0,0,1,160.3,41" transform="translate(-31.757 -10.015)"/><path class="g" d="M199.318,41a2.131,2.131,0,1,1-2.126-1.984A2.058,2.058,0,0,1,199.318,41" transform="translate(-39.697 -10.015)"/><path class="g" d="M238.331,41a2.131,2.131,0,1,1-2.126-1.984A2.058,2.058,0,0,1,238.331,41" transform="translate(-47.636 -10.015)"/><path class="g" d="M277.344,41a2.131,2.131,0,1,1-2.126-1.984A2.058,2.058,0,0,1,277.344,41" transform="translate(-55.575 -10.015)"/><path class="g" d="M4.252,80.01a2.059,2.059,0,0,1-2.126,1.985,1.989,1.989,0,1,1,0-3.968A2.059,2.059,0,0,1,4.252,80.01" transform="translate(0 -20.03)"/><path class="g" d="M43.265,80.01a2.131,2.131,0,1,1-2.126-1.984,2.059,2.059,0,0,1,2.126,1.984" transform="translate(-7.939 -20.03)"/><path class="g" d="M121.292,80.01a2.131,2.131,0,1,1-2.126-1.984,2.059,2.059,0,0,1,2.126,1.984" transform="translate(-23.818 -20.03)"/><path class="g" d="M160.3,80.01a2.131,2.131,0,1,1-2.126-1.984A2.059,2.059,0,0,1,160.3,80.01" transform="translate(-31.757 -20.03)"/><path class="g" d="M199.318,80.01a2.131,2.131,0,1,1-2.126-1.984,2.059,2.059,0,0,1,2.126,1.984" transform="translate(-39.697 -20.03)"/><path class="g" d="M238.331,80.01a2.131,2.131,0,1,1-2.126-1.984,2.059,2.059,0,0,1,2.126,1.984" transform="translate(-47.636 -20.03)"/><path class="g" d="M277.344,80.01a2.131,2.131,0,1,1-2.126-1.984,2.059,2.059,0,0,1,2.126,1.984" transform="translate(-55.575 -20.03)"/><path class="g" d="M4.252,119.024a2.059,2.059,0,0,1-2.126,1.984,1.989,1.989,0,1,1,0-3.968,2.058,2.058,0,0,1,2.126,1.984" transform="translate(0 -30.045)"/><path class="g" d="M43.265,119.024a2.131,2.131,0,1,1-2.126-1.984,2.059,2.059,0,0,1,2.126,1.984" transform="translate(-7.939 -30.045)"/><path class="g" d="M82.278,119.024a2.131,2.131,0,1,1-2.126-1.984,2.059,2.059,0,0,1,2.126,1.984" transform="translate(-15.879 -30.045)"/><path class="g" d="M121.292,119.024a2.131,2.131,0,1,1-2.126-1.984,2.059,2.059,0,0,1,2.126,1.984" transform="translate(-23.818 -30.045)"/><path class="g" d="M160.3,119.024a2.131,2.131,0,1,1-2.126-1.984,2.059,2.059,0,0,1,2.126,1.984" transform="translate(-31.757 -30.045)"/><path class="g" d="M199.318,119.024a2.131,2.131,0,1,1-2.126-1.984,2.059,2.059,0,0,1,2.126,1.984" transform="translate(-39.697 -30.045)"/><path class="g" d="M238.331,119.024a2.131,2.131,0,1,1-2.126-1.984,2.059,2.059,0,0,1,2.126,1.984" transform="translate(-47.636 -30.045)"/><path class="g" d="M277.344,119.024a2.131,2.131,0,1,1-2.126-1.984,2.059,2.059,0,0,1,2.126,1.984" transform="translate(-55.575 -30.045)"/><path class="g" d="M82.278,158.036a2.131,2.131,0,1,1-2.126-1.984,2.058,2.058,0,0,1,2.126,1.984" transform="translate(-15.879 -40.059)"/><path class="g" d="M121.292,158.036a2.131,2.131,0,1,1-2.126-1.984,2.058,2.058,0,0,1,2.126,1.984" transform="translate(-23.818 -40.059)"/><path class="g" d="M160.3,158.036a2.131,2.131,0,1,1-2.126-1.984,2.058,2.058,0,0,1,2.126,1.984" transform="translate(-31.757 -40.059)"/><path class="g" d="M199.318,158.036a2.131,2.131,0,1,1-2.126-1.984,2.058,2.058,0,0,1,2.126,1.984" transform="translate(-39.697 -40.059)"/><path class="g" d="M238.331,158.036a2.131,2.131,0,1,1-2.126-1.984,2.058,2.058,0,0,1,2.126,1.984" transform="translate(-47.636 -40.059)"/><path class="g" d="M277.344,158.036a2.131,2.131,0,1,1-2.126-1.984,2.058,2.058,0,0,1,2.126,1.984" transform="translate(-55.575 -40.059)"/><path class="g" d="M43.265,197.05a2.131,2.131,0,1,1-2.126-1.985,2.059,2.059,0,0,1,2.126,1.985" transform="translate(-7.939 -50.074)"/><path class="g" d="M82.278,197.05a2.131,2.131,0,1,1-2.126-1.985,2.059,2.059,0,0,1,2.126,1.985" transform="translate(-15.879 -50.074)"/><path class="g" d="M121.292,197.05a2.131,2.131,0,1,1-2.126-1.985,2.059,2.059,0,0,1,2.126,1.985" transform="translate(-23.818 -50.074)"/><path class="g" d="M160.3,197.05a2.131,2.131,0,1,1-2.126-1.985,2.059,2.059,0,0,1,2.126,1.985" transform="translate(-31.757 -50.074)"/><path class="g" d="M199.318,197.05a2.131,2.131,0,1,1-2.126-1.985,2.059,2.059,0,0,1,2.126,1.985" transform="translate(-39.697 -50.074)"/><path class="g" d="M238.331,197.05a2.131,2.131,0,1,1-2.126-1.985,2.059,2.059,0,0,1,2.126,1.985" transform="translate(-47.636 -50.074)"/><path class="g" d="M277.344,197.05a2.131,2.131,0,1,1-2.126-1.985,2.059,2.059,0,0,1,2.126,1.985" transform="translate(-55.575 -50.074)"/><path class="g" d="M4.252,236.063a2.058,2.058,0,0,1-2.126,1.984,1.989,1.989,0,1,1,0-3.968,2.059,2.059,0,0,1,2.126,1.984" transform="translate(0 -60.089)"/><path class="g" d="M82.278,236.063a2.131,2.131,0,1,1-2.126-1.984,2.058,2.058,0,0,1,2.126,1.984" transform="translate(-15.879 -60.089)"/><path class="g" d="M121.292,236.063a2.131,2.131,0,1,1-2.126-1.984,2.058,2.058,0,0,1,2.126,1.984" transform="translate(-23.818 -60.089)"/><path class="g" d="M160.3,236.063a2.131,2.131,0,1,1-2.126-1.984,2.058,2.058,0,0,1,2.126,1.984" transform="translate(-31.757 -60.089)"/><path class="g" d="M199.318,236.063a2.131,2.131,0,1,1-2.126-1.984,2.058,2.058,0,0,1,2.126,1.984" transform="translate(-39.697 -60.089)"/><path class="g" d="M238.331,236.063a2.131,2.131,0,1,1-2.126-1.984,2.058,2.058,0,0,1,2.126,1.984" transform="translate(-47.636 -60.089)"/><path class="g" d="M277.344,236.063a2.131,2.131,0,1,1-2.126-1.984,2.058,2.058,0,0,1,2.126,1.984" transform="translate(-55.575 -60.089)"/><path class="g" d="M316.356,41a2.131,2.131,0,1,1-2.126-1.984A2.058,2.058,0,0,1,316.356,41" transform="translate(-63.514 -10.015)"/><path class="g" d="M355.369,41a2.131,2.131,0,1,1-2.126-1.984A2.058,2.058,0,0,1,355.369,41" transform="translate(-71.454 -10.015)"/><path class="g" d="M472.408,41a2.131,2.131,0,1,1-2.126-1.984A2.058,2.058,0,0,1,472.408,41" transform="translate(-95.272 -10.015)"/><path class="g" d="M550.434,41a2.131,2.131,0,1,1-2.126-1.984A2.058,2.058,0,0,1,550.434,41" transform="translate(-111.15 -10.015)"/><path class="g" d="M316.356,80.01a2.131,2.131,0,1,1-2.126-1.984,2.059,2.059,0,0,1,2.126,1.984" transform="translate(-63.514 -20.03)"/><path class="g" d="M355.369,80.01a2.131,2.131,0,1,1-2.126-1.984,2.059,2.059,0,0,1,2.126,1.984" transform="translate(-71.454 -20.03)"/><path class="g" d="M394.382,80.01a2.131,2.131,0,1,1-2.126-1.984,2.059,2.059,0,0,1,2.126,1.984" transform="translate(-79.393 -20.03)"/><path class="g" d="M433.395,80.01a2.131,2.131,0,1,1-2.126-1.984,2.059,2.059,0,0,1,2.126,1.984" transform="translate(-87.332 -20.03)"/><path class="g" d="M472.408,80.01a2.131,2.131,0,1,1-2.126-1.984,2.059,2.059,0,0,1,2.126,1.984" transform="translate(-95.272 -20.03)"/><path class="g" d="M511.421,80.01a2.131,2.131,0,1,1-2.126-1.984,2.059,2.059,0,0,1,2.126,1.984" transform="translate(-103.211 -20.03)"/><path class="g" d="M550.434,80.01a2.131,2.131,0,1,1-2.126-1.984,2.059,2.059,0,0,1,2.126,1.984" transform="translate(-111.15 -20.03)"/><path class="g" d="M316.356,119.024a2.131,2.131,0,1,1-2.126-1.984,2.059,2.059,0,0,1,2.126,1.984" transform="translate(-63.514 -30.045)"/><path class="g" d="M355.369,119.024a2.131,2.131,0,1,1-2.126-1.984,2.059,2.059,0,0,1,2.126,1.984" transform="translate(-71.454 -30.045)"/><path class="g" d="M394.382,119.024a2.131,2.131,0,1,1-2.126-1.984,2.059,2.059,0,0,1,2.126,1.984" transform="translate(-79.393 -30.045)"/><path class="g" d="M433.395,119.024a2.131,2.131,0,1,1-2.126-1.984,2.059,2.059,0,0,1,2.126,1.984" transform="translate(-87.332 -30.045)"/><path class="g" d="M472.408,119.024a2.131,2.131,0,1,1-2.126-1.984,2.059,2.059,0,0,1,2.126,1.984" transform="translate(-95.272 -30.045)"/><path class="g" d="M511.421,119.024a2.131,2.131,0,1,1-2.126-1.984,2.059,2.059,0,0,1,2.126,1.984" transform="translate(-103.211 -30.045)"/><path class="g" d="M550.434,119.024a2.131,2.131,0,1,1-2.126-1.984,2.059,2.059,0,0,1,2.126,1.984" transform="translate(-111.15 -30.045)"/><path class="g" d="M316.356,158.036a2.131,2.131,0,1,1-2.126-1.984,2.058,2.058,0,0,1,2.126,1.984" transform="translate(-63.514 -40.059)"/><path class="g" d="M355.369,158.036a2.131,2.131,0,1,1-2.126-1.984,2.058,2.058,0,0,1,2.126,1.984" transform="translate(-71.454 -40.059)"/><path class="g" d="M394.382,158.036a2.131,2.131,0,1,1-2.126-1.984,2.058,2.058,0,0,1,2.126,1.984" transform="translate(-79.393 -40.059)"/><path class="g" d="M433.395,158.036a2.131,2.131,0,1,1-2.126-1.984,2.058,2.058,0,0,1,2.126,1.984" transform="translate(-87.332 -40.059)"/><path class="g" d="M472.408,158.036a2.131,2.131,0,1,1-2.126-1.984,2.058,2.058,0,0,1,2.126,1.984" transform="translate(-95.272 -40.059)"/><path class="g" d="M511.421,158.036a2.131,2.131,0,1,1-2.126-1.984,2.058,2.058,0,0,1,2.126,1.984" transform="translate(-103.211 -40.059)"/><path class="g" d="M550.434,158.036a2.131,2.131,0,1,1-2.126-1.984,2.058,2.058,0,0,1,2.126,1.984" transform="translate(-111.15 -40.059)"/><path class="g" d="M316.356,197.05a2.131,2.131,0,1,1-2.126-1.985,2.059,2.059,0,0,1,2.126,1.985" transform="translate(-63.514 -50.074)"/><path class="g" d="M355.369,197.05a2.131,2.131,0,1,1-2.126-1.985,2.059,2.059,0,0,1,2.126,1.985" transform="translate(-71.454 -50.074)"/><path class="g" d="M394.382,197.05a2.131,2.131,0,1,1-2.126-1.985,2.059,2.059,0,0,1,2.126,1.985" transform="translate(-79.393 -50.074)"/><path class="g" d="M433.395,197.05a2.131,2.131,0,1,1-2.126-1.985,2.059,2.059,0,0,1,2.126,1.985" transform="translate(-87.332 -50.074)"/><path class="g" d="M472.408,197.05a2.131,2.131,0,1,1-2.126-1.985,2.059,2.059,0,0,1,2.126,1.985" transform="translate(-95.272 -50.074)"/><path class="g" d="M550.434,197.05a2.131,2.131,0,1,1-2.126-1.985,2.059,2.059,0,0,1,2.126,1.985" transform="translate(-111.15 -50.074)"/><path class="g" d="M316.356,236.063a2.131,2.131,0,1,1-2.126-1.984,2.058,2.058,0,0,1,2.126,1.984" transform="translate(-63.514 -60.089)"/><path class="g" d="M355.369,236.063a2.131,2.131,0,1,1-2.126-1.984,2.058,2.058,0,0,1,2.126,1.984" transform="translate(-71.454 -60.089)"/><path class="g" d="M394.382,236.063a2.131,2.131,0,1,1-2.126-1.984,2.058,2.058,0,0,1,2.126,1.984" transform="translate(-79.393 -60.089)"/><path class="g" d="M433.395,236.063a2.131,2.131,0,1,1-2.126-1.984,2.058,2.058,0,0,1,2.126,1.984" transform="translate(-87.332 -60.089)"/><path class="g" d="M472.408,236.063a2.131,2.131,0,1,1-2.126-1.984,2.058,2.058,0,0,1,2.126,1.984" transform="translate(-95.272 -60.089)"/><path class="g" d="M550.434,236.063a2.131,2.131,0,1,1-2.126-1.984,2.058,2.058,0,0,1,2.126,1.984" transform="translate(-111.15 -60.089)"/><path class="g" d="M823.523,1.985a2.131,2.131,0,0,1-4.252,0,2.131,2.131,0,0,1,4.252,0" transform="translate(-166.725)"/><path class="g" d="M589.444,41a2.131,2.131,0,1,1-2.126-1.984A2.058,2.058,0,0,1,589.444,41" transform="translate(-119.089 -10.015)"/><path class="g" d="M706.483,41a2.131,2.131,0,1,1-2.126-1.984A2.058,2.058,0,0,1,706.483,41" transform="translate(-142.907 -10.015)"/><path class="g" d="M784.51,41a2.131,2.131,0,1,1-2.126-1.984A2.058,2.058,0,0,1,784.51,41" transform="translate(-158.786 -10.015)"/><path class="g" d="M823.523,41a2.131,2.131,0,1,1-2.126-1.984A2.058,2.058,0,0,1,823.523,41" transform="translate(-166.725 -10.015)"/><path class="g" d="M589.444,80.01a2.131,2.131,0,1,1-2.126-1.984,2.059,2.059,0,0,1,2.126,1.984" transform="translate(-119.089 -20.03)"/><path class="g" d="M628.457,80.01a2.131,2.131,0,1,1-2.126-1.984,2.059,2.059,0,0,1,2.126,1.984" transform="translate(-127.028 -20.03)"/><path class="g" d="M667.47,80.01a2.131,2.131,0,1,1-2.126-1.984,2.059,2.059,0,0,1,2.126,1.984" transform="translate(-134.968 -20.03)"/><path class="g" d="M589.444,119.024a2.131,2.131,0,1,1-2.126-1.984,2.059,2.059,0,0,1,2.126,1.984" transform="translate(-119.089 -30.045)"/><path class="g" d="M706.483,119.024a2.131,2.131,0,1,1-2.126-1.984,2.059,2.059,0,0,1,2.126,1.984" transform="translate(-142.907 -30.045)"/><path class="g" d="M745.5,119.024a2.131,2.131,0,1,1-2.126-1.984,2.059,2.059,0,0,1,2.126,1.984" transform="translate(-150.846 -30.045)"/><path class="g" d="M784.51,119.024a2.131,2.131,0,1,1-2.126-1.984,2.059,2.059,0,0,1,2.126,1.984" transform="translate(-158.786 -30.045)"/><path class="g" d="M589.444,158.036a2.131,2.131,0,1,1-2.126-1.984,2.058,2.058,0,0,1,2.126,1.984" transform="translate(-119.089 -40.059)"/><path class="g" d="M628.457,158.036a2.131,2.131,0,1,1-2.126-1.984,2.058,2.058,0,0,1,2.126,1.984" transform="translate(-127.028 -40.059)"/><path class="g" d="M667.47,158.036a2.131,2.131,0,1,1-2.126-1.984,2.058,2.058,0,0,1,2.126,1.984" transform="translate(-134.968 -40.059)"/><path class="g" d="M706.483,158.036a2.131,2.131,0,1,1-2.126-1.984,2.058,2.058,0,0,1,2.126,1.984" transform="translate(-142.907 -40.059)"/><path class="g" d="M784.51,158.036a2.131,2.131,0,1,1-2.126-1.984,2.058,2.058,0,0,1,2.126,1.984" transform="translate(-158.786 -40.059)"/><path class="g" d="M823.523,158.036a2.131,2.131,0,1,1-2.126-1.984,2.058,2.058,0,0,1,2.126,1.984" transform="translate(-166.725 -40.059)"/><path class="g" d="M589.444,197.05a2.131,2.131,0,1,1-2.126-1.985,2.059,2.059,0,0,1,2.126,1.985" transform="translate(-119.089 -50.074)"/><path class="g" d="M628.457,197.05a2.131,2.131,0,1,1-2.126-1.985,2.059,2.059,0,0,1,2.126,1.985" transform="translate(-127.028 -50.074)"/><path class="g" d="M667.47,197.05a2.131,2.131,0,1,1-2.126-1.985,2.059,2.059,0,0,1,2.126,1.985" transform="translate(-134.968 -50.074)"/><path class="g" d="M706.483,197.05a2.131,2.131,0,1,1-2.126-1.985,2.059,2.059,0,0,1,2.126,1.985" transform="translate(-142.907 -50.074)"/><path class="g" d="M745.5,197.05a2.131,2.131,0,1,1-2.126-1.985,2.059,2.059,0,0,1,2.126,1.985" transform="translate(-150.846 -50.074)"/><path class="g" d="M784.51,197.05a2.131,2.131,0,1,1-2.126-1.985,2.059,2.059,0,0,1,2.126,1.985" transform="translate(-158.786 -50.074)"/><path class="g" d="M823.523,197.05a2.131,2.131,0,1,1-2.126-1.985,2.059,2.059,0,0,1,2.126,1.985" transform="translate(-166.725 -50.074)"/><path class="g" d="M589.444,236.063a2.131,2.131,0,1,1-2.126-1.984,2.058,2.058,0,0,1,2.126,1.984" transform="translate(-119.089 -60.089)"/><path class="g" d="M628.457,236.063a2.131,2.131,0,1,1-2.126-1.984,2.058,2.058,0,0,1,2.126,1.984" transform="translate(-127.028 -60.089)"/><path class="g" d="M667.47,236.063a2.131,2.131,0,1,1-2.126-1.984,2.058,2.058,0,0,1,2.126,1.984" transform="translate(-134.968 -60.089)"/><path class="g" d="M901.547,1.985a2.131,2.131,0,0,1-4.252,0,2.131,2.131,0,0,1,4.252,0" transform="translate(-182.603)"/><path class="g" d="M940.561,1.985a2.131,2.131,0,0,1-4.252,0,2.131,2.131,0,0,1,4.252,0" transform="translate(-190.543)"/><path class="g" d="M1018.587,1.985a2.131,2.131,0,0,1-4.252,0,2.131,2.131,0,0,1,4.252,0" transform="translate(-206.421)"/><path class="g" d="M862.534,41a2.131,2.131,0,1,1-2.126-1.984A2.058,2.058,0,0,1,862.534,41" transform="translate(-174.664 -10.015)"/><path class="g" d="M1096.613,41a2.131,2.131,0,1,1-2.126-1.984A2.058,2.058,0,0,1,1096.613,41" transform="translate(-222.3 -10.015)"/><path class="g" d="M940.561,119.024a2.131,2.131,0,1,1-2.126-1.984,2.059,2.059,0,0,1,2.126,1.984" transform="translate(-190.543 -30.045)"/><path class="g" d="M1057.6,119.024a2.131,2.131,0,1,1-2.126-1.984,2.059,2.059,0,0,1,2.126,1.984" transform="translate(-214.361 -30.045)"/><path class="g" d="M862.534,158.036a2.131,2.131,0,1,1-2.126-1.984,2.058,2.058,0,0,1,2.126,1.984" transform="translate(-174.664 -40.059)"/><path class="g" d="M901.547,158.036a2.131,2.131,0,1,1-2.126-1.984,2.058,2.058,0,0,1,2.126,1.984" transform="translate(-182.603 -40.059)"/><path class="g" d="M979.573,158.036a2.131,2.131,0,1,1-2.126-1.984,2.058,2.058,0,0,1,2.126,1.984" transform="translate(-198.482 -40.059)"/><path class="g" d="M1018.587,158.036a2.131,2.131,0,1,1-2.126-1.984,2.058,2.058,0,0,1,2.126,1.984" transform="translate(-206.421 -40.059)"/><path class="g" d="M862.534,197.05a2.131,2.131,0,1,1-2.126-1.985,2.059,2.059,0,0,1,2.126,1.985" transform="translate(-174.664 -50.074)"/><path class="g" d="M901.547,197.05a2.131,2.131,0,1,1-2.126-1.985,2.059,2.059,0,0,1,2.126,1.985" transform="translate(-182.603 -50.074)"/><path class="g" d="M979.573,197.05a2.131,2.131,0,1,1-2.126-1.985,2.059,2.059,0,0,1,2.126,1.985" transform="translate(-198.482 -50.074)"/><path class="g" d="M1057.6,197.05a2.131,2.131,0,1,1-2.126-1.985,2.059,2.059,0,0,1,2.126,1.985" transform="translate(-214.361 -50.074)"/><path class="g" d="M823.523,238.036a2.131,2.131,0,1,1-2.126-1.984,2.058,2.058,0,0,1,2.126,1.984" transform="translate(-166.725 -60.596)"/><path class="g" d="M823.523,277.05a2.131,2.131,0,1,1-2.126-1.985,2.059,2.059,0,0,1,2.126,1.985" transform="translate(-166.725 -70.61)"/><path class="g" d="M862.534,238.036a2.131,2.131,0,1,1-2.126-1.984,2.058,2.058,0,0,1,2.126,1.984" transform="translate(-174.664 -60.596)"/><path class="g" d="M862.534,277.05a2.131,2.131,0,1,1-2.126-1.985,2.059,2.059,0,0,1,2.126,1.985" transform="translate(-174.664 -70.61)"/><path class="g" d="M783.523,277.05a2.131,2.131,0,1,1-2.126-1.985,2.059,2.059,0,0,1,2.126,1.985" transform="translate(-158.585 -70.61)"/><path class="g" d="M901.547,277.05a2.131,2.131,0,1,1-2.126-1.985,2.059,2.059,0,0,1,2.126,1.985" transform="translate(-182.603 -70.61)"/><path class="g" d="M979.573,277.05a2.131,2.131,0,1,1-2.126-1.985,2.059,2.059,0,0,1,2.126,1.985" transform="translate(-198.482 -70.61)"/><path class="g" d="M823.523,318.036a2.131,2.131,0,1,1-2.126-1.984,2.058,2.058,0,0,1,2.126,1.984" transform="translate(-166.725 -81.132)"/><path class="g" d="M823.523,357.05a2.131,2.131,0,1,1-2.126-1.985,2.059,2.059,0,0,1,2.126,1.985" transform="translate(-166.725 -91.147)"/><path class="g" d="M862.534,318.036a2.131,2.131,0,1,1-2.126-1.984,2.058,2.058,0,0,1,2.126,1.984" transform="translate(-174.664 -81.132)"/><path class="g" d="M862.534,357.05a2.131,2.131,0,1,1-2.126-1.985,2.059,2.059,0,0,1,2.126,1.985" transform="translate(-174.664 -91.147)"/><path class="g" d="M903.523,357.05a2.131,2.131,0,1,1-2.126-1.985,2.059,2.059,0,0,1,2.126,1.985" transform="translate(-183.005 -91.147)"/><path class="g" d="M942.534,318.036a2.131,2.131,0,1,1-2.126-1.984,2.058,2.058,0,0,1,2.126,1.984" transform="translate(-190.944 -81.132)"/></g></g><g class="e" transform="translate(901.163)"><g class="h"><path class="g" d="M1135.658,275.069a2.131,2.131,0,1,1-2.126-1.984,2.059,2.059,0,0,1,2.126,1.984" transform="translate(-1131.409 -70.102)"/><path class="g" d="M1174.671,275.069a2.131,2.131,0,1,1-2.126-1.984,2.059,2.059,0,0,1,2.126,1.984" transform="translate(-1139.349 -70.102)"/><path class="g" d="M1213.684,275.069a2.131,2.131,0,1,1-2.126-1.984,2.059,2.059,0,0,1,2.126,1.984" transform="translate(-1147.288 -70.102)"/><path class="g" d="M1252.7,275.069a2.131,2.131,0,1,1-2.126-1.984,2.059,2.059,0,0,1,2.126,1.984" transform="translate(-1155.227 -70.102)"/><path class="g" d="M1291.71,275.069a2.131,2.131,0,1,1-2.126-1.984,2.059,2.059,0,0,1,2.126,1.984" transform="translate(-1163.166 -70.102)"/><path class="g" d="M1330.723,275.069a2.131,2.131,0,1,1-2.126-1.984,2.059,2.059,0,0,1,2.126,1.984" transform="translate(-1171.106 -70.102)"/><path class="g" d="M1369.736,275.069a2.131,2.131,0,1,1-2.126-1.984,2.059,2.059,0,0,1,2.126,1.984" transform="translate(-1179.045 -70.102)"/><path class="g" d="M1408.749,275.069a2.131,2.131,0,1,1-2.126-1.984,2.059,2.059,0,0,1,2.126,1.984" transform="translate(-1186.984 -70.102)"/><path class="g" d="M1174.671,314.081a2.131,2.131,0,1,1-2.126-1.984,2.058,2.058,0,0,1,2.126,1.984" transform="translate(-1139.349 -80.117)"/><path class="g" d="M1213.684,314.081a2.131,2.131,0,1,1-2.126-1.984,2.058,2.058,0,0,1,2.126,1.984" transform="translate(-1147.288 -80.117)"/><path class="g" d="M1252.7,314.081a2.131,2.131,0,1,1-2.126-1.984,2.058,2.058,0,0,1,2.126,1.984" transform="translate(-1155.227 -80.117)"/><path class="g" d="M1291.71,314.081a2.131,2.131,0,1,1-2.126-1.984,2.058,2.058,0,0,1,2.126,1.984" transform="translate(-1163.166 -80.117)"/><path class="g" d="M1330.723,314.081a2.131,2.131,0,1,1-2.126-1.984,2.058,2.058,0,0,1,2.126,1.984" transform="translate(-1171.106 -80.117)"/><path class="g" d="M1369.736,314.081a2.131,2.131,0,1,1-2.126-1.984,2.058,2.058,0,0,1,2.126,1.984" transform="translate(-1179.045 -80.117)"/><path class="g" d="M1408.749,314.081a2.131,2.131,0,1,1-2.126-1.984,2.058,2.058,0,0,1,2.126,1.984" transform="translate(-1186.984 -80.117)"/><path class="g" d="M1135.658,353.095a2.131,2.131,0,1,1-2.126-1.985,2.059,2.059,0,0,1,2.126,1.985" transform="translate(-1131.409 -90.131)"/><path class="g" d="M1174.671,353.095a2.131,2.131,0,1,1-2.126-1.985,2.059,2.059,0,0,1,2.126,1.985" transform="translate(-1139.349 -90.131)"/><path class="g" d="M1213.684,353.095a2.131,2.131,0,1,1-2.126-1.985,2.059,2.059,0,0,1,2.126,1.985" transform="translate(-1147.288 -90.131)"/><path class="g" d="M1252.7,353.095a2.131,2.131,0,1,1-2.126-1.985,2.059,2.059,0,0,1,2.126,1.985" transform="translate(-1155.227 -90.131)"/><path class="g" d="M1291.71,353.095a2.131,2.131,0,1,1-2.126-1.985,2.059,2.059,0,0,1,2.126,1.985" transform="translate(-1163.166 -90.131)"/><path class="g" d="M1330.723,353.095a2.131,2.131,0,1,1-2.126-1.985,2.058,2.058,0,0,1,2.126,1.985" transform="translate(-1171.106 -90.131)"/><path class="g" d="M1369.736,353.095a2.131,2.131,0,1,1-2.126-1.985,2.059,2.059,0,0,1,2.126,1.985" transform="translate(-1179.045 -90.131)"/><path class="g" d="M1408.749,353.095a2.131,2.131,0,1,1-2.126-1.985,2.059,2.059,0,0,1,2.126,1.985" transform="translate(-1186.984 -90.131)"/><path class="g" d="M1174.671,392.108a2.131,2.131,0,1,1-2.126-1.984,2.058,2.058,0,0,1,2.126,1.984" transform="translate(-1139.349 -100.146)"/><path class="g" d="M1213.684,392.108a2.131,2.131,0,1,1-2.126-1.984,2.058,2.058,0,0,1,2.126,1.984" transform="translate(-1147.288 -100.146)"/><path class="g" d="M1252.7,392.108a2.131,2.131,0,1,1-2.126-1.984,2.058,2.058,0,0,1,2.126,1.984" transform="translate(-1155.227 -100.146)"/><path class="g" d="M1291.71,392.108a2.131,2.131,0,1,1-2.126-1.984,2.058,2.058,0,0,1,2.126,1.984" transform="translate(-1163.166 -100.146)"/><path class="g" d="M1330.723,392.108a2.131,2.131,0,1,1-2.126-1.984,2.058,2.058,0,0,1,2.126,1.984" transform="translate(-1171.106 -100.146)"/><path class="g" d="M1369.736,392.108a2.131,2.131,0,1,1-2.126-1.984,2.058,2.058,0,0,1,2.126,1.984" transform="translate(-1179.045 -100.146)"/><path class="g" d="M1408.749,392.108a2.131,2.131,0,1,1-2.126-1.984,2.058,2.058,0,0,1,2.126,1.984" transform="translate(-1186.984 -100.146)"/><path class="g" d="M1135.658,431.12a2.131,2.131,0,1,1-2.126-1.984,2.059,2.059,0,0,1,2.126,1.984" transform="translate(-1131.409 -110.161)"/><path class="g" d="M1174.671,431.12a2.131,2.131,0,1,1-2.126-1.984,2.059,2.059,0,0,1,2.126,1.984" transform="translate(-1139.349 -110.161)"/><path class="g" d="M1213.684,431.12a2.131,2.131,0,1,1-2.126-1.984,2.059,2.059,0,0,1,2.126,1.984" transform="translate(-1147.288 -110.161)"/><path class="g" d="M1252.7,431.12a2.131,2.131,0,1,1-2.126-1.984,2.059,2.059,0,0,1,2.126,1.984" transform="translate(-1155.227 -110.161)"/><path class="g" d="M1291.71,431.12a2.131,2.131,0,1,1-2.126-1.984,2.059,2.059,0,0,1,2.126,1.984" transform="translate(-1163.166 -110.161)"/><path class="g" d="M1447.761,275.069a2.131,2.131,0,1,1-2.126-1.984,2.059,2.059,0,0,1,2.126,1.984" transform="translate(-1194.923 -70.102)"/><path class="g" d="M1486.774,275.069a2.131,2.131,0,1,1-2.126-1.984,2.058,2.058,0,0,1,2.126,1.984" transform="translate(-1202.863 -70.102)"/><path class="g" d="M1525.787,275.069a2.131,2.131,0,1,1-2.126-1.984,2.059,2.059,0,0,1,2.126,1.984" transform="translate(-1210.802 -70.102)"/><path class="g" d="M1564.8,275.069a2.131,2.131,0,1,1-2.126-1.984,2.059,2.059,0,0,1,2.126,1.984" transform="translate(-1218.741 -70.102)"/><path class="g" d="M1603.814,275.069a2.131,2.131,0,1,1-2.127-1.984,2.059,2.059,0,0,1,2.127,1.984" transform="translate(-1226.681 -70.102)"/><path class="g" d="M1447.761,314.081a2.131,2.131,0,1,1-2.126-1.984,2.058,2.058,0,0,1,2.126,1.984" transform="translate(-1194.923 -80.117)"/><path class="g" d="M1486.774,314.081a2.131,2.131,0,1,1-2.126-1.984,2.058,2.058,0,0,1,2.126,1.984" transform="translate(-1202.863 -80.117)"/><path class="g" d="M1525.787,314.081a2.131,2.131,0,1,1-2.126-1.984,2.058,2.058,0,0,1,2.126,1.984" transform="translate(-1210.802 -80.117)"/><path class="g" d="M1564.8,314.081a2.131,2.131,0,1,1-2.126-1.984,2.058,2.058,0,0,1,2.126,1.984" transform="translate(-1218.741 -80.117)"/><path class="g" d="M1603.814,314.081a2.131,2.131,0,1,1-2.127-1.984,2.059,2.059,0,0,1,2.127,1.984" transform="translate(-1226.681 -80.117)"/><path class="g" d="M1642.827,314.081a2.131,2.131,0,1,1-2.126-1.984,2.058,2.058,0,0,1,2.126,1.984" transform="translate(-1234.62 -80.117)"/><path class="g" d="M1681.839,314.081a2.131,2.131,0,1,1-2.126-1.984,2.058,2.058,0,0,1,2.126,1.984" transform="translate(-1242.559 -80.117)"/><path class="g" d="M1447.761,353.095a2.131,2.131,0,1,1-2.126-1.985,2.059,2.059,0,0,1,2.126,1.985" transform="translate(-1194.923 -90.131)"/><path class="g" d="M1486.774,353.095a2.131,2.131,0,1,1-2.126-1.985,2.058,2.058,0,0,1,2.126,1.985" transform="translate(-1202.863 -90.131)"/><path class="g" d="M1525.787,353.095a2.131,2.131,0,1,1-2.126-1.985,2.059,2.059,0,0,1,2.126,1.985" transform="translate(-1210.802 -90.131)"/><path class="g" d="M1564.8,353.095a2.131,2.131,0,1,1-2.126-1.985,2.059,2.059,0,0,1,2.126,1.985" transform="translate(-1218.741 -90.131)"/><path class="g" d="M1603.814,353.095a2.131,2.131,0,1,1-2.127-1.985,2.059,2.059,0,0,1,2.127,1.985" transform="translate(-1226.681 -90.131)"/><path class="g" d="M1642.827,353.095a2.131,2.131,0,1,1-2.126-1.985,2.059,2.059,0,0,1,2.126,1.985" transform="translate(-1234.62 -90.131)"/><path class="g" d="M1681.839,353.095a2.131,2.131,0,1,1-2.126-1.985,2.059,2.059,0,0,1,2.126,1.985" transform="translate(-1242.559 -90.131)"/><path class="g" d="M1447.761,392.108a2.131,2.131,0,1,1-2.126-1.984,2.058,2.058,0,0,1,2.126,1.984" transform="translate(-1194.923 -100.146)"/><path class="g" d="M1486.774,392.108a2.131,2.131,0,1,1-2.126-1.984,2.058,2.058,0,0,1,2.126,1.984" transform="translate(-1202.863 -100.146)"/><path class="g" d="M1525.787,392.108a2.131,2.131,0,1,1-2.126-1.984,2.058,2.058,0,0,1,2.126,1.984" transform="translate(-1210.802 -100.146)"/><path class="g" d="M1564.8,392.108a2.131,2.131,0,1,1-2.126-1.984,2.058,2.058,0,0,1,2.126,1.984" transform="translate(-1218.741 -100.146)"/><path class="g" d="M1642.827,392.108a2.131,2.131,0,1,1-2.126-1.984,2.058,2.058,0,0,1,2.126,1.984" transform="translate(-1234.62 -100.146)"/><path class="g" d="M1681.839,392.108a2.131,2.131,0,1,1-2.126-1.984,2.058,2.058,0,0,1,2.126,1.984" transform="translate(-1242.559 -100.146)"/><path class="g" d="M1447.761,431.12a2.131,2.131,0,1,1-2.126-1.984,2.059,2.059,0,0,1,2.126,1.984" transform="translate(-1194.923 -110.161)"/><path class="g" d="M1486.774,431.12a2.131,2.131,0,1,1-2.126-1.984,2.059,2.059,0,0,1,2.126,1.984" transform="translate(-1202.863 -110.161)"/><path class="g" d="M1525.787,431.12a2.131,2.131,0,1,1-2.126-1.984,2.059,2.059,0,0,1,2.126,1.984" transform="translate(-1210.802 -110.161)"/><path class="g" d="M1564.8,431.12a2.131,2.131,0,1,1-2.126-1.984,2.059,2.059,0,0,1,2.126,1.984" transform="translate(-1218.741 -110.161)"/><path class="g" d="M1642.827,431.12a2.131,2.131,0,1,1-2.126-1.984,2.059,2.059,0,0,1,2.126,1.984" transform="translate(-1234.62 -110.161)"/><path class="g" d="M1681.839,431.12a2.131,2.131,0,1,1-2.126-1.984,2.059,2.059,0,0,1,2.126,1.984" transform="translate(-1242.559 -110.161)"/><path class="g" d="M1720.85,275.069a2.131,2.131,0,1,1-2.126-1.984,2.059,2.059,0,0,1,2.126,1.984" transform="translate(-1250.498 -70.102)"/><path class="g" d="M1720.85,314.081a2.131,2.131,0,1,1-2.126-1.984,2.058,2.058,0,0,1,2.126,1.984" transform="translate(-1250.498 -80.117)"/><path class="g" d="M1759.862,314.081a2.131,2.131,0,1,1-2.126-1.984,2.058,2.058,0,0,1,2.126,1.984" transform="translate(-1258.437 -80.117)"/><path class="g" d="M1798.876,353.095a2.131,2.131,0,1,1-2.127-1.985,2.059,2.059,0,0,1,2.127,1.985" transform="translate(-1266.377 -90.131)"/><path class="g" d="M1720.85,392.108a2.131,2.131,0,1,1-2.126-1.984,2.058,2.058,0,0,1,2.126,1.984" transform="translate(-1250.498 -100.146)"/><path class="g" d="M1759.862,392.108a2.131,2.131,0,1,1-2.126-1.984,2.058,2.058,0,0,1,2.126,1.984" transform="translate(-1258.437 -100.146)"/><path class="g" d="M1798.876,392.108a2.131,2.131,0,1,1-2.127-1.984,2.059,2.059,0,0,1,2.127,1.984" transform="translate(-1266.377 -100.146)"/><path class="g" d="M1837.889,392.108a2.131,2.131,0,1,1-2.126-1.984,2.058,2.058,0,0,1,2.126,1.984" transform="translate(-1274.316 -100.146)"/><path class="g" d="M1876.9,392.108a2.131,2.131,0,1,1-2.126-1.984,2.058,2.058,0,0,1,2.126,1.984" transform="translate(-1282.255 -100.146)"/><path class="g" d="M1915.915,392.108a2.131,2.131,0,1,1-2.126-1.984,2.058,2.058,0,0,1,2.126,1.984" transform="translate(-1290.195 -100.146)"/><path class="g" d="M1954.928,392.108a2.131,2.131,0,1,1-2.126-1.984,2.058,2.058,0,0,1,2.126,1.984" transform="translate(-1298.134 -100.146)"/><path class="g" d="M1720.85,431.12a2.131,2.131,0,1,1-2.126-1.984,2.059,2.059,0,0,1,2.126,1.984" transform="translate(-1250.498 -110.161)"/><path class="g" d="M1759.862,431.12a2.131,2.131,0,1,1-2.126-1.984,2.059,2.059,0,0,1,2.126,1.984" transform="translate(-1258.437 -110.161)"/><path class="g" d="M1798.876,431.12a2.131,2.131,0,1,1-2.127-1.984,2.059,2.059,0,0,1,2.127,1.984" transform="translate(-1266.377 -110.161)"/><path class="g" d="M1837.889,431.12a2.131,2.131,0,1,1-2.126-1.984,2.059,2.059,0,0,1,2.126,1.984" transform="translate(-1274.316 -110.161)"/><path class="g" d="M1876.9,431.12a2.131,2.131,0,1,1-2.126-1.984,2.059,2.059,0,0,1,2.126,1.984" transform="translate(-1282.255 -110.161)"/><path class="g" d="M1915.915,431.12a2.131,2.131,0,1,1-2.126-1.984,2.059,2.059,0,0,1,2.126,1.984" transform="translate(-1290.195 -110.161)"/><path class="g" d="M1954.928,431.12a2.131,2.131,0,1,1-2.126-1.984,2.059,2.059,0,0,1,2.126,1.984" transform="translate(-1298.134 -110.161)"/><path class="g" d="M1993.94,392.108a2.131,2.131,0,1,1-2.126-1.984,2.058,2.058,0,0,1,2.126,1.984" transform="translate(-1306.073 -100.146)"/><path class="g" d="M2032.953,392.108a2.131,2.131,0,1,1-2.126-1.984,2.058,2.058,0,0,1,2.126,1.984" transform="translate(-1314.013 -100.146)"/><path class="g" d="M2071.966,392.108a2.131,2.131,0,1,1-2.126-1.984,2.058,2.058,0,0,1,2.126,1.984" transform="translate(-1321.952 -100.146)"/><path class="g" d="M2149.992,392.108a2.131,2.131,0,1,1-2.126-1.984,2.058,2.058,0,0,1,2.126,1.984" transform="translate(-1337.83 -100.146)"/><path class="g" d="M2189,392.108a2.131,2.131,0,1,1-2.126-1.984,2.058,2.058,0,0,1,2.126,1.984" transform="translate(-1345.77 -100.146)"/><path class="g" d="M1993.94,431.12a2.131,2.131,0,1,1-2.126-1.984,2.059,2.059,0,0,1,2.126,1.984" transform="translate(-1306.073 -110.161)"/><path class="g" d="M2032.953,431.12a2.131,2.131,0,1,1-2.126-1.984,2.059,2.059,0,0,1,2.126,1.984" transform="translate(-1314.013 -110.161)"/><path class="g" d="M2071.966,431.12a2.131,2.131,0,1,1-2.126-1.984,2.059,2.059,0,0,1,2.126,1.984" transform="translate(-1321.952 -110.161)"/><path class="g" d="M2110.979,431.12a2.131,2.131,0,1,1-2.126-1.984,2.059,2.059,0,0,1,2.126,1.984" transform="translate(-1329.891 -110.161)"/><path class="g" d="M2149.992,431.12a2.131,2.131,0,1,1-2.126-1.984,2.059,2.059,0,0,1,2.126,1.984" transform="translate(-1337.83 -110.161)"/><path class="g" d="M2189,431.12a2.131,2.131,0,1,1-2.126-1.984A2.059,2.059,0,0,1,2189,431.12" transform="translate(-1345.77 -110.161)"/><path class="g" d="M2228.018,431.12a2.131,2.131,0,1,1-2.126-1.984,2.059,2.059,0,0,1,2.126,1.984" transform="translate(-1353.709 -110.161)"/><path class="g" d="M1174.671,1.985a2.131,2.131,0,0,1-4.252,0,2.131,2.131,0,0,1,4.252,0" transform="translate(-1139.349)"/><path class="g" d="M1213.684,41a2.131,2.131,0,1,1-2.126-1.984A2.058,2.058,0,0,1,1213.684,41" transform="translate(-1147.288 -10.015)"/><path class="g" d="M1252.7,41a2.131,2.131,0,1,1-2.126-1.984A2.058,2.058,0,0,1,1252.7,41" transform="translate(-1155.227 -10.015)"/><path class="g" d="M1291.71,41a2.131,2.131,0,1,1-2.126-1.984A2.058,2.058,0,0,1,1291.71,41" transform="translate(-1163.166 -10.015)"/><path class="g" d="M1330.723,41a2.131,2.131,0,1,1-2.126-1.984A2.058,2.058,0,0,1,1330.723,41" transform="translate(-1171.106 -10.015)"/><path class="g" d="M1369.736,41a2.131,2.131,0,1,1-2.126-1.984A2.058,2.058,0,0,1,1369.736,41" transform="translate(-1179.045 -10.015)"/><path class="g" d="M1408.749,41a2.131,2.131,0,1,1-2.126-1.984A2.058,2.058,0,0,1,1408.749,41" transform="translate(-1186.984 -10.015)"/><path class="g" d="M1135.658,80.01a2.131,2.131,0,1,1-2.126-1.984,2.059,2.059,0,0,1,2.126,1.984" transform="translate(-1131.409 -20.03)"/><path class="g" d="M1252.7,80.01a2.131,2.131,0,1,1-2.126-1.984,2.059,2.059,0,0,1,2.126,1.984" transform="translate(-1155.227 -20.03)"/><path class="g" d="M1291.71,80.01a2.131,2.131,0,1,1-2.126-1.984,2.059,2.059,0,0,1,2.126,1.984" transform="translate(-1163.166 -20.03)"/><path class="g" d="M1330.723,80.01a2.131,2.131,0,1,1-2.126-1.984,2.059,2.059,0,0,1,2.126,1.984" transform="translate(-1171.106 -20.03)"/><path class="g" d="M1369.736,80.01a2.131,2.131,0,1,1-2.126-1.984,2.059,2.059,0,0,1,2.126,1.984" transform="translate(-1179.045 -20.03)"/><path class="g" d="M1408.749,80.01a2.131,2.131,0,1,1-2.126-1.984,2.059,2.059,0,0,1,2.126,1.984" transform="translate(-1186.984 -20.03)"/><path class="g" d="M1174.671,119.024a2.131,2.131,0,1,1-2.126-1.984,2.059,2.059,0,0,1,2.126,1.984" transform="translate(-1139.349 -30.045)"/><path class="g" d="M1213.684,119.024a2.131,2.131,0,1,1-2.126-1.984,2.059,2.059,0,0,1,2.126,1.984" transform="translate(-1147.288 -30.045)"/><path class="g" d="M1252.7,119.024a2.131,2.131,0,1,1-2.126-1.984,2.059,2.059,0,0,1,2.126,1.984" transform="translate(-1155.227 -30.045)"/><path class="g" d="M1291.71,119.024a2.131,2.131,0,1,1-2.126-1.984,2.059,2.059,0,0,1,2.126,1.984" transform="translate(-1163.166 -30.045)"/><path class="g" d="M1330.723,119.024a2.131,2.131,0,1,1-2.126-1.984,2.058,2.058,0,0,1,2.126,1.984" transform="translate(-1171.106 -30.045)"/><path class="g" d="M1369.736,119.024a2.131,2.131,0,1,1-2.126-1.984,2.059,2.059,0,0,1,2.126,1.984" transform="translate(-1179.045 -30.045)"/><path class="g" d="M1408.749,119.024a2.131,2.131,0,1,1-2.126-1.984,2.059,2.059,0,0,1,2.126,1.984" transform="translate(-1186.984 -30.045)"/><path class="g" d="M1213.684,158.036a2.131,2.131,0,1,1-2.126-1.984,2.058,2.058,0,0,1,2.126,1.984" transform="translate(-1147.288 -40.059)"/><path class="g" d="M1252.7,158.036a2.131,2.131,0,1,1-2.126-1.984,2.058,2.058,0,0,1,2.126,1.984" transform="translate(-1155.227 -40.059)"/><path class="g" d="M1291.71,158.036a2.131,2.131,0,1,1-2.126-1.984,2.058,2.058,0,0,1,2.126,1.984" transform="translate(-1163.166 -40.059)"/><path class="g" d="M1330.723,158.036a2.131,2.131,0,1,1-2.126-1.984,2.058,2.058,0,0,1,2.126,1.984" transform="translate(-1171.106 -40.059)"/><path class="g" d="M1369.736,158.036a2.131,2.131,0,1,1-2.126-1.984,2.058,2.058,0,0,1,2.126,1.984" transform="translate(-1179.045 -40.059)"/><path class="g" d="M1408.749,158.036a2.131,2.131,0,1,1-2.126-1.984,2.058,2.058,0,0,1,2.126,1.984" transform="translate(-1186.984 -40.059)"/><path class="g" d="M1174.671,197.05a2.131,2.131,0,1,1-2.126-1.985,2.059,2.059,0,0,1,2.126,1.985" transform="translate(-1139.349 -50.074)"/><path class="g" d="M1213.684,197.05a2.131,2.131,0,1,1-2.126-1.985,2.059,2.059,0,0,1,2.126,1.985" transform="translate(-1147.288 -50.074)"/><path class="g" d="M1252.7,197.05a2.131,2.131,0,1,1-2.126-1.985,2.059,2.059,0,0,1,2.126,1.985" transform="translate(-1155.227 -50.074)"/><path class="g" d="M1291.71,197.05a2.131,2.131,0,1,1-2.126-1.985,2.059,2.059,0,0,1,2.126,1.985" transform="translate(-1163.166 -50.074)"/><path class="g" d="M1330.723,197.05a2.131,2.131,0,1,1-2.126-1.985,2.058,2.058,0,0,1,2.126,1.985" transform="translate(-1171.106 -50.074)"/><path class="g" d="M1369.736,197.05a2.131,2.131,0,1,1-2.126-1.985,2.059,2.059,0,0,1,2.126,1.985" transform="translate(-1179.045 -50.074)"/><path class="g" d="M1408.749,197.05a2.131,2.131,0,1,1-2.126-1.985,2.059,2.059,0,0,1,2.126,1.985" transform="translate(-1186.984 -50.074)"/><path class="g" d="M1135.658,236.063a2.131,2.131,0,1,1-2.126-1.984,2.058,2.058,0,0,1,2.126,1.984" transform="translate(-1131.409 -60.089)"/><path class="g" d="M1213.684,236.063a2.131,2.131,0,1,1-2.126-1.984,2.058,2.058,0,0,1,2.126,1.984" transform="translate(-1147.288 -60.089)"/><path class="g" d="M1252.7,236.063a2.131,2.131,0,1,1-2.126-1.984,2.058,2.058,0,0,1,2.126,1.984" transform="translate(-1155.227 -60.089)"/><path class="g" d="M1291.71,236.063a2.131,2.131,0,1,1-2.126-1.984,2.058,2.058,0,0,1,2.126,1.984" transform="translate(-1163.166 -60.089)"/><path class="g" d="M1330.723,236.063a2.131,2.131,0,1,1-2.126-1.984,2.058,2.058,0,0,1,2.126,1.984" transform="translate(-1171.106 -60.089)"/><path class="g" d="M1369.736,236.063a2.131,2.131,0,1,1-2.126-1.984,2.058,2.058,0,0,1,2.126,1.984" transform="translate(-1179.045 -60.089)"/><path class="g" d="M1408.749,236.063a2.131,2.131,0,1,1-2.126-1.984,2.058,2.058,0,0,1,2.126,1.984" transform="translate(-1186.984 -60.089)"/><path class="g" d="M1447.761,41a2.131,2.131,0,1,1-2.126-1.984A2.058,2.058,0,0,1,1447.761,41" transform="translate(-1194.923 -10.015)"/><path class="g" d="M1486.774,41a2.131,2.131,0,1,1-2.126-1.984A2.058,2.058,0,0,1,1486.774,41" transform="translate(-1202.863 -10.015)"/><path class="g" d="M1603.814,41a2.131,2.131,0,1,1-2.127-1.984A2.059,2.059,0,0,1,1603.814,41" transform="translate(-1226.681 -10.015)"/><path class="g" d="M1681.839,41a2.131,2.131,0,1,1-2.126-1.984A2.058,2.058,0,0,1,1681.839,41" transform="translate(-1242.559 -10.015)"/><path class="g" d="M1447.761,80.01a2.131,2.131,0,1,1-2.126-1.984,2.059,2.059,0,0,1,2.126,1.984" transform="translate(-1194.923 -20.03)"/><path class="g" d="M1486.774,80.01a2.131,2.131,0,1,1-2.126-1.984,2.059,2.059,0,0,1,2.126,1.984" transform="translate(-1202.863 -20.03)"/><path class="g" d="M1525.787,80.01a2.131,2.131,0,1,1-2.126-1.984,2.059,2.059,0,0,1,2.126,1.984" transform="translate(-1210.802 -20.03)"/><path class="g" d="M1564.8,80.01a2.131,2.131,0,1,1-2.126-1.984,2.059,2.059,0,0,1,2.126,1.984" transform="translate(-1218.741 -20.03)"/><path class="g" d="M1603.814,80.01a2.131,2.131,0,1,1-2.127-1.984,2.059,2.059,0,0,1,2.127,1.984" transform="translate(-1226.681 -20.03)"/><path class="g" d="M1642.827,80.01a2.131,2.131,0,1,1-2.126-1.984,2.059,2.059,0,0,1,2.126,1.984" transform="translate(-1234.62 -20.03)"/><path class="g" d="M1681.839,80.01a2.131,2.131,0,1,1-2.126-1.984,2.059,2.059,0,0,1,2.126,1.984" transform="translate(-1242.559 -20.03)"/><path class="g" d="M1447.761,119.024a2.131,2.131,0,1,1-2.126-1.984,2.059,2.059,0,0,1,2.126,1.984" transform="translate(-1194.923 -30.045)"/><path class="g" d="M1486.774,119.024a2.131,2.131,0,1,1-2.126-1.984,2.058,2.058,0,0,1,2.126,1.984" transform="translate(-1202.863 -30.045)"/><path class="g" d="M1525.787,119.024a2.131,2.131,0,1,1-2.126-1.984,2.059,2.059,0,0,1,2.126,1.984" transform="translate(-1210.802 -30.045)"/><path class="g" d="M1564.8,119.024a2.131,2.131,0,1,1-2.126-1.984,2.059,2.059,0,0,1,2.126,1.984" transform="translate(-1218.741 -30.045)"/><path class="g" d="M1603.814,119.024a2.131,2.131,0,1,1-2.127-1.984,2.059,2.059,0,0,1,2.127,1.984" transform="translate(-1226.681 -30.045)"/><path class="g" d="M1642.827,119.024a2.131,2.131,0,1,1-2.126-1.984,2.059,2.059,0,0,1,2.126,1.984" transform="translate(-1234.62 -30.045)"/><path class="g" d="M1681.839,119.024a2.131,2.131,0,1,1-2.126-1.984,2.059,2.059,0,0,1,2.126,1.984" transform="translate(-1242.559 -30.045)"/><path class="g" d="M1447.761,158.036a2.131,2.131,0,1,1-2.126-1.984,2.058,2.058,0,0,1,2.126,1.984" transform="translate(-1194.923 -40.059)"/><path class="g" d="M1486.774,158.036a2.131,2.131,0,1,1-2.126-1.984,2.058,2.058,0,0,1,2.126,1.984" transform="translate(-1202.863 -40.059)"/><path class="g" d="M1525.787,158.036a2.131,2.131,0,1,1-2.126-1.984,2.058,2.058,0,0,1,2.126,1.984" transform="translate(-1210.802 -40.059)"/><path class="g" d="M1564.8,158.036a2.131,2.131,0,1,1-2.126-1.984,2.058,2.058,0,0,1,2.126,1.984" transform="translate(-1218.741 -40.059)"/><path class="g" d="M1603.814,158.036a2.131,2.131,0,1,1-2.127-1.984,2.059,2.059,0,0,1,2.127,1.984" transform="translate(-1226.681 -40.059)"/><path class="g" d="M1642.827,158.036a2.131,2.131,0,1,1-2.126-1.984,2.058,2.058,0,0,1,2.126,1.984" transform="translate(-1234.62 -40.059)"/><path class="g" d="M1681.839,158.036a2.131,2.131,0,1,1-2.126-1.984,2.058,2.058,0,0,1,2.126,1.984" transform="translate(-1242.559 -40.059)"/><path class="g" d="M1447.761,197.05a2.131,2.131,0,1,1-2.126-1.985,2.059,2.059,0,0,1,2.126,1.985" transform="translate(-1194.923 -50.074)"/><path class="g" d="M1486.774,197.05a2.131,2.131,0,1,1-2.126-1.985,2.058,2.058,0,0,1,2.126,1.985" transform="translate(-1202.863 -50.074)"/><path class="g" d="M1525.787,197.05a2.131,2.131,0,1,1-2.126-1.985,2.059,2.059,0,0,1,2.126,1.985" transform="translate(-1210.802 -50.074)"/><path class="g" d="M1564.8,197.05a2.131,2.131,0,1,1-2.126-1.985,2.059,2.059,0,0,1,2.126,1.985" transform="translate(-1218.741 -50.074)"/><path class="g" d="M1603.814,197.05a2.131,2.131,0,1,1-2.127-1.985,2.059,2.059,0,0,1,2.127,1.985" transform="translate(-1226.681 -50.074)"/><path class="g" d="M1681.839,197.05a2.131,2.131,0,1,1-2.126-1.985,2.059,2.059,0,0,1,2.126,1.985" transform="translate(-1242.559 -50.074)"/><path class="g" d="M1447.761,236.063a2.131,2.131,0,1,1-2.126-1.984,2.058,2.058,0,0,1,2.126,1.984" transform="translate(-1194.923 -60.089)"/><path class="g" d="M1486.774,236.063a2.131,2.131,0,1,1-2.126-1.984,2.058,2.058,0,0,1,2.126,1.984" transform="translate(-1202.863 -60.089)"/><path class="g" d="M1525.787,236.063a2.131,2.131,0,1,1-2.126-1.984,2.058,2.058,0,0,1,2.126,1.984" transform="translate(-1210.802 -60.089)"/><path class="g" d="M1564.8,236.063a2.131,2.131,0,1,1-2.126-1.984,2.058,2.058,0,0,1,2.126,1.984" transform="translate(-1218.741 -60.089)"/><path class="g" d="M1603.814,236.063a2.131,2.131,0,1,1-2.127-1.984,2.059,2.059,0,0,1,2.127,1.984" transform="translate(-1226.681 -60.089)"/><path class="g" d="M1681.839,236.063a2.131,2.131,0,1,1-2.126-1.984,2.058,2.058,0,0,1,2.126,1.984" transform="translate(-1242.559 -60.089)"/><path class="g" d="M1954.928,1.985a2.131,2.131,0,0,1-4.252,0,2.131,2.131,0,0,1,4.252,0" transform="translate(-1298.134)"/><path class="g" d="M1720.85,41a2.131,2.131,0,1,1-2.126-1.984A2.058,2.058,0,0,1,1720.85,41" transform="translate(-1250.498 -10.015)"/><path class="g" d="M1837.889,41a2.131,2.131,0,1,1-2.126-1.984A2.058,2.058,0,0,1,1837.889,41" transform="translate(-1274.316 -10.015)"/><path class="g" d="M1915.915,41a2.131,2.131,0,1,1-2.126-1.984A2.058,2.058,0,0,1,1915.915,41" transform="translate(-1290.195 -10.015)"/><path class="g" d="M1954.928,41a2.131,2.131,0,1,1-2.126-1.984A2.058,2.058,0,0,1,1954.928,41" transform="translate(-1298.134 -10.015)"/><path class="g" d="M1720.85,80.01a2.131,2.131,0,1,1-2.126-1.984,2.059,2.059,0,0,1,2.126,1.984" transform="translate(-1250.498 -20.03)"/><path class="g" d="M1759.862,80.01a2.131,2.131,0,1,1-2.126-1.984,2.059,2.059,0,0,1,2.126,1.984" transform="translate(-1258.437 -20.03)"/><path class="g" d="M1798.876,80.01a2.131,2.131,0,1,1-2.127-1.984,2.059,2.059,0,0,1,2.127,1.984" transform="translate(-1266.377 -20.03)"/><path class="g" d="M1720.85,119.024a2.131,2.131,0,1,1-2.126-1.984,2.059,2.059,0,0,1,2.126,1.984" transform="translate(-1250.498 -30.045)"/><path class="g" d="M1837.889,119.024a2.131,2.131,0,1,1-2.126-1.984,2.059,2.059,0,0,1,2.126,1.984" transform="translate(-1274.316 -30.045)"/><path class="g" d="M1876.9,119.024a2.131,2.131,0,1,1-2.126-1.984,2.059,2.059,0,0,1,2.126,1.984" transform="translate(-1282.255 -30.045)"/><path class="g" d="M1915.915,119.024a2.131,2.131,0,1,1-2.126-1.984,2.058,2.058,0,0,1,2.126,1.984" transform="translate(-1290.195 -30.045)"/><path class="g" d="M1720.85,158.036a2.131,2.131,0,1,1-2.126-1.984,2.058,2.058,0,0,1,2.126,1.984" transform="translate(-1250.498 -40.059)"/><path class="g" d="M1759.862,158.036a2.131,2.131,0,1,1-2.126-1.984,2.058,2.058,0,0,1,2.126,1.984" transform="translate(-1258.437 -40.059)"/><path class="g" d="M1798.876,158.036a2.131,2.131,0,1,1-2.127-1.984,2.059,2.059,0,0,1,2.127,1.984" transform="translate(-1266.377 -40.059)"/><path class="g" d="M1837.889,158.036a2.131,2.131,0,1,1-2.126-1.984,2.058,2.058,0,0,1,2.126,1.984" transform="translate(-1274.316 -40.059)"/><path class="g" d="M1915.915,158.036a2.131,2.131,0,1,1-2.126-1.984,2.058,2.058,0,0,1,2.126,1.984" transform="translate(-1290.195 -40.059)"/><path class="g" d="M1954.928,158.036a2.131,2.131,0,1,1-2.126-1.984,2.058,2.058,0,0,1,2.126,1.984" transform="translate(-1298.134 -40.059)"/><path class="g" d="M1720.85,197.05a2.131,2.131,0,1,1-2.126-1.985,2.059,2.059,0,0,1,2.126,1.985" transform="translate(-1250.498 -50.074)"/><path class="g" d="M1759.862,197.05a2.131,2.131,0,1,1-2.126-1.985,2.059,2.059,0,0,1,2.126,1.985" transform="translate(-1258.437 -50.074)"/><path class="g" d="M1798.876,197.05a2.131,2.131,0,1,1-2.127-1.985,2.059,2.059,0,0,1,2.127,1.985" transform="translate(-1266.377 -50.074)"/><path class="g" d="M1837.889,197.05a2.131,2.131,0,1,1-2.126-1.985,2.059,2.059,0,0,1,2.126,1.985" transform="translate(-1274.316 -50.074)"/><path class="g" d="M1876.9,197.05a2.131,2.131,0,1,1-2.126-1.985,2.059,2.059,0,0,1,2.126,1.985" transform="translate(-1282.255 -50.074)"/><path class="g" d="M1915.915,197.05a2.131,2.131,0,1,1-2.126-1.985,2.058,2.058,0,0,1,2.126,1.985" transform="translate(-1290.195 -50.074)"/><path class="g" d="M1954.928,197.05a2.131,2.131,0,1,1-2.126-1.985,2.059,2.059,0,0,1,2.126,1.985" transform="translate(-1298.134 -50.074)"/><path class="g" d="M1720.85,236.063a2.131,2.131,0,1,1-2.126-1.984,2.058,2.058,0,0,1,2.126,1.984" transform="translate(-1250.498 -60.089)"/><path class="g" d="M1759.862,236.063a2.131,2.131,0,1,1-2.126-1.984,2.058,2.058,0,0,1,2.126,1.984" transform="translate(-1258.437 -60.089)"/><path class="g" d="M1798.876,236.063a2.131,2.131,0,1,1-2.127-1.984,2.059,2.059,0,0,1,2.127,1.984" transform="translate(-1266.377 -60.089)"/><path class="g" d="M2032.953,1.985a2.131,2.131,0,0,1-4.252,0,2.131,2.131,0,0,1,4.252,0" transform="translate(-1314.013)"/><path class="g" d="M2071.966,1.985a2.131,2.131,0,0,1-4.251,0,2.131,2.131,0,0,1,4.251,0" transform="translate(-1321.952)"/><path class="g" d="M2149.992,1.985a2.131,2.131,0,0,1-4.252,0,2.131,2.131,0,0,1,4.252,0" transform="translate(-1337.83)"/><path class="g" d="M1993.94,41a2.131,2.131,0,1,1-2.126-1.984A2.058,2.058,0,0,1,1993.94,41" transform="translate(-1306.073 -10.015)"/><path class="g" d="M2228.018,41a2.131,2.131,0,1,1-2.126-1.984A2.058,2.058,0,0,1,2228.018,41" transform="translate(-1353.709 -10.015)"/><path class="g" d="M2071.966,119.024a2.131,2.131,0,1,1-2.126-1.984,2.058,2.058,0,0,1,2.126,1.984" transform="translate(-1321.952 -30.045)"/><path class="g" d="M2189,119.024a2.131,2.131,0,1,1-2.126-1.984,2.059,2.059,0,0,1,2.126,1.984" transform="translate(-1345.77 -30.045)"/><path class="g" d="M1993.94,158.036a2.131,2.131,0,1,1-2.126-1.984,2.058,2.058,0,0,1,2.126,1.984" transform="translate(-1306.073 -40.059)"/><path class="g" d="M2032.953,158.036a2.131,2.131,0,1,1-2.126-1.984,2.058,2.058,0,0,1,2.126,1.984" transform="translate(-1314.013 -40.059)"/><path class="g" d="M2110.979,158.036a2.131,2.131,0,1,1-2.126-1.984,2.058,2.058,0,0,1,2.126,1.984" transform="translate(-1329.891 -40.059)"/><path class="g" d="M2149.992,158.036a2.131,2.131,0,1,1-2.126-1.984,2.058,2.058,0,0,1,2.126,1.984" transform="translate(-1337.83 -40.059)"/><path class="g" d="M1993.94,197.05a2.131,2.131,0,1,1-2.126-1.985,2.059,2.059,0,0,1,2.126,1.985" transform="translate(-1306.073 -50.074)"/><path class="g" d="M2032.953,197.05a2.131,2.131,0,1,1-2.126-1.985,2.059,2.059,0,0,1,2.126,1.985" transform="translate(-1314.013 -50.074)"/><path class="g" d="M2110.979,197.05a2.131,2.131,0,1,1-2.126-1.985,2.059,2.059,0,0,1,2.126,1.985" transform="translate(-1329.891 -50.074)"/><path class="g" d="M2189,197.05a2.131,2.131,0,1,1-2.126-1.985A2.059,2.059,0,0,1,2189,197.05" transform="translate(-1345.77 -50.074)"/><path class="g" d="M1954.928,238.036a2.131,2.131,0,1,1-2.126-1.984,2.058,2.058,0,0,1,2.126,1.984" transform="translate(-1298.134 -60.596)"/><path class="g" d="M1954.928,277.05a2.131,2.131,0,1,1-2.126-1.985,2.059,2.059,0,0,1,2.126,1.985" transform="translate(-1298.134 -70.61)"/><path class="g" d="M1993.94,238.036a2.131,2.131,0,1,1-2.126-1.984,2.058,2.058,0,0,1,2.126,1.984" transform="translate(-1306.073 -60.596)"/><path class="g" d="M1993.94,277.05a2.131,2.131,0,1,1-2.126-1.985,2.059,2.059,0,0,1,2.126,1.985" transform="translate(-1306.073 -70.61)"/><path class="g" d="M1914.928,277.05a2.131,2.131,0,1,1-2.126-1.985,2.059,2.059,0,0,1,2.126,1.985" transform="translate(-1289.994 -70.61)"/><path class="g" d="M2032.953,277.05a2.131,2.131,0,1,1-2.126-1.985,2.059,2.059,0,0,1,2.126,1.985" transform="translate(-1314.013 -70.61)"/><path class="g" d="M2110.979,277.05a2.131,2.131,0,1,1-2.126-1.985,2.058,2.058,0,0,1,2.126,1.985" transform="translate(-1329.891 -70.61)"/><path class="g" d="M1954.928,318.036a2.131,2.131,0,1,1-2.126-1.984,2.058,2.058,0,0,1,2.126,1.984" transform="translate(-1298.134 -81.132)"/><path class="g" d="M1954.928,357.05a2.131,2.131,0,1,1-2.126-1.985,2.059,2.059,0,0,1,2.126,1.985" transform="translate(-1298.134 -91.147)"/><path class="g" d="M1993.94,318.036a2.131,2.131,0,1,1-2.126-1.984,2.058,2.058,0,0,1,2.126,1.984" transform="translate(-1306.073 -81.132)"/><path class="g" d="M1993.94,357.05a2.131,2.131,0,1,1-2.126-1.985,2.059,2.059,0,0,1,2.126,1.985" transform="translate(-1306.073 -91.147)"/><path class="g" d="M2034.928,357.05a2.131,2.131,0,1,1-2.126-1.985,2.059,2.059,0,0,1,2.126,1.985" transform="translate(-1314.414 -91.147)"/><path class="g" d="M2073.94,318.036a2.131,2.131,0,1,1-2.126-1.984,2.058,2.058,0,0,1,2.126,1.984" transform="translate(-1322.354 -81.132)"/></g></g></g></g></g></svg>