<?xml version="1.0" encoding="utf-8"?>
<!-- Generator: Adobe Illustrator 16.0.0, SVG Export Plug-In . SVG Version: 6.00 Build 0)  -->
<!DOCTYPE svg PUBLIC "-//W3C//DTD SVG 1.1//EN" "http://www.w3.org/Graphics/SVG/1.1/DTD/svg11.dtd">
<svg version="1.1" id="Layer_1" xmlns="http://www.w3.org/2000/svg" xmlns:xlink="http://www.w3.org/1999/xlink" x="0px" y="0px"
	 width="136.756px" height="65.037px" viewBox="0 0 136.756 65.037" enable-background="new 0 0 136.756 65.037"
	 xml:space="preserve">
<g>
	<path fill="#FFFFFF" d="M10.438,22.722h0.115c2.007-3.613,5.449-5.219,9.52-5.219h2.008v10.036
		c-1.434-0.803-2.81-0.975-4.417-0.975c-5.792,0-7.226,3.842-7.226,8.889v11.873H0V17.904h10.438V22.722z"/>
	<rect x="27.49" y="17.904" fill="#FFFFFF" width="10.438" height="29.422"/>
	<path fill="#FFFFFF" d="M56.21,21.23h0.115c1.893-2.925,5.448-4.302,8.89-4.302c8.775,0,14.854,7.341,14.854,15.771
		c0,8.488-6.022,15.602-14.74,15.602c-3.383,0-6.882-1.205-9.119-3.786v16.116l-10.438,4.405V17.904H56.21V21.23z M55.866,32.644
		c0,3.728,2.466,6.596,6.711,6.596c4.244,0,6.709-2.868,6.709-6.596c0-3.613-2.465-6.653-6.709-6.653
		C58.332,25.99,55.866,29.03,55.866,32.644"/>
	<rect x="85.621" y="17.904" fill="#FFFFFF" width="10.438" height="29.422"/>
	<path fill="#FFFFFF" d="M136.756,32.644c0,9.979-8.258,15.658-17.721,15.658c-9.406,0-17.722-5.622-17.722-15.658
		s8.258-15.715,17.722-15.715C128.498,16.929,136.756,22.607,136.756,32.644 M112.324,32.644c0,3.728,2.466,6.596,6.711,6.596
		c4.244,0,6.71-2.868,6.71-6.596c0-3.613-2.466-6.653-6.71-6.653C114.79,25.99,112.324,29.03,112.324,32.644"/>
	<polygon fill="#7AC4EE" points="37.904,9.724 27.707,13.835 27.707,4.11 37.926,0 	"/>
	<polygon fill="#7AC4EE" points="95.928,9.724 85.73,13.835 85.73,4.11 95.95,0 	"/>
</g>
</svg>
