<?xml version="1.0" encoding="utf-8"?>
<!-- Generator: Adobe Illustrator 23.0.6, SVG Export Plug-In . SVG Version: 6.00 Build 0)  -->
<svg version="1.1" id="Layer_1" xmlns="http://www.w3.org/2000/svg" xmlns:xlink="http://www.w3.org/1999/xlink" x="0px" y="0px"
	 viewBox="0 0 136.8 65" style="enable-background:new 0 0 136.8 65;" xml:space="preserve">
<style type="text/css">
	.st0{fill:#FFFFFF;}
</style>
<g>
	<path class="st0" d="M10.5,22.7h0.1c2-3.6,5.4-5.2,9.5-5.2h2v10c-1.4-0.8-2.8-1-4.4-1c-5.8,0-7.2,3.8-7.2,8.9v11.9H0.1V17.9h10.4
		V22.7z"/>
	<rect x="27.6" y="17.9" class="st0" width="10.4" height="29.4"/>
	<path class="st0" d="M56.2,21.2h0.1c1.9-2.9,5.4-4.3,8.9-4.3c8.8,0,14.8,7.3,14.8,15.8c0,8.5-6,15.6-14.7,15.6
		c-3.4,0-6.9-1.2-9.1-3.8v16.1L45.8,65V17.9h10.4V21.2z M55.9,32.6c0,3.7,2.5,6.6,6.7,6.6c4.2,0,6.7-2.9,6.7-6.6
		c0-3.6-2.5-6.6-6.7-6.6C58.4,26,55.9,29,55.9,32.6"/>
	<rect x="85.6" y="17.9" class="st0" width="10.4" height="29.4"/>
	<path class="st0" d="M136.7,32.6c0,10-8.2,15.6-17.7,15.6c-9.4,0-17.7-5.6-17.7-15.6c0-10,8.2-15.7,17.7-15.7
		C128.5,16.9,136.7,22.6,136.7,32.6 M112.3,32.6c0,3.7,2.5,6.6,6.7,6.6c4.2,0,6.7-2.9,6.7-6.6c0-3.6-2.5-6.6-6.7-6.6
		C114.8,26,112.3,29,112.3,32.6"/>
	<polygon class="st0" points="38,9.7 27.8,13.8 27.8,4.1 38,0 	"/>
	<polygon class="st0" points="95.9,9.7 85.7,13.8 85.7,4.1 95.9,0 	"/>
</g>
</svg>
