<?xml version="1.0" encoding="utf-8"?>
<!-- Generator: Adobe Illustrator 23.0.6, SVG Export Plug-In . SVG Version: 6.00 Build 0)  -->
<svg version="1.1" id="Capa_1" xmlns="http://www.w3.org/2000/svg" xmlns:xlink="http://www.w3.org/1999/xlink" x="0px" y="0px"
	 viewBox="0 0 53 53.2" style="enable-background:new 0 0 53 53.2;" xml:space="preserve">
<style type="text/css">
	.st0{clip-path:url(#SVGID_2_);fill:#FFFFFF;}
	.st1{clip-path:url(#SVGID_2_);fill:#222222;}
	.st2{clip-path:url(#SVGID_2_);fill:#363636;}
	.st3{clip-path:url(#SVGID_2_);fill:#424243;}
</style>
<g>
	<defs>
		<circle id="SVGID_1_" cx="26.5" cy="26.5" r="26.4"/>
	</defs>
	<clipPath id="SVGID_2_">
		<use xlink:href="#SVGID_1_"  style="overflow:visible;"/>
	</clipPath>
	<rect x="0.1" y="0.3" class="st0" width="8.8" height="7.5"/>
	<rect x="8.9" y="0.3" class="st1" width="8.8" height="7.5"/>
	<rect x="17.7" y="0.3" class="st2" width="8.8" height="7.5"/>
	<rect x="26.5" y="0.3" class="st1" width="8.8" height="7.5"/>
	<rect x="35.3" y="0.3" class="st0" width="8.8" height="7.5"/>
	<rect x="44.1" y="0.3" class="st1" width="8.8" height="7.5"/>
	<rect x="0.1" y="7.7" class="st3" width="8.8" height="7.5"/>
	<rect x="8.9" y="7.7" class="st2" width="8.8" height="7.5"/>
	<rect x="17.7" y="7.7" class="st0" width="8.8" height="7.5"/>
	<rect x="26.5" y="7.7" class="st1" width="8.8" height="7.5"/>
	<rect x="35.3" y="7.7" class="st3" width="8.8" height="7.5"/>
	<rect x="44.1" y="7.7" class="st0" width="8.8" height="7.5"/>
	<rect x="0.1" y="15.2" class="st1" width="8.8" height="7.5"/>
	<rect x="8.9" y="15.2" class="st0" width="8.8" height="7.5"/>
	<rect x="17.7" y="15.2" class="st2" width="8.8" height="7.5"/>
	<rect x="26.5" y="15.2" class="st0" width="8.8" height="7.5"/>
	<rect x="35.3" y="15.2" class="st1" width="8.8" height="7.5"/>
	<rect x="44.1" y="15.2" class="st3" width="8.8" height="7.5"/>
	<rect x="0.1" y="22.7" class="st2" width="8.8" height="7.5"/>
	<rect x="8.9" y="22.7" class="st3" width="8.8" height="7.5"/>
	<rect x="17.7" y="22.7" class="st0" width="8.8" height="7.5"/>
	<rect x="26.5" y="22.7" class="st2" width="8.8" height="7.5"/>
	<rect x="35.3" y="22.7" class="st2" width="8.8" height="7.5"/>
	<rect x="26.4" y="22.7" class="st1" width="8.8" height="7.5"/>
	<rect x="44.1" y="22.7" class="st2" width="8.8" height="7.5"/>
	<rect x="0.1" y="30.1" class="st1" width="8.8" height="7.5"/>
	<rect x="8.9" y="30.1" class="st0" width="8.8" height="7.5"/>
	<rect x="17.7" y="30.1" class="st3" width="8.8" height="7.5"/>
	<rect x="26.5" y="30.1" class="st1" width="8.8" height="7.5"/>
	<rect x="35.3" y="30.1" class="st2" width="8.8" height="7.5"/>
	<rect x="44.1" y="30.1" class="st2" width="8.8" height="7.5"/>
	<rect x="0.1" y="37.6" class="st2" width="8.8" height="7.5"/>
	<rect x="8.9" y="37.6" class="st2" width="8.8" height="7.5"/>
	<rect x="17.7" y="37.6" class="st1" width="8.8" height="7.5"/>
	<rect x="26.5" y="37.6" class="st2" width="8.8" height="7.5"/>
	<rect x="35.3" y="37.6" class="st0" width="8.8" height="7.5"/>
	<rect x="44.1" y="37.6" class="st3" width="8.8" height="7.5"/>
	<rect x="0.1" y="45.1" class="st0" width="8.8" height="7.5"/>
	<rect x="8.9" y="45.1" class="st1" width="8.8" height="7.5"/>
	<rect x="17.7" y="45.1" class="st2" width="8.8" height="7.5"/>
	<rect x="26.5" y="45.1" class="st2" width="8.8" height="7.5"/>
	<rect x="35.3" y="45.1" class="st1" width="8.8" height="7.5"/>
	<rect x="44.1" y="45.1" class="st0" width="8.8" height="7.5"/>
	<rect x="44.1" y="22.7" class="st1" width="8.8" height="7.5"/>
	<rect x="35.3" y="30.1" class="st0" width="8.8" height="7.5"/>
	<rect x="8.9" y="37.6" class="st1" width="8.8" height="7.5"/>
	<rect x="26.5" y="45.1" class="st0" width="8.8" height="7.5"/>
</g>
</svg>
