<?xml version="1.0" encoding="UTF-8" standalone="no"?>
<!DOCTYPE svg PUBLIC "-//W3C//DTD SVG 1.1//EN"
 "http://www.w3.org/Graphics/SVG/1.1/DTD/svg11.dtd">
<!-- Generated by graphviz version 2.40.1 (20161225.0304)
 -->
<!-- Title: dependencies Pages: 1 -->
<svg width="504pt" height="284pt"
 viewBox="0.00 0.00 504.00 284.00" xmlns="http://www.w3.org/2000/svg" xmlns:xlink="http://www.w3.org/1999/xlink">
<g id="graph0" class="graph" transform="scale(1 1) rotate(0) translate(4 280)">
<title>dependencies</title>
<polygon fill="#ffffff" stroke="transparent" points="-4,4 -4,-280 500,-280 500,4 -4,4"/>
<text text-anchor="start" x="227.0091" y="-42.4" font-family="sans-serif" font-weight="bold" font-size="14.00" fill="#000000">Legend</text>
<polygon fill="#ffffb3" stroke="transparent" points="14,-10 14,-30 34,-30 34,-10 14,-10"/>
<text text-anchor="start" x="37.629" y="-15.4" font-family="sans-serif" font-size="14.00" fill="#000000"> &#160;Declarations</text>
<polygon fill="#8dd3c7" stroke="transparent" points="127,-10 127,-30 147,-30 147,-10 127,-10"/>
<text text-anchor="start" x="150.7251" y="-15.4" font-family="sans-serif" font-size="14.00" fill="#000000"> &#160;Module</text>
<polygon fill="#80b1d3" stroke="transparent" points="213,-10 213,-30 233,-30 233,-10 213,-10"/>
<text text-anchor="start" x="236.7812" y="-15.4" font-family="sans-serif" font-size="14.00" fill="#000000"> &#160;Bootstrap</text>
<polygon fill="#fdb462" stroke="transparent" points="310,-10 310,-30 330,-30 330,-10 310,-10"/>
<text text-anchor="start" x="333.6732" y="-15.4" font-family="sans-serif" font-size="14.00" fill="#000000"> &#160;Providers</text>
<polygon fill="#fb8072" stroke="transparent" points="406,-10 406,-30 426,-30 426,-10 406,-10"/>
<text text-anchor="start" x="429.7258" y="-15.4" font-family="sans-serif" font-size="14.00" fill="#000000"> &#160;Exports</text>
<g id="clust1" class="cluster">
<title>cluster_AddressModule</title>
<polygon fill="none" stroke="#000000" stroke-dasharray="1,5" points="18,-70 18,-268 478,-268 478,-70 18,-70"/>
</g>
<g id="clust2" class="cluster">
<title>cluster_AddressModule_declarations</title>
<polygon fill="none" stroke="#000000" points="326,-78 326,-130 470,-130 470,-78 326,-78"/>
</g>
<g id="clust4" class="cluster">
<title>cluster_AddressModule_imports</title>
<polygon fill="none" stroke="#000000" points="204,-78 204,-130 318,-130 318,-78 204,-78"/>
</g>
<g id="clust5" class="cluster">
<title>cluster_AddressModule_exports</title>
<polygon fill="none" stroke="#000000" points="188,-208 188,-260 334,-260 334,-208 188,-208"/>
</g>
<g id="clust7" class="cluster">
<title>cluster_AddressModule_providers</title>
<polygon fill="none" stroke="#000000" points="26,-78 26,-130 196,-130 196,-78 26,-78"/>
</g>
<!-- AddressComponent -->
<g id="node1" class="node">
<title>AddressComponent</title>
<polygon fill="#ffffb3" stroke="#000000" points="461.7036,-122 334.2964,-122 334.2964,-86 461.7036,-86 461.7036,-122"/>
<text text-anchor="middle" x="398" y="-99.8" font-family="Times,serif" font-size="14.00" fill="#000000">AddressComponent</text>
</g>
<!-- AddressModule -->
<g id="node2" class="node">
<title>AddressModule</title>
<polygon fill="#8dd3c7" stroke="#000000" points="313.9216,-187 310.9216,-191 289.9216,-191 286.9216,-187 208.0784,-187 208.0784,-151 313.9216,-151 313.9216,-187"/>
<text text-anchor="middle" x="261" y="-164.8" font-family="Times,serif" font-size="14.00" fill="#000000">AddressModule</text>
</g>
<!-- AddressComponent&#45;&gt;AddressModule -->
<g id="edge1" class="edge">
<title>AddressComponent&#45;&gt;AddressModule</title>
<path fill="none" stroke="#000000" d="M398,-122.1061C398,-141.3391 398,-169 398,-169 398,-169 323.9678,-169 323.9678,-169"/>
<polygon fill="#000000" stroke="#000000" points="323.9678,-165.5001 313.9678,-169 323.9677,-172.5001 323.9678,-165.5001"/>
</g>
<!-- AddressComponent  -->
<g id="node4" class="node">
<title>AddressComponent </title>
<polygon fill="#fb8072" stroke="#000000" points="326.2037,-252 195.7963,-252 195.7963,-216 326.2037,-216 326.2037,-252"/>
<text text-anchor="middle" x="261" y="-229.8" font-family="Times,serif" font-size="14.00" fill="#000000">AddressComponent </text>
</g>
<!-- AddressModule&#45;&gt;AddressComponent  -->
<g id="edge3" class="edge">
<title>AddressModule&#45;&gt;AddressComponent </title>
<path fill="none" stroke="#000000" stroke-dasharray="5,2" d="M261,-187.1061C261,-187.1061 261,-205.991 261,-205.991"/>
<polygon fill="#000000" stroke="#000000" points="257.5001,-205.9909 261,-215.991 264.5001,-205.991 257.5001,-205.9909"/>
</g>
<!-- SharedModule -->
<g id="node3" class="node">
<title>SharedModule</title>
<polygon fill="#8dd3c7" stroke="#000000" points="310.4231,-122 307.4231,-126 286.4231,-126 283.4231,-122 211.5769,-122 211.5769,-86 310.4231,-86 310.4231,-122"/>
<text text-anchor="middle" x="261" y="-99.8" font-family="Times,serif" font-size="14.00" fill="#000000">SharedModule</text>
</g>
<!-- SharedModule&#45;&gt;AddressModule -->
<g id="edge2" class="edge">
<title>SharedModule&#45;&gt;AddressModule</title>
<path fill="none" stroke="#000000" d="M261,-122.1061C261,-122.1061 261,-140.991 261,-140.991"/>
<polygon fill="#000000" stroke="#000000" points="257.5001,-140.9909 261,-150.991 264.5001,-140.991 257.5001,-140.9909"/>
</g>
<!-- ContractsService -->
<g id="node5" class="node">
<title>ContractsService</title>
<ellipse fill="#fdb462" stroke="#000000" cx="111" cy="-104" rx="77.0004" ry="18"/>
<text text-anchor="middle" x="111" y="-99.8" font-family="Times,serif" font-size="14.00" fill="#000000">ContractsService</text>
</g>
<!-- ContractsService&#45;&gt;AddressModule -->
<g id="edge4" class="edge">
<title>ContractsService&#45;&gt;AddressModule</title>
<path fill="none" stroke="#000000" d="M111,-122.1061C111,-141.3391 111,-169 111,-169 111,-169 198.1156,-169 198.1156,-169"/>
<polygon fill="#000000" stroke="#000000" points="198.1156,-172.5001 208.1156,-169 198.1156,-165.5001 198.1156,-172.5001"/>
</g>
</g>
</svg>
