<?xml version="1.0" encoding="utf-8"?>
<!-- Generator: Adobe Illustrator 22.1.0, SVG Export Plug-In . SVG Version: 6.00 Build 0)  -->
<svg version="1.1" id="Layer_1" xmlns="http://www.w3.org/2000/svg" xmlns:xlink="http://www.w3.org/1999/xlink" x="0px" y="0px"
	 viewBox="0 0 1520.4 1321.6" style="enable-background:new 0 0 1520.4 1321.6;" xml:space="preserve">
<style type="text/css">
	.st0{fill:#4155FF;}
	.st1{fill:none;stroke:#FFFFFF;stroke-width:3;stroke-linejoin:round;stroke-miterlimit:10;}
	.st2{fill:#7898FF;}
	.st3{fill:#064DFF;}
	.st4{enable-background:new    ;}
	.st5{fill:#FFFFFF;}
	.st6{fill:#2E97FF;}
	.st7{fill:#AAAAAA;}
	.st8{fill:#4155FF;stroke:#FFFFFF;stroke-miterlimit:10;}
	.st9{fill:#4121FF;}
	.st10{opacity:0.4;fill:#B9BDC0;enable-background:new    ;}
	.st11{fill:#666666;}
	.st12{fill:none;stroke:#FFFFFF;stroke-width:6.1266;stroke-linecap:round;stroke-miterlimit:10;}
	.st13{opacity:0;}
	.st14{fill:none;stroke:#231F20;stroke-miterlimit:10;}
	.st15{fill:#231F20;}
	.st16{fill:#D9E2E3;stroke:#231F20;stroke-miterlimit:10;}
	.st17{fill:#DEE4E5;}
	.st18{fill:none;stroke:#231F20;stroke-width:0.5;stroke-miterlimit:10;}
</style>
<g>
	<g>
		<g>
			<g>
				<polygon class="st0" points="616.1,-0.5 616.1,1321.7 872.5,1321.8 872.5,-0.5 				"/>
				<rect x="616.1" y="627.7" class="st0" width="30" height="692.4"/>
				<line class="st1" x1="872.5" y1="1321.5" x2="872.5" y2="0"/>
				<line class="st1" x1="616.1" y1="0.3" x2="616.1" y2="1321.8"/>
				<g>
					<g>
						<path class="st2" d="M635.7,217.9c-2.2,0-4-1.8-4-4v-52.1c0-2.2,1.8-4,4-4s4,1.8,4,4v52.1
							C639.7,216.1,637.9,217.9,635.7,217.9z"/>
					</g>
					<g>
						<path class="st2" d="M635.7,354.4c-2.2,0-4-1.8-4-4v-92.1c0-2.2,1.8-4,4-4s4,1.8,4,4v92.1
							C639.7,352.6,637.9,354.4,635.7,354.4z"/>
					</g>
					<g>
						<path class="st2" d="M658.6,381c-2.2,0-4-1.8-4-4v-62.1c0-2.2,1.8-4,4-4s4,1.8,4,4V377C662.6,379.2,660.8,381,658.6,381z"/>
					</g>
					<g>
						<path class="st2" d="M664.4,96.4c-2.2,0-4-1.8-4-4V40.3c0-2.2,1.8-4,4-4s4,1.8,4,4v52.1C668.4,94.6,666.6,96.4,664.4,96.4z"/>
					</g>
					<g>
						<path class="st2" d="M658.6,650.1c-2.2,0-4-1.8-4-4V594c0-2.2,1.8-4,4-4s4,1.8,4,4v52.1C662.6,648.3,660.8,650.1,658.6,650.1z
							"/>
					</g>
					<g>
						<path class="st2" d="M635.7,111.5c-2.2,0-4-1.8-4-4V85.4c0-2.2,1.8-4,4-4s4,1.8,4,4v22.1C639.7,109.7,637.9,111.5,635.7,111.5
							z"/>
					</g>
					<g>
						<path class="st2" d="M664.4,241.4c-2.2,0-4-1.8-4-4v-22.1c0-2.2,1.8-4,4-4s4,1.8,4,4v22.1
							C668.4,239.6,666.6,241.4,664.4,241.4z"/>
					</g>
					<g>
						<path class="st2" d="M632.6,441.3c-2.2,0-4-1.8-4-4v-15.1c0-2.2,1.8-4,4-4s4,1.8,4,4v15.1
							C636.6,439.5,634.8,441.3,632.6,441.3z"/>
					</g>
				</g>
				<g>
					<g>
						<path class="st2" d="M822,217.9c-2.2,0-4-1.8-4-4v-52.1c0-2.2,1.8-4,4-4s4,1.8,4,4v52.1C826,216.1,824.2,217.9,822,217.9z"/>
					</g>
					<g>
						<path class="st2" d="M822,354.4c-2.2,0-4-1.8-4-4v-92.1c0-2.2,1.8-4,4-4s4,1.8,4,4v92.1C826,352.6,824.2,354.4,822,354.4z"/>
					</g>
					<g>
						<path class="st2" d="M844.9,381c-2.2,0-4-1.8-4-4v-62.1c0-2.2,1.8-4,4-4s4,1.8,4,4V377C848.9,379.2,847.1,381,844.9,381z"/>
					</g>
					<g>
						<path class="st2" d="M850.7,96.4c-2.2,0-4-1.8-4-4V40.3c0-2.2,1.8-4,4-4s4,1.8,4,4v52.1C854.7,94.6,852.9,96.4,850.7,96.4z"/>
					</g>
					<g>
						<path class="st2" d="M844.9,650.1c-2.2,0-4-1.8-4-4V594c0-2.2,1.8-4,4-4s4,1.8,4,4v52.1C848.9,648.3,847.1,650.1,844.9,650.1z
							"/>
					</g>
					<g>
						<path class="st2" d="M822,111.5c-2.2,0-4-1.8-4-4V85.4c0-2.2,1.8-4,4-4s4,1.8,4,4v22.1C826,109.7,824.2,111.5,822,111.5z"/>
					</g>
					<g>
						<path class="st2" d="M850.7,241.4c-2.2,0-4-1.8-4-4v-22.1c0-2.2,1.8-4,4-4s4,1.8,4,4v22.1
							C854.7,239.6,852.9,241.4,850.7,241.4z"/>
					</g>
					<g>
						<path class="st2" d="M818.9,441.3c-2.2,0-4-1.8-4-4v-15.1c0-2.2,1.8-4,4-4s4,1.8,4,4v15.1
							C822.9,439.5,821.1,441.3,818.9,441.3z"/>
					</g>
					<g>
						<path class="st2" d="M818.9,597.2c-2.2,0-4-1.8-4-4v-99.1c0-2.2,1.8-4,4-4s4,1.8,4,4v99.1
							C822.9,595.4,821.1,597.2,818.9,597.2z"/>
					</g>
				</g>
				<g>
					<g>
						<path class="st2" d="M734.7,468.5c-2.2,0-4,1.8-4,4v52.1c0,2.2,1.8,4,4,4s4-1.8,4-4v-52.1C738.7,470.3,737,468.5,734.7,468.5z
							"/>
					</g>
					<g>
						<path class="st2" d="M734.7,332c-2.2,0-4,1.8-4,4v92.1c0,2.2,1.8,4,4,4s4-1.8,4-4V336C738.7,333.8,737,332,734.7,332z"/>
					</g>
					<g>
						<path class="st2" d="M757.7,305.4c-2.2,0-4,1.8-4,4v62.1c0,2.2,1.8,4,4,4s4-1.8,4-4v-62.1
							C761.7,307.2,759.9,305.4,757.7,305.4z"/>
					</g>
					<g>
						<path class="st2" d="M763.4,589.9c-2.2,0-4,1.8-4,4V646c0,2.2,1.8,4,4,4s4-1.8,4-4v-52.1C767.4,591.7,765.6,589.9,763.4,589.9
							z"/>
					</g>
					<g>
						<path class="st2" d="M757.7,36.3c-2.2,0-4,1.8-4,4v52.1c0,2.2,1.8,4,4,4s4-1.8,4-4V40.3C761.7,38.1,759.9,36.3,757.7,36.3z"/>
					</g>
					<g>
						<path class="st2" d="M734.7,574.9c-2.2,0-4,1.8-4,4V601c0,2.2,1.8,4,4,4s4-1.8,4-4v-22.1C738.7,576.7,737,574.9,734.7,574.9z"
							/>
					</g>
					<g>
						<path class="st2" d="M763.4,445c-2.2,0-4,1.8-4,4v22.1c0,2.2,1.8,4,4,4s4-1.8,4-4V449C767.4,446.7,765.6,445,763.4,445z"/>
					</g>
					<g>
						<path class="st2" d="M731.6,245.1c-2.2,0-4,1.8-4,4v15.1c0,2.2,1.8,4,4,4s4-1.8,4-4v-15.1
							C735.6,246.9,733.8,245.1,731.6,245.1z"/>
					</g>
					<g>
						<path class="st2" d="M731.6,89.2c-2.2,0-4,1.8-4,4v99.1c0,2.2,1.8,4,4,4s4-1.8,4-4V93.2C735.6,91,733.8,89.2,731.6,89.2z"/>
					</g>
				</g>
				<g>
					<g>
						<path class="st2" d="M843.6,864.4v-52.1c0-2.2,1.8-4,4-4s4,1.8,4,4v52.1c0,2.2-1.8,4-4,4C845.4,868.4,843.6,866.6,843.6,864.4
							z"/>
					</g>
					<g>
						<path class="st2" d="M843.6,1000.9v-92.1c0-2.2,1.8-4,4-4s4,1.8,4,4v92.1c0,2.2-1.8,4-4,4
							C845.4,1004.9,843.6,1003.1,843.6,1000.9z"/>
					</g>
					<g>
						<path class="st2" d="M820.7,1027.5v-62.1c0-2.2,1.8-4,4-4s4,1.8,4,4v62.1c0,2.2-1.8,4-4,4S820.7,1029.7,820.7,1027.5z"/>
					</g>
					<g>
						<path class="st2" d="M814.9,742.9v-52.1c0-2.2,1.8-4,4-4s4,1.8,4,4v52.1c0,2.2-1.8,4-4,4S814.9,745.1,814.9,742.9z"/>
					</g>
					<g>
						<path class="st2" d="M820.7,1296.6v-52.1c0-2.2,1.8-4,4-4s4,1.8,4,4v52.1c0,2.2-1.8,4-4,4S820.7,1298.8,820.7,1296.6z"/>
					</g>
					<g>
						<path class="st2" d="M843.6,758v-22.1c0-2.2,1.8-4,4-4s4,1.8,4,4V758c0,2.2-1.8,4-4,4C845.4,762,843.6,760.2,843.6,758z"/>
					</g>
					<g>
						<path class="st2" d="M814.9,887.9v-22.1c0-2.2,1.8-4,4-4s4,1.8,4,4v22.1c0,2.2-1.8,4-4,4S814.9,890.1,814.9,887.9z"/>
					</g>
					<g>
						<path class="st2" d="M846.7,1087.8v-15.1c0-2.2,1.8-4,4-4s4,1.8,4,4v15.1c0,2.2-1.8,4-4,4S846.7,1090,846.7,1087.8z"/>
					</g>
				</g>
				<g>
					<g>
						<path class="st2" d="M657.3,864.4v-52.1c0-2.2,1.8-4,4-4s4,1.8,4,4v52.1c0,2.2-1.8,4-4,4S657.3,866.6,657.3,864.4z"/>
					</g>
					<g>
						<path class="st2" d="M657.3,1000.9v-92.1c0-2.2,1.8-4,4-4s4,1.8,4,4v92.1c0,2.2-1.8,4-4,4S657.3,1003.1,657.3,1000.9z"/>
					</g>
					<g>
						<path class="st2" d="M634.4,1027.5v-62.1c0-2.2,1.8-4,4-4s4,1.8,4,4v62.1c0,2.2-1.8,4-4,4S634.4,1029.7,634.4,1027.5z"/>
					</g>
					<g>
						<path class="st2" d="M628.6,742.9v-52.1c0-2.2,1.8-4,4-4s4,1.8,4,4v52.1c0,2.2-1.8,4-4,4C630.4,746.9,628.6,745.1,628.6,742.9
							z"/>
					</g>
					<g>
						<path class="st2" d="M634.4,1296.6v-52.1c0-2.2,1.8-4,4-4s4,1.8,4,4v52.1c0,2.2-1.8,4-4,4S634.4,1298.8,634.4,1296.6z"/>
					</g>
					<g>
						<path class="st2" d="M657.3,758v-22.1c0-2.2,1.8-4,4-4s4,1.8,4,4V758c0,2.2-1.8,4-4,4S657.3,760.2,657.3,758z"/>
					</g>
					<g>
						<path class="st2" d="M628.6,887.9v-22.1c0-2.2,1.8-4,4-4s4,1.8,4,4v22.1c0,2.2-1.8,4-4,4C630.4,891.9,628.6,890.1,628.6,887.9
							z"/>
					</g>
					<g>
						<path class="st2" d="M660.4,1087.8v-15.1c0-2.2,1.8-4,4-4s4,1.8,4,4v15.1c0,2.2-1.8,4-4,4S660.4,1090,660.4,1087.8z"/>
					</g>
					<g>
						<path class="st2" d="M660.4,1243.7v-99.1c0-2.2,1.8-4,4-4s4,1.8,4,4v99.1c0,2.2-1.8,4-4,4S660.4,1245.9,660.4,1243.7z"/>
					</g>
				</g>
				<g>
					<g>
						<path class="st2" d="M744.6,1123v52.1c0,2.2,1.8,4,4,4s4-1.8,4-4V1123c0-2.2-1.8-4-4-4C746.3,1119,744.6,1120.8,744.6,1123z"
							/>
					</g>
					<g>
						<path class="st2" d="M744.6,986.5v92.1c0,2.2,1.8,4,4,4s4-1.8,4-4v-92.1c0-2.2-1.8-4-4-4C746.3,982.5,744.6,984.3,744.6,986.5
							z"/>
					</g>
					<g>
						<path class="st2" d="M721.6,959.9v62.1c0,2.2,1.8,4,4,4s4-1.8,4-4v-62.1c0-2.2-1.8-4-4-4C723.4,955.9,721.6,957.7,721.6,959.9
							z"/>
					</g>
					<g>
						<path class="st2" d="M715.9,1244.4v52.1c0,2.2,1.8,4,4,4s4-1.8,4-4v-52.1c0-2.2-1.8-4-4-4S715.9,1242.2,715.9,1244.4z"/>
					</g>
					<g>
						<path class="st2" d="M721.6,690.8v52.1c0,2.2,1.8,4,4,4s4-1.8,4-4v-52.1c0-2.2-1.8-4-4-4C723.4,686.8,721.6,688.6,721.6,690.8
							z"/>
					</g>
					<g>
						<path class="st2" d="M744.6,1229.4v22.1c0,2.2,1.8,4,4,4s4-1.8,4-4v-22.1c0-2.2-1.8-4-4-4
							C746.3,1225.4,744.6,1227.2,744.6,1229.4z"/>
					</g>
					<g>
						<path class="st2" d="M715.9,1099.5v22.1c0,2.2,1.8,4,4,4s4-1.8,4-4v-22.1c0-2.2-1.8-4-4-4S715.9,1097.2,715.9,1099.5z"/>
					</g>
					<g>
						<path class="st2" d="M747.7,899.6v15.1c0,2.2,1.8,4,4,4s4-1.8,4-4v-15.1c0-2.2-1.8-4-4-4S747.7,897.4,747.7,899.6z"/>
					</g>
					<g>
						<path class="st2" d="M747.7,743.7v99.1c0,2.2,1.8,4,4,4s4-1.8,4-4v-99.1c0-2.2-1.8-4-4-4S747.7,741.5,747.7,743.7z"/>
					</g>
				</g>
			</g>
			<g>
				<polyline class="st0" points="616.1,421.9 465.2,378.6 465.2,424.1 616.1,467.4 				"/>
				<path class="st3" d="M465.2,378.6v14l137.4,39.5c6.7,1.9,13.5-3.1,13.5-10.1L465.2,378.6z"/>
				<polyline class="st1" points="616.1,421.9 465.2,378.6 465.2,424.1 616.1,467.4 				"/>
				<g>
					<path class="st2" d="M565.2,425.4c-0.4,0-0.7-0.1-1.1-0.2l-26.2-7.5c-2.1-0.6-3.4-2.8-2.7-4.9c0.6-2.1,2.8-3.3,4.9-2.7
						l26.2,7.5c2.1,0.6,3.4,2.8,2.7,4.9C568.6,424.3,567,425.4,565.2,425.4z"/>
				</g>
				<g>
					<path class="st2" d="M547.3,438.7c-0.4,0-0.7-0.1-1.1-0.2l-46.3-13.3c-2.1-0.6-3.4-2.8-2.7-4.9c0.6-2.1,2.8-3.3,4.9-2.7
						l46.3,13.3c2.1,0.6,3.4,2.8,2.7,4.9C550.7,437.6,549.1,438.7,547.3,438.7z"/>
				</g>
			</g>
			<g>
				<g>
					<polyline class="st0" points="872.5,836.9 985.2,804.6 985.2,836.9 872.5,869.3 					"/>
					<path class="st3" d="M872.5,836.9c0,5,4.8,8.6,9.6,7.2l103.1-29.6v-10L872.5,836.9z"/>
					<g>
						<path class="st2" d="M956.9,835.1c-1.7,0-3.3-1.1-3.8-2.9c-0.6-2.1,0.6-4.3,2.7-4.9l16.9-4.8c2.1-0.6,4.3,0.6,4.9,2.7
							c0.6,2.1-0.6,4.3-2.7,4.9l-16.9,4.8C957.7,835.1,957.3,835.1,956.9,835.1z"/>
					</g>
					<g>
						<path class="st2" d="M919.2,847.3c-1.7,0-3.3-1.1-3.8-2.9c-0.6-2.1,0.6-4.3,2.7-4.9l15.9-4.6c2.1-0.6,4.3,0.6,4.9,2.7
							c0.6,2.1-0.6,4.3-2.7,4.9l-15.9,4.6C919.9,847.2,919.5,847.3,919.2,847.3z"/>
					</g>
					<polyline class="st1" points="872.5,836.9 985.2,804.6 985.2,836.9 872.5,869.3 					"/>
				</g>
				<g>
					<g class="st4">
						<path class="st5" d="M1127.1,774.1c8.6,1.7,15.7,6,21.4,12.8s8.5,14.6,8.5,23.5c0,6.8-1.7,13-5,18.7
							c-3.3,5.7-7.9,10.2-13.6,13.5c-5.8,3.3-12.1,4.9-18.9,4.9h-107.9c-7.6,0-14.7-1.9-21.1-5.7c-6.4-3.8-11.6-8.9-15.4-15.3
							c-3.8-6.4-5.7-13.4-5.7-20.9c0-9.1,2.6-17.2,7.9-24.4c5.3-7.2,12-12.2,20.2-15.1v-2.3c0-8.3,2.1-16.1,6.3-23.3
							c4.2-7.2,9.9-12.8,17.1-17s15.1-6.2,23.6-6.2s16.4,2.1,23.6,6.4c7.2,4.3,12.9,9.9,17,16.9c4.7-3.1,9.9-4.7,15.5-4.7
							c7.8,0,14.5,2.7,19.9,8.1c5.5,5.4,8.2,12,8.2,19.8C1128.9,767.4,1128.3,770.8,1127.1,774.1z"/>
					</g>
					<g class="st4">
						<path d="M1022.9,820.8v-7.2h-15.1v-9.9l18.6-23.5h7.6v23.5h5.2v9.9h-5.2v7.2H1022.9z M1018.8,803.7h5.4v-7L1018.8,803.7z"/>
						<path d="M1074.8,796.4c0,2.6-0.4,4.9-1.2,7.1s-1.9,4-3.3,5.6c-1.4,1.6-3,2.8-4.9,3.7c-1.9,0.9-4,1.3-6.2,1.3
							c-2.2,0-4.3-0.4-6.2-1.3c-1.9-0.9-3.5-2.1-4.9-3.7c-1.4-1.6-2.5-3.4-3.3-5.6s-1.2-4.5-1.2-7.1c0-2.6,0.4-4.9,1.2-7.1
							c0.8-2.2,1.9-4,3.3-5.6c1.4-1.6,3-2.8,4.9-3.7c1.9-0.9,4-1.3,6.2-1.3c2.2,0,4.3,0.4,6.2,1.3c1.9,0.9,3.5,2.1,4.9,3.7
							c1.4,1.6,2.5,3.4,3.3,5.6C1074.4,791.5,1074.8,793.9,1074.8,796.4z M1063.6,796.4c0-2.2-0.4-4.1-1.2-5.5
							c-0.8-1.4-1.8-2.1-3.1-2.1c-1.3,0-2.4,0.7-3.2,2.1c-0.8,1.4-1.2,3.2-1.2,5.5c0,2.2,0.4,4.1,1.2,5.4c0.8,1.4,1.9,2.1,3.2,2.1
							c1.2,0,2.3-0.7,3.1-2.1C1063.2,800.5,1063.6,798.7,1063.6,796.4z"/>
						<path d="M1093.2,820.8v-7.2h-15.1v-9.9l18.6-23.5h7.6v23.5h5.2v9.9h-5.2v7.2H1093.2z M1089.1,803.7h5.4v-7L1089.1,803.7z"/>
					</g>
				</g>
			</g>
			<g>
				<path class="st6" d="M442,349.1c0.8-11.5-12.7-13.4-12.7-13.4s-35.1-7.8-51-19.5c-1.8-1.3-4.4-0.1-4.3,2
					c0.2,3.3,1.5,7.8,6.4,11.9c2.7,2.3,7.7,4.9,13.5,7.5c-5.3-1.9-10.3-4.2-14.4-6.7c-1.9-1.2-4.4,0.2-4.1,2.3
					c0.4,3.3,2.1,7.7,7.2,11.5c3.3,2.4,9.3,5,15.9,7.4c-6.3-1.6-12.7-3.8-17.9-6.5c-2-1.1-4.4,0.5-3.9,2.6c0.6,3.3,2.6,7.6,8.1,11.1
					c3.6,2.3,9.8,4.5,16.4,6.4c-6.6-1.1-13.4-3.5-19.4-6.2c-2.1-0.9-4.3,0.8-3.7,2.8c0.9,3.3,3.2,7.5,8.9,10.7c10.8,6,40,9.3,40,9.3
					c5.6,1.3,10.2,2.8,13.9,4.1c2.9,1.1,5.6-1.5,4.5-4.2C440.8,371.5,441.5,357.8,442,349.1z"/>
				<ellipse class="st0" cx="451.1" cy="397" rx="50.8" ry="50.8"/>
				<ellipse class="st7" cx="451.1" cy="397" rx="36" ry="36"/>
				<ellipse class="st5" cx="451.1" cy="397" rx="36" ry="36"/>
				<ellipse class="st8" cx="451.5" cy="397" rx="31.2" ry="31.2"/>
				<g>
					<path class="st5" d="M462.8,402.4c-0.4,3.2-1.8,5.6-4.2,7.2c-2.4,1.6-5.7,2.3-9.9,2.1l-1.6,5l-3.6-0.4l1.8-5.1
						c-3.6-0.6-6.6-1.8-8.9-3.3l0.8-6.9c3.2,2.3,6.6,3.7,10.1,4.3l2.8-8.1c-2.7-1.4-4.6-2.9-5.8-4.7c-1.2-1.7-1.6-3.6-1.4-5.8
						c0.4-3,1.7-5.3,4.2-6.8c2.4-1.6,5.6-2.3,9.4-2.1l1.4-3.8l3.6,0.4l-1.3,3.8c2.8,0.7,5.3,1.8,7.4,3.2l-3.5,5.7
						c-2.1-1.4-4.2-2.3-6-2.7l-2.6,7.7c2.2,1.2,3.7,2.2,4.7,3.2s1.7,2,2.2,3.2C462.9,399.6,463,401,462.8,402.4z M454.5,384.1
						c-1.1,0-2,0.2-2.6,0.8c-0.7,0.5-1.1,1.3-1.2,2.3c-0.2,1.4,0.4,2.4,1.7,3.1L454.5,384.1z M450.9,405.6c1.1,0,2-0.3,2.8-0.8
						c0.7-0.5,1.2-1.3,1.3-2.4c0.1-0.8,0-1.5-0.4-2c-0.4-0.6-0.8-1-1.4-1.3L450.9,405.6z"/>
				</g>
				<g>
					<path class="st9" d="M460.8,379.1c2.5,0.6,4.7,1.6,6.6,2.8l0.2-0.4c-1.9-1.3-4.1-2.3-6.6-3L460.8,379.1z"/>
					<path class="st9" d="M453,391.2l2.1-6.2c-0.3,0-0.6,0-0.8,0.1l-1.8,5.3c-0.4-0.2-0.7-0.5-1-0.8
						C451.7,390.2,452.2,390.7,453,391.2z"/>
					<path class="st9" d="M455.5,403.2c0.1-0.8,0-1.5-0.4-2c-0.1-0.1-0.2-0.2-0.3-0.3c0.2,0.4,0.2,0.9,0.1,1.5
						c-0.1,1.1-0.6,1.9-1.3,2.4c-0.5,0.4-1.2,0.6-1.9,0.8l-0.3,0.9c1.1,0,2-0.3,2.8-0.8C455,405.1,455.4,404.2,455.5,403.2z"/>
					<path class="st9" d="M462,397.5c-0.4-0.8-1-1.5-1.7-2.2c-0.9-0.9-2.3-1.8-4-2.8l-0.2,0.4c2.2,1.2,3.7,2.2,4.7,3.2
						C461.3,396.5,461.6,397,462,397.5z"/>
					<path class="st9" d="M444.5,392.7c-0.9-1.6-1.2-3.3-1-5.1c0.4-3,1.7-5.3,4.2-6.8c2.4-1.6,5.6-2.3,9.4-2.1l1.4-3.8l2.8,0.3
						l0.3-0.8L458,374l-1.4,3.8c-3.9-0.2-7,0.5-9.4,2.1s-3.8,3.9-4.2,6.8c-0.3,2.1,0.2,4.1,1.4,5.8
						C444.4,392.6,444.5,392.6,444.5,392.7z"/>
					<path class="st9" d="M445.8,412.1c-0.3,0-0.5-0.1-0.8-0.2l-1.5,4.4l0.8,0.1L445.8,412.1z"/>
					<path class="st9" d="M437.7,401.9c3.2,2.3,6.6,3.7,10.1,4.3l2.8-8.1c-0.3-0.1-0.5-0.3-0.7-0.4l-2.7,7.7
						c-3.5-0.6-6.9-2-10.1-4.3l-0.8,6.9c0.2,0.1,0.4,0.2,0.6,0.3L437.7,401.9z"/>
				</g>
				<path class="st3" d="M400.7,390.9c0,0.2,0,0.4-0.1,0.6c9.2,0,17-0.6,17-0.6c5.7,0.3,10.5,0.8,14.4,1.5c3,0.5,5.2-2.5,3.6-4.9
					c-6.5-9.7-8.4-23.2-9.4-32c-0.1-0.9-0.3-1.8-0.6-2.6C412.3,360.7,402.7,374.4,400.7,390.9z"/>
				<path class="st5" d="M433,354.7c0.7-11.6-12.8-13.5-12.8-13.5s-35.4-7.9-51.5-19.7c-1.8-1.3-4.4-0.1-4.3,2.1
					c0.2,3.4,1.5,7.9,6.4,12c2.7,2.3,7.8,5,13.6,7.6c-5.3-1.9-10.4-4.2-14.5-6.8c-1.9-1.2-4.4,0.2-4.1,2.3c0.4,3.3,2.1,7.7,7.3,11.6
					c3.3,2.4,9.4,5.1,16,7.5c-6.4-1.6-12.8-3.8-18.1-6.6c-2-1.1-4.4,0.5-4,2.6c0.7,3.3,2.6,7.6,8.1,11.2c3.6,2.3,9.9,4.6,16.6,6.5
					c-6.7-1.1-13.6-3.6-19.6-6.2c-2-1-4.2,0.7-3.6,2.8c0.9,3.3,3.2,7.6,9,10.8c10.9,6.1,40.3,9.4,40.3,9.4c5.6,1.3,10.3,2.8,14,4.1
					c2.9,1.1,5.7-1.5,4.5-4.2C431.8,377.3,432.4,363.5,433,354.7z"/>
			</g>
		</g>
		<g>
			<g>
				<g>
					<g>
						<g>
							
								<rect x="615.8" y="468.7" transform="matrix(0.9816 -0.1908 0.1908 0.9816 -107.04 151.1901)" class="st5" width="231.6" height="325.5"/>
							
								<rect x="686.6" y="775.9" transform="matrix(0.9816 -0.1908 0.1908 0.9816 -134.7854 163.5285)" width="190.4" height="11.6"/>
							
								<rect x="657.6" y="706" transform="matrix(0.9816 -0.1908 0.1908 0.9816 -122.1839 147.5066)" class="st10" width="94.6" height="4.5"/>
							
								<rect x="660.2" y="715.8" transform="matrix(0.9816 -0.1908 0.1908 0.9816 -123.3088 155.4236)" class="st10" width="170.5" height="4.5"/>
							
								<rect x="663.5" y="732.8" transform="matrix(0.9816 -0.1908 0.1908 0.9816 -126.4862 156.4228)" class="st10" width="171.1" height="4.5"/>
							
								<rect x="667.6" y="757.7" transform="matrix(0.9816 -0.1908 0.1908 0.9816 -131.9243 149.7443)" class="st10" width="88.1" height="4.5"/>
							<rect x="585.9" y="471.6" transform="matrix(0.9816 -0.1908 0.1908 0.9816 -78.1965 142.655)" width="231.6" height="11.6"/>
						</g>
						<polygon class="st11" points="846.7,621 619.3,665 600,565.3 827.4,521.3 						"/>
					</g>
					<rect x="628.5" y="464.4" class="st5" width="231.6" height="325.5"/>
					<rect x="669.7" y="778.3" width="190.4" height="11.6"/>
					<rect x="656.2" y="695.1" class="st11" width="94.6" height="4.5"/>
					<rect x="656.2" y="712.5" class="st11" width="170.5" height="4.5"/>
					<rect x="656.2" y="729.8" class="st11" width="171.1" height="4.5"/>
					<rect x="656.2" y="747.2" class="st11" width="88.1" height="4.5"/>
					<rect x="628.5" y="464.4" width="231.6" height="11.6"/>
				</g>
			</g>
			<g>
				<g>
					<polygon class="st11" points="860.2,669.1 628.5,668.8 628.5,567.2 860.2,567.5 					"/>
					<g>
						<g>
							<polyline class="st12" points="679.6,589.9 651.8,617.7 680.5,646.4 							"/>
							<polyline class="st12" points="807.9,646.4 835.7,618.6 807,589.9 							"/>
						</g>
						<g>
							<rect x="690.5" y="612" class="st5" width="26.7" height="2.9"/>
							<rect x="770.3" y="612" class="st5" width="26.7" height="2.9"/>
							<rect x="725.9" y="612" class="st5" width="40.3" height="2.9"/>
							<rect x="690.5" y="628.7" class="st5" width="26.7" height="2.9"/>
							<rect x="725.9" y="628.7" class="st5" width="40.3" height="2.9"/>
							<rect x="690.5" y="620.7" class="st5" width="26.7" height="2.9"/>
							<rect x="770.3" y="620.7" class="st5" width="26.7" height="2.9"/>
							<rect x="710.9" y="620.7" class="st5" width="55.3" height="2.9"/>
						</g>
					</g>
				</g>
			</g>
		</g>
	</g>
	<g class="st4">
		<path d="M681.4,517.5v-12.6l-4,8.8h-3.5l-4-8.8v12.6h-6.6v-23.9h7.2l5.2,11.2l5.2-11.2h7.2v23.9H681.4z"/>
		<path d="M696.2,517.5v-23.9h6.6v23.9H696.2z"/>
		<path d="M725.6,501.4c-0.7-0.4-1.4-0.8-2.1-1.1c-0.6-0.3-1.3-0.5-2.1-0.8s-1.5-0.4-2.2-0.4c-0.6,0-1.1,0.1-1.4,0.3
			c-0.4,0.2-0.5,0.5-0.5,0.9c0,0.3,0.1,0.6,0.3,0.8c0.2,0.2,0.5,0.4,0.9,0.6c0.4,0.2,0.9,0.3,1.4,0.5c0.6,0.2,1.2,0.3,1.9,0.6
			c1.1,0.3,2.1,0.7,3,1.1c0.9,0.4,1.7,0.9,2.3,1.4c0.6,0.5,1.1,1.2,1.5,2c0.3,0.8,0.5,1.7,0.5,2.9c0,1.4-0.3,2.6-0.8,3.6
			c-0.5,1-1.2,1.8-2.1,2.3c-0.9,0.6-1.9,1-3,1.3c-1.1,0.3-2.2,0.4-3.3,0.4c-0.9,0-1.8-0.1-2.7-0.2c-0.9-0.1-1.9-0.3-2.8-0.6
			c-0.9-0.2-1.8-0.5-2.7-0.9c-0.8-0.3-1.6-0.7-2.4-1.1l2.9-5.8c0.8,0.5,1.6,0.9,2.5,1.3c0.7,0.3,1.5,0.6,2.5,0.9
			c0.9,0.3,1.9,0.4,2.8,0.4c0.7,0,1.2-0.1,1.5-0.3s0.4-0.4,0.4-0.8c0-0.3-0.1-0.6-0.4-0.9s-0.7-0.4-1.2-0.6
			c-0.5-0.2-1.1-0.4-1.7-0.5s-1.3-0.4-2.1-0.6c-1.1-0.4-2-0.7-2.8-1.2c-0.8-0.4-1.4-0.9-1.9-1.4c-0.5-0.5-0.9-1.1-1.1-1.8
			c-0.2-0.7-0.4-1.4-0.4-2.3c0-1.3,0.2-2.5,0.7-3.5c0.5-1,1.1-1.8,2-2.5s1.8-1.2,2.9-1.5c1.1-0.3,2.2-0.5,3.4-0.5
			c0.9,0,1.7,0.1,2.6,0.3s1.6,0.4,2.4,0.6s1.5,0.5,2.2,0.8s1.3,0.6,1.8,0.9L725.6,501.4z"/>
		<path d="M750.6,501.4c-0.7-0.4-1.4-0.8-2.1-1.1c-0.6-0.3-1.3-0.5-2.1-0.8s-1.5-0.4-2.2-0.4c-0.6,0-1.1,0.1-1.4,0.3
			c-0.4,0.2-0.5,0.5-0.5,0.9c0,0.3,0.1,0.6,0.3,0.8c0.2,0.2,0.5,0.4,0.9,0.6c0.4,0.2,0.9,0.3,1.4,0.5c0.6,0.2,1.2,0.3,1.9,0.6
			c1.1,0.3,2.1,0.7,3,1.1c0.9,0.4,1.7,0.9,2.3,1.4c0.6,0.5,1.1,1.2,1.5,2c0.3,0.8,0.5,1.7,0.5,2.9c0,1.4-0.3,2.6-0.8,3.6
			c-0.5,1-1.2,1.8-2.1,2.3c-0.9,0.6-1.9,1-3,1.3c-1.1,0.3-2.2,0.4-3.3,0.4c-0.9,0-1.8-0.1-2.7-0.2c-0.9-0.1-1.9-0.3-2.8-0.6
			c-0.9-0.2-1.8-0.5-2.7-0.9c-0.8-0.3-1.6-0.7-2.4-1.1l2.9-5.8c0.8,0.5,1.6,0.9,2.5,1.3c0.7,0.3,1.5,0.6,2.5,0.9
			c0.9,0.3,1.9,0.4,2.8,0.4c0.7,0,1.2-0.1,1.5-0.3s0.4-0.4,0.4-0.8c0-0.3-0.1-0.6-0.4-0.9s-0.7-0.4-1.2-0.6
			c-0.5-0.2-1.1-0.4-1.7-0.5s-1.3-0.4-2.1-0.6c-1.1-0.4-2-0.7-2.8-1.2c-0.8-0.4-1.4-0.9-1.9-1.4c-0.5-0.5-0.9-1.1-1.1-1.8
			c-0.2-0.7-0.4-1.4-0.4-2.3c0-1.3,0.2-2.5,0.7-3.5c0.5-1,1.1-1.8,2-2.5s1.8-1.2,2.9-1.5c1.1-0.3,2.2-0.5,3.4-0.5
			c0.9,0,1.7,0.1,2.6,0.3s1.6,0.4,2.4,0.6s1.5,0.5,2.2,0.8s1.3,0.6,1.8,0.9L750.6,501.4z"/>
		<path d="M760.9,517.5v-23.9h6.6v23.9H760.9z"/>
		<path d="M782.4,505.8v11.7h-6.6v-23.9h5.2l9.7,12.1v-12.1h6.6v23.9h-5.3L782.4,505.8z"/>
		<path d="M821.7,515.5c-1.7,1.4-3.7,2.2-5.9,2.2c-1.6,0-3.1-0.3-4.5-0.8c-1.4-0.5-2.7-1.4-3.7-2.4c-1.1-1.1-1.9-2.3-2.5-3.9
			c-0.6-1.5-1-3.3-1-5.2c0-1.7,0.3-3.2,1-4.7c0.6-1.4,1.5-2.7,2.6-3.8c1.1-1.1,2.4-1.9,3.9-2.5c1.5-0.6,3.1-0.9,4.9-0.9
			c1.1,0,2.1,0.1,3.1,0.4c1,0.2,1.9,0.6,2.8,1c0.8,0.5,1.6,1,2.3,1.6c0.7,0.6,1.2,1.4,1.7,2.2l-4.9,3.7c-0.5-0.9-1.2-1.7-2.1-2.3
			c-1-0.6-2-0.9-3-0.9c-0.8,0-1.5,0.2-2.2,0.5c-0.7,0.3-1.2,0.8-1.7,1.3c-0.5,0.6-0.8,1.2-1.1,2c-0.3,0.8-0.4,1.6-0.4,2.5
			c0,0.9,0.1,1.8,0.4,2.6c0.3,0.8,0.7,1.4,1.1,2c0.5,0.5,1.1,1,1.8,1.3s1.4,0.5,2.3,0.5c1.9,0,3.6-0.8,5.1-2.4h-4.2v-4.7h9.9v12.7
			h-5.5V515.5z"/>
	</g>
	<g class="st4">
		<path d="M692.8,551.1v-23.9h6.6v18.2h10.9v5.7H692.8z"/>
		<path d="M727.3,551.3c-1.8,0-3.5-0.3-5-1c-1.5-0.7-2.8-1.6-3.8-2.7c-1.1-1.1-1.9-2.4-2.5-3.9c-0.6-1.5-0.9-3-0.9-4.5
			c0-1.6,0.3-3.1,0.9-4.5c0.6-1.5,1.5-2.7,2.6-3.8c1.1-1.1,2.4-2,3.9-2.7c1.5-0.7,3.2-1,4.9-1c1.8,0,3.5,0.3,5,1
			c1.5,0.7,2.8,1.6,3.8,2.8c1.1,1.1,1.9,2.4,2.5,3.9c0.6,1.5,0.9,2.9,0.9,4.5c0,1.6-0.3,3.1-0.9,4.5c-0.6,1.4-1.5,2.7-2.5,3.8
			c-1.1,1.1-2.4,2-3.9,2.7C730.7,551,729.1,551.3,727.3,551.3z M721.8,539.2c0,0.8,0.1,1.6,0.3,2.3c0.2,0.8,0.6,1.4,1,2
			s1,1.1,1.7,1.4c0.7,0.4,1.5,0.5,2.5,0.5s1.8-0.2,2.5-0.6c0.7-0.4,1.3-0.9,1.7-1.4c0.4-0.6,0.8-1.3,1-2c0.2-0.8,0.3-1.5,0.3-2.3
			c0-0.8-0.1-1.6-0.3-2.3s-0.6-1.4-1-2c-0.5-0.6-1-1-1.7-1.4c-0.7-0.3-1.5-0.5-2.4-0.5c-1,0-1.8,0.2-2.5,0.5
			c-0.7,0.4-1.3,0.8-1.7,1.4c-0.5,0.6-0.8,1.3-1,2C721.9,537.6,721.8,538.4,721.8,539.2z"/>
		<path d="M751.7,527.2h6l8.4,23.9h-6.7l-1.5-4.7h-6.4l-1.4,4.7h-6.8L751.7,527.2z M756.8,542l-2.1-7.4l-2.2,7.4H756.8z"/>
		<path d="M778.7,539.4v11.7h-6.6v-23.9h5.2l9.7,12.1v-12.1h6.6v23.9h-5.3L778.7,539.4z"/>
	</g>
</g>
<g class="st13">
	<path class="st14" d="M736.6,481.8c0,0,5.8,9.4,9.8-2.1"/>
	<g>
		<g>
			
				<ellipse transform="matrix(0.1908 -0.9816 0.9816 0.1908 129.2523 1115.7991)" class="st15" cx="741.4" cy="479.5" rx="3.9" ry="3.1"/>
			<path class="st16" d="M742.6,477c0.4,0.5-16.8-18.3-28.9-16.6v1.5c0,0,2.5,3.2,1.8,8.4c0,0,1.4-5.7,24.8,11.7
				C740.4,481.9,745,481.1,742.6,477z"/>
			<path class="st14" d="M745.7,475.3c0,0-3-2.6-5.7-0.6"/>
		</g>
		<path class="st17" d="M708.8,457.9h4.6c0,0,3,3.6,3.3,6.5c0,0,0.8,5.8-1.2,8.2l-3.4,1.3c0,0,2.2-4.9,0.7-9.1
			C712.9,464.8,711.9,460.6,708.8,457.9z"/>
		<g>
			<path class="st17" d="M713,464.7c1.6,5-0.5,9.1-3.2,10s-4.6-1.8-6.2-6.9s-0.5-9.2,2.2-10S711.4,459.7,713,464.7z"/>
			<path class="st14" d="M709,474.9c0,0,1.1-0.3,2.3-0.8c1.6-0.6,3.4-1.3,3.9-1.8c0,0,2.2-2.2,1-8.6s-3.4-5.9-3.4-5.9l-5.4-0.3h-0.9
				c0,0-2.5,0.1-3.1,2.9s-0.7,4,0,7.6C703.4,468,704.7,474.2,709,474.9z"/>
			<path class="st14" d="M707.4,457.6c4.6,2.1,5.6,7.1,5.6,7.1s1.3,5.8-1.6,9.4"/>
			<path class="st18" d="M714.1,473c0,0,1.2-5.5-0.3-9.1"/>
			<path class="st18" d="M715.1,472c0,0,1.2-4.5-0.3-8.1"/>
			<path class="st18" d="M710.5,457.6c0,0,2.4,1.2,3.3,5"/>
		</g>
	</g>
</g>
<path class="st14" d="M704.6,459.6"/>
</svg>
