<?xml version="1.0" encoding="utf-8"?>
<!-- Generator: Adobe Illustrator 25.0.0, SVG Export Plug-In . SVG Version: 6.00 Build 0)  -->
<svg version="1.1" id="Capa_1" xmlns="http://www.w3.org/2000/svg" xmlns:xlink="http://www.w3.org/1999/xlink" x="0px" y="0px"
	 viewBox="0 0 20 20" style="enable-background:new 0 0 20 20;" xml:space="preserve">
<style type="text/css">
	.st0{fill:#F3BA2F;}
</style>
<g>
	<path class="st0" d="M6.4,8.8l3.5-3.5l3.5,3.5l2-2L9.9,1.2L4.4,6.7L6.4,8.8z"/>
	<path class="st0" d="M0.9,10.2l2-2l2,2l-2,2L0.9,10.2z"/>
	<path class="st0" d="M6.4,11.6l3.5,3.5l3.5-3.5l2,2l-5.5,5.5l-5.5-5.5L6.4,11.6z"/>
	<path class="st0" d="M14.9,10.2l2-2l2,2l-2,2L14.9,10.2z"/>
	<path class="st0" d="M12,10.2L9.9,8.1L8.4,9.7L8.2,9.8l-0.4,0.4l2.1,2.1L12,10.2L12,10.2z"/>
</g>
</svg>
