<svg id="bold" enable-background="new 0 0 24 24" height="512" viewBox="0 0 24 24" width="512" xmlns="http://www.w3.org/2000/svg"><g><path d="m12 0c-5.51 0-10 4.48-10 9.99 0 2.46.89 4.76 2.45 6.55.69-.35 1.47-.54 2.3-.54h10.5c.83 0 1.61.19 2.3.54 1.56-1.79 2.45-4.09 2.45-6.55 0-5.51-4.49-9.99-10-9.99zm6.25 10c-.41 0-.75-.34-.75-.75 0-2.62-2.13-4.75-4.75-4.75-.41 0-.75-.34-.75-.75s.34-.75.75-.75c3.45 0 6.25 2.8 6.25 6.25 0 .41-.34.75-.75.75z"/></g><g><path d="m17.25 17.5h-10.5c-2.067 0-3.75 1.683-3.75 3.75v2c0 .414.336.75.75.75h16.5c.414 0 .75-.336.75-.75v-2c0-2.067-1.683-3.75-3.75-3.75z"/></g></svg>