<svg id="Capa_1" data-name="Capa 1" xmlns="http://www.w3.org/2000/svg" viewBox="0 0 34 34"><defs><style>.cls-1{fill:#fff;}.cls-2{fill:#343434;}.cls-3{fill:#8c8c8c;}.cls-4{fill:#3c3c3b;}.cls-5{fill:#141414;}.cls-6{fill:#393939;}</style></defs><title>logo-ethsvg</title><rect class="cls-1" x="0.13" y="0.11" width="33.73" height="33.73" rx="16.87"/><polygon class="cls-2" points="16.99 5.38 16.84 5.91 16.84 21.24 16.99 21.39 24.1 17.19 16.99 5.38"/><polygon class="cls-3" points="16.99 5.38 9.88 17.19 16.99 21.39 16.99 13.95 16.99 5.38"/><polygon class="cls-4" points="16.99 22.74 16.9 22.84 16.9 28.3 16.99 28.56 24.11 18.54 16.99 22.74"/><polygon class="cls-3" points="16.99 28.56 16.99 22.74 9.88 18.54 16.99 28.56"/><polygon class="cls-5" points="16.99 21.39 24.1 17.19 16.99 13.95 16.99 21.39"/><polygon class="cls-6" points="9.88 17.19 16.99 21.39 16.99 13.95 9.88 17.19"/></svg>