<svg id="Layer_1" data-name="Layer 1" xmlns="http://www.w3.org/2000/svg" viewBox="0 0 405.96 161.99"><defs><style>.cls-1{fill:#fff;}.cls-2{fill:#4155ff;}</style></defs><title>isologotypo</title><path class="cls-1" d="M201,117.87V46.45h31.59a20.33,20.33,0,0,1,9.1,2.06,23.65,23.65,0,0,1,7.2,5.44,25.54,25.54,0,0,1,4.72,7.64,23,23,0,0,1,1.71,8.6,23.71,23.71,0,0,1-3.47,12.63,19.94,19.94,0,0,1-9.4,8.2l16.29,26.85H243.14L228.55,93.93H214.88v23.94Zm13.89-36.11h17.4a7.29,7.29,0,0,0,3.57-.91,9.21,9.21,0,0,0,2.87-2.46,12.38,12.38,0,0,0,1.91-3.67,14.52,14.52,0,0,0,.7-4.53,12.87,12.87,0,0,0-.81-4.63,11.94,11.94,0,0,0-2.16-3.67,9.64,9.64,0,0,0-3.12-2.41,8.08,8.08,0,0,0-3.57-.86H214.88Z"/><path class="cls-1" d="M263.56,81.66a37.14,37.14,0,0,1,2.36-12.93,35.22,35.22,0,0,1,6.9-11.41,34.69,34.69,0,0,1,11.06-8.15,34.16,34.16,0,0,1,14.89-3.12,32.51,32.51,0,0,1,17.05,4.32,27.7,27.7,0,0,1,10.71,11.27L315.87,69a18.39,18.39,0,0,0-3.42-5.08,17.21,17.21,0,0,0-4.33-3.27,19.65,19.65,0,0,0-4.82-1.76,23.49,23.49,0,0,0-4.93-.55,18.86,18.86,0,0,0-9.11,2.11,20,20,0,0,0-6.43,5.49A24.06,24.06,0,0,0,279,73.56a29,29,0,0,0-1.31,8.5,28,28,0,0,0,1.51,9.11,24.22,24.22,0,0,0,4.28,7.69,21.27,21.27,0,0,0,6.64,5.33,18.15,18.15,0,0,0,8.5,2,22.53,22.53,0,0,0,5-.6,19.21,19.21,0,0,0,5-1.91,18.75,18.75,0,0,0,4.37-3.37,15.39,15.39,0,0,0,3.22-5l11.37,6.54a21.47,21.47,0,0,1-4.88,7.09,31.21,31.21,0,0,1-7.14,5.18,36.49,36.49,0,0,1-8.5,3.22,37.11,37.11,0,0,1-8.85,1.11,30.54,30.54,0,0,1-14-3.22,36.56,36.56,0,0,1-10.91-8.4,39.11,39.11,0,0,1-7.14-11.77A36.73,36.73,0,0,1,263.56,81.66Z"/><path class="cls-1" d="M350.78,72.1v45.77H336.9V46.45h10.76l37.22,46.88V46.55h13.88v71.32H387.49Z"/><path class="cls-2" d="M168.77,48.57a5,5,0,0,0-2.54-2.81,4.86,4.86,0,0,0-2.11-.48,5,5,0,0,0-4.47,2.83,86,86,0,0,1-4.36,8A71.62,71.62,0,0,0,17.59,93.34a91.92,91.92,0,0,0-9.91,16.3,5,5,0,0,0,4.47,7.07,5,5,0,0,0,4.47-2.83,83.62,83.62,0,0,1,4.35-8,71.61,71.61,0,0,0,137.7-37.19,91.92,91.92,0,0,0,9.91-16.3A4.91,4.91,0,0,0,168.77,48.57ZM149.85,81A61.72,61.72,0,0,1,28.22,95.85C39.58,82.51,55.3,73,75.21,67.52A137.72,137.72,0,0,1,106,62.81L91.23,77.6l7,7L125,57.8,94.51,27.3l-7,7L106.13,52.9a146.43,146.43,0,0,0-33.27,5,112,112,0,0,0-35.67,16.5,91,91,0,0,0-10.73,8.94c0-.78-.05-1.57-.05-2.35A61.72,61.72,0,0,1,148,66.14C136.69,79.48,121,89,101.05,94.47a137.72,137.72,0,0,1-30.8,4.71L85,84.39l-7-7L51.26,104.19l30.49,30.5,7-7-18.6-18.61a146.59,146.59,0,0,0,33.27-5,112,112,0,0,0,35.66-16.5,91.14,91.14,0,0,0,10.73-8.94C149.83,79.42,149.85,80.21,149.85,81Z"/></svg>