<?xml version="1.0" encoding="utf-8"?>
<!-- Generator: Adobe Illustrator 23.0.6, SVG Export Plug-In . SVG Version: 6.00 Build 0)  -->
<svg version="1.1" id="Capa_1" xmlns="http://www.w3.org/2000/svg" xmlns:xlink="http://www.w3.org/1999/xlink" x="0px" y="0px"
	 viewBox="0 0 510.2 510.2" style="enable-background:new 0 0 510.2 510.2;" xml:space="preserve">
<style type="text/css">
	.st0{fill:#3B99FC;}
</style>
<title>WalletConnect</title>
<desc>Created with Sketch.</desc>
<g id="Page-1">
	<g id="walletconnect-logo-alt">
		<path id="WalletConnect" class="st0" d="M105,159.2c82.7-81,216.8-81,299.5,0l10,9.7c4.1,4,4.1,10.6,0,14.7l-34.1,33.3
			c-2.1,2-5.4,2-7.5,0l-13.7-13.4c-57.7-56.5-151.3-56.5-209,0l-14.7,14.4c-2.1,2-5.4,2-7.5,0l-34.1-33.3c-4.1-4-4.1-10.6,0-14.7
			L105,159.2z M475,228.1l30.3,29.7c4.1,4,4.1,10.6,0,14.7L368.7,406.3c-4.1,4-10.8,4-15,0c0,0,0,0,0,0l-97-95c-1-1-2.7-1-3.7,0h0
			l-97,95c-4.1,4-10.8,4-15,0c0,0,0,0,0,0L4.3,272.5c-4.1-4-4.1-10.6,0-14.7l30.3-29.7c4.1-4,10.8-4,15,0l97,95c1,1,2.7,1,3.7,0
			c0,0,0,0,0,0l97-95c4.1-4,10.8-4,15,0c0,0,0,0,0,0l97,95c1,1,2.7,1,3.7,0l97-95C464.2,224.1,470.9,224.1,475,228.1z"/>
	</g>
</g>
</svg>
