<?xml version="1.0" encoding="utf-8"?>
<!-- Generator: Adobe Illustrator 23.0.6, SVG Export Plug-In . SVG Version: 6.00 Build 0)  -->
<svg version="1.1" id="Capa_1" xmlns="http://www.w3.org/2000/svg" xmlns:xlink="http://www.w3.org/1999/xlink" x="0px" y="0px"
	 viewBox="0 0 180 180" style="enable-background:new 0 0 180 180;" xml:space="preserve">
<style type="text/css">
	.st0{fill:#E2761B;stroke:#E2761B;stroke-linecap:round;stroke-linejoin:round;}
	.st1{fill:#E4761B;stroke:#E4761B;stroke-linecap:round;stroke-linejoin:round;}
	.st2{fill:#D7C1B3;stroke:#D7C1B3;stroke-linecap:round;stroke-linejoin:round;}
	.st3{fill:#233447;stroke:#233447;stroke-linecap:round;stroke-linejoin:round;}
	.st4{fill:#CD6116;stroke:#CD6116;stroke-linecap:round;stroke-linejoin:round;}
	.st5{fill:#E4751F;stroke:#E4751F;stroke-linecap:round;stroke-linejoin:round;}
	.st6{fill:#F6851B;stroke:#F6851B;stroke-linecap:round;stroke-linejoin:round;}
	.st7{fill:#C0AD9E;stroke:#C0AD9E;stroke-linecap:round;stroke-linejoin:round;}
	.st8{fill:#161616;stroke:#161616;stroke-linecap:round;stroke-linejoin:round;}
	.st9{fill:#763D16;stroke:#763D16;stroke-linecap:round;stroke-linejoin:round;}
</style>
<g>
	<polygon class="st0" points="170.1,7.2 100.7,58.8 113.5,28.3 	"/>
	<g>
		<polygon class="st1" points="9.8,7.2 78.7,59.2 66.5,28.3 		"/>
		<polygon class="st1" points="145.1,126.7 126.6,155.1 166.2,166 177.6,127.4 		"/>
		<polygon class="st1" points="2.5,127.4 13.8,166 53.4,155.1 34.9,126.7 		"/>
		<polygon class="st1" points="51.1,78.9 40.1,95.5 79.4,97.3 78,55.1 		"/>
		<polygon class="st1" points="128.8,78.9 101.6,54.6 100.7,97.3 139.9,95.5 		"/>
		<polygon class="st1" points="53.4,155.1 77,143.5 56.6,127.6 		"/>
		<polygon class="st1" points="103,143.5 126.6,155.1 123.4,127.6 		"/>
	</g>
	<g>
		<polygon class="st2" points="126.6,155.1 103,143.5 104.9,159 104.7,165.5 		"/>
		<polygon class="st2" points="53.4,155.1 75.4,165.5 75.2,159 77,143.5 		"/>
	</g>
	<polygon class="st3" points="75.7,117.4 56,111.7 69.9,105.3 	"/>
	<polygon class="st3" points="104.2,117.4 110,105.3 124,111.7 	"/>
	<g>
		<polygon class="st4" points="53.4,155.1 56.7,126.7 34.9,127.4 		"/>
		<polygon class="st4" points="123.3,126.7 126.6,155.1 145.1,127.4 		"/>
		<polygon class="st4" points="139.9,95.5 100.7,97.3 104.3,117.4 110.1,105.3 124.1,111.7 		"/>
		<polygon class="st4" points="56,111.7 70,105.3 75.7,117.4 79.4,97.3 40.1,95.5 		"/>
	</g>
	<g>
		<polygon class="st5" points="40.1,95.5 56.6,127.6 56,111.7 		"/>
		<polygon class="st5" points="124.1,111.7 123.4,127.6 139.9,95.5 		"/>
		<polygon class="st5" points="79.4,97.3 75.7,117.4 80.3,141.2 81.3,109.9 		"/>
		<polygon class="st5" points="100.7,97.3 98.8,109.8 99.6,141.2 104.3,117.4 		"/>
	</g>
	<polygon class="st6" points="104.3,117.4 99.6,141.2 103,143.5 123.4,127.6 124.1,111.7 	"/>
	<polygon class="st6" points="56,111.7 56.6,127.6 77,143.5 80.3,141.2 75.7,117.4 	"/>
	<polygon class="st7" points="104.7,165.5 104.9,159 103.1,157.4 76.8,157.4 75.2,159 75.4,165.5 53.4,155.1 61,161.3 76.6,172.2 
		103.3,172.2 119,161.3 126.6,155.1 	"/>
	<polygon class="st8" points="103,143.5 99.6,141.2 80.3,141.2 77,143.5 75.2,159 76.8,157.4 103.1,157.4 104.9,159 	"/>
	<g>
		<polygon class="st9" points="173.1,62.1 179,33.6 170.1,7.2 103,57 128.8,78.9 165.3,89.5 173.4,80.1 169.9,77.6 175.5,72.5 
			171.2,69.2 176.8,64.9 		"/>
		<polygon class="st9" points="1,33.6 6.9,62.1 3.2,64.9 8.8,69.2 4.5,72.5 10.1,77.6 6.6,80.1 14.6,89.5 51.1,78.9 77,57 9.8,7.2 
					"/>
	</g>
	<polygon class="st6" points="165.3,89.5 128.8,78.9 139.9,95.5 123.4,127.6 145.1,127.4 177.6,127.4 	"/>
	<polygon class="st6" points="51.1,78.9 14.6,89.5 2.5,127.4 34.9,127.4 56.6,127.6 40.1,95.5 	"/>
	<polygon class="st6" points="100.7,97.3 103,57 113.6,28.3 66.5,28.3 77,57 79.4,97.3 80.2,110 80.3,141.2 99.6,141.2 99.8,110 	
		"/>
</g>
</svg>
