<?xml version="1.0" encoding="utf-8"?>
<!-- Generator: Adobe Illustrator 25.0.0, SVG Export Plug-In . SVG Version: 6.00 Build 0)  -->
<svg version="1.1" id="Capa_1" xmlns="http://www.w3.org/2000/svg" xmlns:xlink="http://www.w3.org/1999/xlink" x="0px" y="0px"
	 viewBox="0 0 22 19" style="enable-background:new 0 0 22 19;" xml:space="preserve">
<style type="text/css">
	.st0{fill:#8247E5;}
</style>
<path class="st0" d="M16.4,6c-0.4-0.2-0.9-0.2-1.3,0l-3,1.8L10,8.9l-3,1.8c-0.4,0.2-0.9,0.2-1.3,0L3.4,9.3C3,9.1,2.7,8.6,2.7,8.1
	V5.4C2.7,5,3,4.5,3.4,4.3l2.3-1.4c0.4-0.2,0.9-0.2,1.3,0l2.3,1.4C9.8,4.5,10,5,10,5.5v1.8l2.1-1.2V4.2c0-0.4-0.2-0.9-0.7-1.1
	L7.1,0.5c-0.4-0.2-0.9-0.2-1.3,0L1.3,3.1C0.9,3.4,0.7,3.8,0.7,4.2v5.1c0,0.4,0.2,0.9,0.7,1.1L5.7,13c0.4,0.2,0.9,0.2,1.3,0l3-1.7
	l2.1-1.2l3-1.7c0.4-0.2,0.9-0.2,1.3,0l2.3,1.4c0.4,0.2,0.7,0.7,0.7,1.1v2.7c0,0.4-0.2,0.9-0.7,1.1l-2.3,1.4c-0.4,0.2-0.9,0.2-1.3,0
	l-2.3-1.4c-0.4-0.2-0.7-0.7-0.7-1.1v-1.7L10.1,13v1.8c0,0.4,0.2,0.9,0.7,1.1l4.4,2.6c0.4,0.2,0.9,0.2,1.3,0l4.4-2.6
	c0.4-0.2,0.7-0.7,0.7-1.1V9.7c0-0.4-0.2-0.9-0.7-1.1L16.4,6z"/>
</svg>
