<?xml version="1.0" encoding="utf-8"?>
<!-- Generator: Adobe Illustrator 23.0.1, SVG Export Plug-In . SVG Version: 6.00 Build 0)  -->
<svg version="1.1" id="Layer_1" xmlns="http://www.w3.org/2000/svg" xmlns:xlink="http://www.w3.org/1999/xlink" x="0px" y="0px"
	 viewBox="0 0 100 100" style="enable-background:new 0 0 100 100;" xml:space="preserve">
<style type="text/css">
	.st0{fill:#4155FF;}
</style>
<title>Artboard 20</title>
<path class="st0" d="M99.3,30.2c-0.4-1.2-1.6-2-2.8-2c-1.2,0-2.2,0.7-2.7,1.7c-0.8,1.7-1.7,3.3-2.7,4.9C84.7,17.6,68.3,6.2,50,6.2
	C25.9,6.2,6.2,25.9,6.2,50c0,2.5,0.2,5.1,0.7,7.6c-2.4,3.1-4.4,6.4-6.1,10c-0.7,1.5-0.1,3.3,1.4,4s3.3,0.1,4-1.4l0,0
	c0.8-1.7,1.7-3.3,2.7-4.9c8.4,22.7,33.6,34.3,56.3,25.9c19.8-7.3,31.6-27.8,28-48.6c2.4-3.1,4.4-6.4,6.1-10
	C99.6,31.8,99.6,30.9,99.3,30.2z M87.8,50c0,20.8-16.9,37.7-37.7,37.7c-17.3,0-32.5-11.8-36.6-28.7c6.9-8.2,16.6-14,28.7-17.3
	c6.1-1.7,12.5-2.6,18.8-2.9l-9,9l4.3,4.3l16.4-16.4L53.9,17.2l-4.3,4.3L61,32.8c-6.9,0.2-13.7,1.3-20.4,3.1
	c-8.2,2.3-15.6,5.7-21.8,10.1c-2.3,1.7-4.5,3.5-6.6,5.5c0-0.5,0-1,0-1.4c0-20.8,16.9-37.7,37.8-37.7c17.3,0,32.4,11.8,36.6,28.7
	c-6.9,8.1-16.6,14-28.7,17.3c-6.1,1.7-12.5,2.6-18.8,2.9l9-9l-4.3-4.3L27.4,64.2l18.7,18.7l4.3-4.3L39,67.2
	c6.9-0.2,13.7-1.3,20.4-3.1c8.2-2.3,15.6-5.7,21.8-10.1c2.3-1.7,4.5-3.5,6.6-5.5C87.7,49.1,87.8,49.6,87.8,50L87.8,50z"/>
</svg>
