<?xml version="1.0" encoding="utf-8"?>
<!-- Generator: Adobe Illustrator 23.0.1, SVG Export Plug-In . SVG Version: 6.00 Build 0)  -->
<svg version="1.1" id="Layer_1" xmlns="http://www.w3.org/2000/svg" xmlns:xlink="http://www.w3.org/1999/xlink" x="0px" y="0px"
	 viewBox="0 0 200 200" style="enable-background:new 0 0 200 200;" xml:space="preserve">
<style type="text/css">
	.st0{fill:#4155FF;}
	.st1{fill:#FFFFFF;}
</style>
<circle class="st0" cx="100" cy="100" r="99.5"/>
<title>isologotypo</title>
<path class="st1" d="M172.6,70.8c-0.4-1.1-1.2-2-2.3-2.5c-0.6-0.3-1.2-0.4-1.9-0.4c-1.7,0-3.3,1-4,2.5c-1.2,2.5-2.5,4.9-3.9,7.2
	c-12.4-33.4-49.5-50.4-82.9-38c-29.1,10.8-46.4,40.9-41.1,71.5c-3.5,4.6-6.5,9.5-8.9,14.7c-1,2.3,0,4.9,2.2,6
	c0.6,0.3,1.2,0.4,1.8,0.4c1.7,0,3.3-1,4-2.5c1.2-2.5,2.5-4.9,3.9-7.2c12.3,33.4,49.4,50.4,82.8,38.1c29.2-10.8,46.5-40.9,41.1-71.6
	c3.5-4.6,6.5-9.5,8.9-14.7C172.9,73.2,173,71.9,172.6,70.8z M155.5,100c0,30.7-24.9,55.6-55.5,55.6c-25.5,0-47.8-17.4-53.9-42.2
	c10.2-12,24.4-20.6,42.3-25.5c9-2.5,18.3-3.9,27.7-4.2l-13.3,13.3l6.3,6.3l24.1-24.1l-27.4-27.5l-6.3,6.3l16.8,16.7
	C106.1,75,96,76.5,86.2,79.2c-11.5,3-22.4,8-32.1,14.9c-3.4,2.4-6.6,5.1-9.7,8c0-0.7,0-1.4,0-2.1c0.1-30.7,25-55.5,55.7-55.4
	c25.4,0.1,47.6,17.4,53.8,42.1c-10.2,12-24.3,20.6-42.3,25.5c-9,2.5-18.3,3.9-27.7,4.2L97.2,103l-6.3-6.3l-24.1,24.1l27.4,27.4
	l6.3-6.3l-16.7-16.7c10.1-0.3,20.2-1.9,29.9-4.5c11.5-3,22.4-8,32.1-14.8c3.4-2.4,6.6-5.1,9.7-8C155.5,98.6,155.5,99.3,155.5,100z"
	/>
</svg>
