<?xml version="1.0" encoding="utf-8"?>
<!-- Generator: Adobe Illustrator 23.0.6, SVG Export Plug-In . SVG Version: 6.00 Build 0)  -->
<svg version="1.1" id="Capa_1" xmlns="http://www.w3.org/2000/svg" xmlns:xlink="http://www.w3.org/1999/xlink" x="0px" y="0px"
	 viewBox="0 0 139.8 130" style="enable-background:new 0 0 139.8 130;" xml:space="preserve">
<style type="text/css">
	.st0{clip-path:url(#SVGID_2_);fill:#8482FF;}
	.st1{clip-path:url(#SVGID_2_);fill:#7F81FF;}
	.st2{clip-path:url(#SVGID_2_);fill:#7B7FFF;}
	.st3{clip-path:url(#SVGID_2_);fill:#767EFF;}
	.st4{clip-path:url(#SVGID_2_);fill:#727DFF;}
	.st5{clip-path:url(#SVGID_2_);fill:#6F7CFF;}
	.st6{clip-path:url(#SVGID_2_);fill:#6B7BFF;}
	.st7{clip-path:url(#SVGID_2_);fill:#687AFF;}
	.st8{clip-path:url(#SVGID_2_);fill:#6579FF;}
	.st9{clip-path:url(#SVGID_2_);fill:#6378FF;}
	.st10{clip-path:url(#SVGID_2_);fill:#6078FF;}
	.st11{clip-path:url(#SVGID_2_);fill:#5E77FF;}
	.st12{clip-path:url(#SVGID_2_);fill:#5C76FF;}
	.st13{clip-path:url(#SVGID_2_);fill:#5A76FF;}
	.st14{clip-path:url(#SVGID_2_);fill:#5875FF;}
	.st15{clip-path:url(#SVGID_2_);fill:#5775FF;}
	.st16{clip-path:url(#SVGID_2_);fill:#5574FF;}
	.st17{clip-path:url(#SVGID_2_);fill:#5474FF;}
	.st18{clip-path:url(#SVGID_2_);fill:#5374FF;}
	.st19{clip-path:url(#SVGID_2_);fill:#5273FF;}
	.st20{clip-path:url(#SVGID_2_);fill:#5173FF;}
	.st21{clip-path:url(#SVGID_2_);fill:#5073FF;}
	.st22{clip-path:url(#SVGID_2_);fill:#4F73FF;}
	.st23{clip-path:url(#SVGID_2_);fill:#4E72FF;}
	.st24{clip-path:url(#SVGID_2_);fill:#4D72FF;}
	.st25{clip-path:url(#SVGID_2_);fill:#4C72FF;}
	.st26{clip-path:url(#SVGID_2_);fill:#4C71FF;}
	.st27{clip-path:url(#SVGID_2_);fill:#4B71FF;}
	.st28{clip-path:url(#SVGID_2_);fill:#4A71FF;}
	.st29{clip-path:url(#SVGID_2_);fill:#4B72FF;}
	.st30{clip-path:url(#SVGID_2_);fill:#4C73FF;}
	.st31{clip-path:url(#SVGID_2_);fill:#4D73FF;}
	.st32{clip-path:url(#SVGID_2_);fill:#4D74FF;}
	.st33{clip-path:url(#SVGID_2_);fill:#4E74FF;}
	.st34{clip-path:url(#SVGID_2_);fill:#4F75FF;}
	.st35{clip-path:url(#SVGID_2_);fill:#5075FF;}
	.st36{clip-path:url(#SVGID_2_);fill:#5076FE;}
	.st37{clip-path:url(#SVGID_2_);fill:#5176FE;}
	.st38{clip-path:url(#SVGID_2_);fill:#5277FE;}
	.st39{clip-path:url(#SVGID_2_);fill:#5278FE;}
	.st40{clip-path:url(#SVGID_2_);fill:#5378FE;}
	.st41{clip-path:url(#SVGID_2_);fill:#5479FE;}
	.st42{clip-path:url(#SVGID_2_);fill:#557AFE;}
	.st43{clip-path:url(#SVGID_2_);fill:#567AFE;}
	.st44{clip-path:url(#SVGID_2_);fill:#577BFE;}
	.st45{clip-path:url(#SVGID_2_);fill:#577CFE;}
	.st46{clip-path:url(#SVGID_2_);fill:#587CFE;}
	.st47{clip-path:url(#SVGID_2_);fill:#597DFE;}
	.st48{clip-path:url(#SVGID_2_);fill:#5A7EFE;}
	.st49{clip-path:url(#SVGID_2_);fill:#5B7EFE;}
	.st50{clip-path:url(#SVGID_2_);fill:#5B7FFE;}
	.st51{clip-path:url(#SVGID_2_);fill:#5C80FD;}
	.st52{clip-path:url(#SVGID_2_);fill:#5D80FD;}
	.st53{clip-path:url(#SVGID_2_);fill:#5E81FD;}
	.st54{clip-path:url(#SVGID_2_);fill:#5F82FD;}
	.st55{clip-path:url(#SVGID_2_);fill:#6082FD;}
	.st56{clip-path:url(#SVGID_2_);fill:#6183FD;}
	.st57{clip-path:url(#SVGID_2_);fill:#6184FD;}
	.st58{clip-path:url(#SVGID_2_);fill:#6284FD;}
	.st59{clip-path:url(#SVGID_2_);fill:#6385FD;}
	.st60{clip-path:url(#SVGID_2_);fill:#6486FD;}
	.st61{clip-path:url(#SVGID_2_);fill:#6587FD;}
	.st62{clip-path:url(#SVGID_2_);fill:#6687FD;}
	.st63{clip-path:url(#SVGID_2_);fill:#6788FD;}
	.st64{clip-path:url(#SVGID_2_);fill:#6889FC;}
	.st65{clip-path:url(#SVGID_2_);fill:#698AFC;}
	.st66{clip-path:url(#SVGID_2_);fill:#6A8AFC;}
	.st67{clip-path:url(#SVGID_2_);fill:#6B8BFC;}
	.st68{clip-path:url(#SVGID_2_);fill:#6C8CFC;}
	.st69{clip-path:url(#SVGID_2_);fill:#6D8DFC;}
	.st70{clip-path:url(#SVGID_2_);fill:#6E8EFC;}
	.st71{clip-path:url(#SVGID_2_);fill:#6F8EFC;}
	.st72{clip-path:url(#SVGID_2_);fill:#708FFC;}
	.st73{clip-path:url(#SVGID_2_);fill:#7190FC;}
	.st74{clip-path:url(#SVGID_2_);fill:#7291FC;}
	.st75{clip-path:url(#SVGID_2_);fill:#7392FB;}
	.st76{clip-path:url(#SVGID_2_);fill:#7492FB;}
	.st77{clip-path:url(#SVGID_2_);fill:#7593FB;}
	.st78{clip-path:url(#SVGID_2_);fill:#7694FB;}
	.st79{clip-path:url(#SVGID_2_);fill:#7795FB;}
	.st80{clip-path:url(#SVGID_2_);fill:#7896FB;}
	.st81{clip-path:url(#SVGID_2_);fill:#7997FB;}
	.st82{clip-path:url(#SVGID_2_);fill:#7A97FB;}
	.st83{clip-path:url(#SVGID_2_);fill:#7B98FB;}
	.st84{clip-path:url(#SVGID_2_);fill:#7D99FB;}
	.st85{clip-path:url(#SVGID_2_);fill:#7E9AFB;}
	.st86{clip-path:url(#SVGID_2_);fill:#7F9BFA;}
	.st87{clip-path:url(#SVGID_2_);fill:#809CFA;}
	.st88{clip-path:url(#SVGID_2_);fill:#819DFA;}
	.st89{clip-path:url(#SVGID_2_);fill:#829EFA;}
	.st90{clip-path:url(#SVGID_2_);fill:#839EFA;}
	.st91{clip-path:url(#SVGID_2_);fill:#849FFA;}
	.st92{clip-path:url(#SVGID_2_);fill:#85A0FA;}
	.st93{clip-path:url(#SVGID_2_);fill:#87A1FA;}
	.st94{clip-path:url(#SVGID_2_);fill:#88A2FA;}
	.st95{clip-path:url(#SVGID_2_);fill:#89A3FA;}
	.st96{clip-path:url(#SVGID_2_);fill:#8AA4FA;}
	.st97{clip-path:url(#SVGID_2_);fill:#8BA5F9;}
	.st98{clip-path:url(#SVGID_2_);fill:#8CA6F9;}
	.st99{clip-path:url(#SVGID_2_);fill:#8EA7F9;}
	.st100{clip-path:url(#SVGID_2_);fill:#8FA8F9;}
	.st101{clip-path:url(#SVGID_2_);fill:#90A9F9;}
	.st102{clip-path:url(#SVGID_2_);fill:#91AAF9;}
	.st103{clip-path:url(#SVGID_2_);fill:#92AAF9;}
	.st104{clip-path:url(#SVGID_2_);fill:#94ABF9;}
	.st105{clip-path:url(#SVGID_2_);fill:#95ACF9;}
	.st106{clip-path:url(#SVGID_2_);fill:#96ADF9;}
	.st107{clip-path:url(#SVGID_2_);fill:#97AEF8;}
	.st108{clip-path:url(#SVGID_2_);fill:#98AFF8;}
	.st109{clip-path:url(#SVGID_2_);fill:#9AB0F8;}
	.st110{clip-path:url(#SVGID_2_);fill:#9BB1F8;}
	.st111{clip-path:url(#SVGID_2_);fill:#9CB2F8;}
	.st112{clip-path:url(#SVGID_2_);fill:#9DB3F8;}
	.st113{clip-path:url(#SVGID_2_);fill:#9FB4F8;}
	.st114{clip-path:url(#SVGID_2_);fill:#A0B5F8;}
	.st115{clip-path:url(#SVGID_2_);fill:#A1B6F8;}
	.st116{clip-path:url(#SVGID_2_);fill:#A2B7F7;}
	.st117{clip-path:url(#SVGID_2_);fill:#A4B8F7;}
	.st118{clip-path:url(#SVGID_2_);fill:#A5B9F7;}
	.st119{clip-path:url(#SVGID_2_);fill:#A6BAF7;}
	.st120{clip-path:url(#SVGID_2_);fill:#A7BBF7;}
	.st121{clip-path:url(#SVGID_2_);fill:#A9BCF7;}
	.st122{clip-path:url(#SVGID_2_);fill:#AABDF7;}
	.st123{clip-path:url(#SVGID_2_);fill:#ABBEF7;}
	.st124{clip-path:url(#SVGID_2_);fill:#ACBFF7;}
	.st125{clip-path:url(#SVGID_2_);fill:#AEC0F6;}
	.st126{clip-path:url(#SVGID_2_);fill:#AFC1F6;}
	.st127{clip-path:url(#SVGID_2_);fill:#B0C2F6;}
	.st128{clip-path:url(#SVGID_2_);fill:#B2C3F6;}
	.st129{clip-path:url(#SVGID_2_);fill:#B3C4F6;}
	.st130{clip-path:url(#SVGID_2_);fill:#B4C6F6;}
	.st131{clip-path:url(#SVGID_2_);fill:#B6C7F6;}
	.st132{clip-path:url(#SVGID_2_);fill:#B7C8F6;}
	.st133{clip-path:url(#SVGID_2_);fill:#B8C9F6;}
	.st134{clip-path:url(#SVGID_2_);fill:#BACAF5;}
	.st135{clip-path:url(#SVGID_2_);fill:#BBCBF5;}
	.st136{clip-path:url(#SVGID_2_);fill:#BCCCF5;}
	.st137{clip-path:url(#SVGID_2_);fill:#BECDF5;}
	.st138{clip-path:url(#SVGID_2_);fill:#BFCEF5;}
	.st139{opacity:0.22;}
	.st140{fill:#FFFFFF;}
	.st141{fill:url(#SVGID_3_);}
	.st142{fill:url(#SVGID_4_);}
</style>
<g>
	<g>
		<g>
			<defs>
				<ellipse id="SVGID_1_" cx="52" cy="42.2" rx="18.4" ry="7.3"/>
			</defs>
			<clipPath id="SVGID_2_">
				<use xlink:href="#SVGID_1_"  style="overflow:visible;"/>
			</clipPath>
			<polygon class="st0" points="33.6,43 37.4,49.5 33.6,49.5 			"/>
			<polygon class="st0" points="33.6,42.8 37.5,49.5 37.4,49.5 33.6,43 			"/>
			<polygon class="st1" points="33.6,42.5 37.7,49.5 37.5,49.5 33.6,42.8 			"/>
			<polygon class="st2" points="33.6,42.2 37.8,49.5 37.7,49.5 33.6,42.5 			"/>
			<polygon class="st3" points="33.6,42 38,49.5 37.8,49.5 33.6,42.2 			"/>
			<polygon class="st4" points="33.6,41.7 38.1,49.5 38,49.5 33.6,42 			"/>
			<polygon class="st5" points="33.6,41.5 38.3,49.5 38.1,49.5 33.6,41.7 			"/>
			<polygon class="st6" points="33.6,41.2 38.4,49.5 38.3,49.5 33.6,41.5 			"/>
			<polygon class="st7" points="33.6,40.9 38.6,49.5 38.4,49.5 33.6,41.2 			"/>
			<polygon class="st8" points="33.6,40.7 38.7,49.5 38.6,49.5 33.6,40.9 			"/>
			<polygon class="st9" points="33.6,40.4 38.9,49.5 38.7,49.5 33.6,40.7 			"/>
			<polygon class="st10" points="33.6,40.2 39,49.5 38.9,49.5 33.6,40.4 			"/>
			<polygon class="st11" points="33.6,39.9 39.1,49.5 39,49.5 33.6,40.2 			"/>
			<polygon class="st12" points="33.6,39.7 39.3,49.5 39.1,49.5 33.6,39.9 			"/>
			<polygon class="st13" points="33.6,39.4 39.4,49.5 39.3,49.5 33.6,39.7 			"/>
			<polygon class="st14" points="33.6,39.1 39.6,49.5 39.4,49.5 33.6,39.4 			"/>
			<polygon class="st15" points="33.6,38.9 39.7,49.5 39.6,49.5 33.6,39.1 			"/>
			<polygon class="st16" points="33.6,38.6 39.9,49.5 39.7,49.5 33.6,38.9 			"/>
			<polygon class="st17" points="33.6,38.4 40,49.5 39.9,49.5 33.6,38.6 			"/>
			<polygon class="st18" points="33.6,38.1 40.2,49.5 40,49.5 33.6,38.4 			"/>
			<polygon class="st19" points="33.6,37.8 40.3,49.5 40.2,49.5 33.6,38.1 			"/>
			<polygon class="st20" points="33.6,37.6 40.5,49.5 40.3,49.5 33.6,37.8 			"/>
			<polygon class="st21" points="33.6,37.3 40.6,49.5 40.5,49.5 33.6,37.6 			"/>
			<polygon class="st22" points="33.6,37.1 40.8,49.5 40.6,49.5 33.6,37.3 			"/>
			<polygon class="st23" points="33.6,37 33.7,36.9 40.9,49.5 40.8,49.5 33.6,37.1 			"/>
			<polygon class="st23" points="33.7,36.9 33.8,36.9 41.1,49.5 40.9,49.5 			"/>
			<polygon class="st24" points="33.8,36.9 33.9,36.8 41.2,49.5 41.1,49.5 			"/>
			<polygon class="st24" points="33.9,36.8 34,36.7 41.4,49.5 41.2,49.5 			"/>
			<polygon class="st25" points="34,36.7 34.1,36.7 41.5,49.5 41.4,49.5 			"/>
			<polygon class="st25" points="34.1,36.7 34.3,36.6 41.7,49.5 41.5,49.5 			"/>
			<polygon class="st26" points="34.3,36.6 34.4,36.6 41.8,49.5 41.7,49.5 			"/>
			<polygon class="st27" points="34.4,36.6 34.5,36.5 42,49.5 41.8,49.5 			"/>
			<polygon class="st27" points="34.5,36.5 34.6,36.4 42.1,49.5 42,49.5 			"/>
			<polygon class="st27" points="34.6,36.4 34.7,36.4 42.3,49.5 42.1,49.5 			"/>
			<polygon class="st27" points="34.7,36.4 34.8,36.3 42.4,49.5 42.3,49.5 			"/>
			<polygon class="st27" points="34.8,36.3 34.9,36.2 42.6,49.5 42.4,49.5 			"/>
			<polygon class="st27" points="34.9,36.2 35,36.2 42.7,49.5 42.6,49.5 			"/>
			<polygon class="st28" points="35,36.2 35.2,36.1 42.9,49.5 42.7,49.5 			"/>
			<polygon class="st28" points="35.2,36.1 35.3,36 43,49.5 42.9,49.5 			"/>
			<polygon class="st28" points="35.3,36 35.4,36 43.2,49.5 43,49.5 			"/>
			<polygon class="st28" points="35.4,36 35.5,35.9 43.3,49.5 43.2,49.5 			"/>
			<polygon class="st28" points="35.5,35.9 35.6,35.8 43.5,49.5 43.3,49.5 			"/>
			<polygon class="st28" points="35.6,35.8 35.7,35.8 43.6,49.5 43.5,49.5 			"/>
			<polygon class="st28" points="35.7,35.8 35.8,35.7 43.8,49.5 43.6,49.5 			"/>
			<polygon class="st28" points="35.8,35.7 35.9,35.6 43.9,49.5 43.8,49.5 			"/>
			<polygon class="st28" points="35.9,35.6 36,35.6 44.1,49.5 43.9,49.5 			"/>
			<polygon class="st28" points="36,35.6 36.2,35.5 44.2,49.5 44.1,49.5 			"/>
			<polygon class="st28" points="36.2,35.5 36.3,35.5 44.4,49.5 44.2,49.5 			"/>
			<polygon class="st28" points="36.3,35.5 36.4,35.4 44.5,49.5 44.4,49.5 			"/>
			<polygon class="st28" points="36.4,35.4 36.5,35.3 44.7,49.5 44.5,49.5 			"/>
			<polygon class="st28" points="36.5,35.3 36.6,35.3 44.8,49.5 44.7,49.5 			"/>
			<polygon class="st28" points="36.6,35.3 36.7,35.2 45,49.5 44.8,49.5 			"/>
			<polygon class="st28" points="36.7,35.2 36.8,35.1 45.1,49.5 45,49.5 			"/>
			<polygon class="st28" points="36.8,35.1 36.9,35.1 45.3,49.5 45.1,49.5 			"/>
			<polygon class="st28" points="36.9,35.1 37.1,35 45.4,49.5 45.3,49.5 			"/>
			<polygon class="st28" points="37.1,35 37.2,34.9 45.6,49.5 45.4,49.5 			"/>
			<polygon class="st28" points="37.2,34.9 37.3,34.9 37.3,34.9 45.7,49.5 45.6,49.5 			"/>
			<polygon class="st28" points="37.4,34.9 45.9,49.5 45.7,49.5 37.3,34.9 			"/>
			<polygon class="st28" points="37.6,34.9 46,49.5 45.9,49.5 37.4,34.9 			"/>
			<polygon class="st28" points="37.8,34.9 46.3,49.5 46,49.5 37.6,34.9 			"/>
			<polygon class="st28" points="38.1,34.9 46.5,49.5 46.3,49.5 37.8,34.9 			"/>
			<polygon class="st27" points="38.3,34.9 46.8,49.5 46.5,49.5 38.1,34.9 			"/>
			<polygon class="st29" points="38.6,34.9 47,49.5 46.8,49.5 38.3,34.9 			"/>
			<polygon class="st29" points="38.8,34.9 47.3,49.5 47,49.5 38.6,34.9 			"/>
			<polygon class="st25" points="39.1,34.9 47.5,49.5 47.3,49.5 38.8,34.9 			"/>
			<polygon class="st30" points="39.3,34.9 47.8,49.5 47.5,49.5 39.1,34.9 			"/>
			<polygon class="st31" points="39.6,34.9 48,49.5 47.8,49.5 39.3,34.9 			"/>
			<polygon class="st32" points="39.8,34.9 48.3,49.5 48,49.5 39.6,34.9 			"/>
			<polygon class="st33" points="40.1,34.9 48.5,49.5 48.3,49.5 39.8,34.9 			"/>
			<polygon class="st33" points="40.3,34.9 48.8,49.5 48.5,49.5 40.1,34.9 			"/>
			<polygon class="st34" points="40.6,34.9 49,49.5 48.8,49.5 40.3,34.9 			"/>
			<polygon class="st35" points="40.8,34.9 49.2,49.5 49,49.5 40.6,34.9 			"/>
			<polygon class="st36" points="41.1,34.9 49.5,49.5 49.2,49.5 40.8,34.9 			"/>
			<polygon class="st37" points="41.3,34.9 49.7,49.5 49.5,49.5 41.1,34.9 			"/>
			<polygon class="st38" points="41.6,34.9 50,49.5 49.7,49.5 41.3,34.9 			"/>
			<polygon class="st39" points="41.8,34.9 50.2,49.5 50,49.5 41.6,34.9 			"/>
			<polygon class="st40" points="42,34.9 50.5,49.5 50.2,49.5 41.8,34.9 			"/>
			<polygon class="st41" points="42.3,34.9 50.7,49.5 50.5,49.5 42,34.9 			"/>
			<polygon class="st41" points="42.5,34.9 51,49.5 50.7,49.5 42.3,34.9 			"/>
			<polygon class="st42" points="42.8,34.9 51.2,49.5 51,49.5 42.5,34.9 			"/>
			<polygon class="st43" points="43,34.9 51.5,49.5 51.2,49.5 42.8,34.9 			"/>
			<polygon class="st44" points="43.3,34.9 51.7,49.5 51.5,49.5 43,34.9 			"/>
			<polygon class="st45" points="43.5,34.9 52,49.5 51.7,49.5 43.3,34.9 			"/>
			<polygon class="st46" points="43.8,34.9 52.2,49.5 52,49.5 43.5,34.9 			"/>
			<polygon class="st47" points="44,34.9 52.5,49.5 52.2,49.5 43.8,34.9 			"/>
			<polygon class="st48" points="44.3,34.9 52.7,49.5 52.5,49.5 44,34.9 			"/>
			<polygon class="st49" points="44.5,34.9 53,49.5 52.7,49.5 44.3,34.9 			"/>
			<polygon class="st50" points="44.8,34.9 53.2,49.5 53,49.5 44.5,34.9 			"/>
			<polygon class="st51" points="45,34.9 53.5,49.5 53.2,49.5 44.8,34.9 			"/>
			<polygon class="st52" points="45.3,34.9 53.7,49.5 53.5,49.5 45,34.9 			"/>
			<polygon class="st53" points="45.5,34.9 54,49.5 53.7,49.5 45.3,34.9 			"/>
			<polygon class="st54" points="45.8,34.9 54.2,49.5 54,49.5 45.5,34.9 			"/>
			<polygon class="st55" points="46,34.9 54.5,49.5 54.2,49.5 45.8,34.9 			"/>
			<polygon class="st56" points="46.3,34.9 54.7,49.5 54.5,49.5 46,34.9 			"/>
			<polygon class="st57" points="46.5,34.9 55,49.5 54.7,49.5 46.3,34.9 			"/>
			<polygon class="st58" points="46.8,34.9 55.2,49.5 55,49.5 46.5,34.9 			"/>
			<polygon class="st59" points="47,34.9 55.5,49.5 55.2,49.5 46.8,34.9 			"/>
			<polygon class="st60" points="47.3,34.9 55.7,49.5 55.5,49.5 47,34.9 			"/>
			<polygon class="st61" points="47.5,34.9 55.9,49.5 55.7,49.5 47.3,34.9 			"/>
			<polygon class="st62" points="47.8,34.9 56.2,49.5 55.9,49.5 47.5,34.9 			"/>
			<polygon class="st63" points="48,34.9 56.4,49.5 56.2,49.5 47.8,34.9 			"/>
			<polygon class="st64" points="48.2,34.9 56.7,49.5 56.4,49.5 48,34.9 			"/>
			<polygon class="st65" points="48.5,34.9 56.9,49.5 56.7,49.5 48.2,34.9 			"/>
			<polygon class="st66" points="48.7,34.9 57.2,49.5 56.9,49.5 48.5,34.9 			"/>
			<polygon class="st67" points="49,34.9 57.4,49.5 57.2,49.5 48.7,34.9 			"/>
			<polygon class="st68" points="49.2,34.9 57.7,49.5 57.4,49.5 49,34.9 			"/>
			<polygon class="st69" points="49.5,34.9 57.9,49.5 57.7,49.5 49.2,34.9 			"/>
			<polygon class="st70" points="49.7,34.9 58.2,49.5 57.9,49.5 49.5,34.9 			"/>
			<polygon class="st71" points="50,34.9 58.4,49.5 58.2,49.5 49.7,34.9 			"/>
			<polygon class="st72" points="50.2,34.9 58.7,49.5 58.4,49.5 50,34.9 			"/>
			<polygon class="st73" points="50.5,34.9 58.9,49.5 58.7,49.5 50.2,34.9 			"/>
			<polygon class="st74" points="50.7,34.9 59.2,49.5 58.9,49.5 50.5,34.9 			"/>
			<polygon class="st75" points="51,34.9 59.4,49.5 59.2,49.5 50.7,34.9 			"/>
			<polygon class="st76" points="51.2,34.9 59.7,49.5 59.4,49.5 51,34.9 			"/>
			<polygon class="st77" points="51.5,34.9 59.9,49.5 59.7,49.5 51.2,34.9 			"/>
			<polygon class="st78" points="51.7,34.9 60.2,49.5 59.9,49.5 51.5,34.9 			"/>
			<polygon class="st79" points="52,34.9 60.4,49.5 60.2,49.5 51.7,34.9 			"/>
			<polygon class="st80" points="52.2,34.9 60.7,49.5 60.4,49.5 52,34.9 			"/>
			<polygon class="st81" points="52.5,34.9 60.9,49.5 60.7,49.5 52.2,34.9 			"/>
			<polygon class="st82" points="52.7,34.9 61.2,49.5 60.9,49.5 52.5,34.9 			"/>
			<polygon class="st83" points="53,34.9 61.4,49.5 61.2,49.5 52.7,34.9 			"/>
			<polygon class="st84" points="53.2,34.9 61.7,49.5 61.4,49.5 53,34.9 			"/>
			<polygon class="st85" points="53.5,34.9 61.9,49.5 61.7,49.5 53.2,34.9 			"/>
			<polygon class="st86" points="53.7,34.9 62.1,49.5 61.9,49.5 53.5,34.9 			"/>
			<polygon class="st87" points="54,34.9 62.4,49.5 62.1,49.5 53.7,34.9 			"/>
			<polygon class="st88" points="54.2,34.9 62.6,49.5 62.4,49.5 54,34.9 			"/>
			<polygon class="st89" points="54.5,34.9 62.9,49.5 62.6,49.5 54.2,34.9 			"/>
			<polygon class="st90" points="54.7,34.9 63.1,49.5 62.9,49.5 54.5,34.9 			"/>
			<polygon class="st91" points="54.9,34.9 63.4,49.5 63.1,49.5 54.7,34.9 			"/>
			<polygon class="st92" points="55.2,34.9 63.6,49.5 63.4,49.5 54.9,34.9 			"/>
			<polygon class="st93" points="55.4,34.9 63.9,49.5 63.6,49.5 55.2,34.9 			"/>
			<polygon class="st94" points="55.7,34.9 64.1,49.5 63.9,49.5 55.4,34.9 			"/>
			<polygon class="st95" points="55.9,34.9 64.4,49.5 64.1,49.5 55.7,34.9 			"/>
			<polygon class="st96" points="56.2,34.9 64.6,49.5 64.4,49.5 55.9,34.9 			"/>
			<polygon class="st97" points="56.4,34.9 64.9,49.5 64.6,49.5 56.2,34.9 			"/>
			<polygon class="st98" points="56.7,34.9 65.1,49.5 64.9,49.5 56.4,34.9 			"/>
			<polygon class="st99" points="56.9,34.9 65.4,49.5 65.1,49.5 56.7,34.9 			"/>
			<polygon class="st100" points="57.2,34.9 65.6,49.5 65.4,49.5 56.9,34.9 			"/>
			<polygon class="st101" points="57.4,34.9 65.9,49.5 65.6,49.5 57.2,34.9 			"/>
			<polygon class="st102" points="57.7,34.9 66.1,49.5 65.9,49.5 57.4,34.9 			"/>
			<polygon class="st103" points="57.9,34.9 66.4,49.5 66.1,49.5 57.7,34.9 			"/>
			<polygon class="st104" points="58.2,34.9 66.6,49.5 66.4,49.5 57.9,34.9 			"/>
			<polygon class="st105" points="58.4,34.9 66.8,49.4 66.7,49.5 66.6,49.5 58.2,34.9 			"/>
			<polygon class="st106" points="58.7,34.9 67,49.3 66.8,49.4 58.4,34.9 			"/>
			<polygon class="st107" points="58.9,34.9 67.2,49.2 67,49.3 58.7,34.9 			"/>
			<polygon class="st108" points="59.2,34.9 67.4,49.1 67.2,49.2 58.9,34.9 			"/>
			<polygon class="st109" points="59.4,34.9 67.6,49 67.4,49.1 59.2,34.9 			"/>
			<polygon class="st110" points="59.7,34.9 67.7,48.9 67.6,49 59.4,34.9 			"/>
			<polygon class="st111" points="59.9,34.9 67.9,48.8 67.7,48.9 59.7,34.9 			"/>
			<polygon class="st112" points="60.2,34.9 68.1,48.7 67.9,48.8 59.9,34.9 			"/>
			<polygon class="st113" points="60.4,34.9 68.3,48.6 68.1,48.7 60.2,34.9 			"/>
			<polygon class="st114" points="60.7,34.9 68.5,48.4 68.3,48.6 60.4,34.9 			"/>
			<polygon class="st115" points="60.9,34.9 68.7,48.3 68.5,48.4 60.7,34.9 			"/>
			<polygon class="st116" points="61.1,34.9 68.9,48.2 68.7,48.3 60.9,34.9 			"/>
			<polygon class="st117" points="61.4,34.9 69,48.1 68.9,48.2 61.1,34.9 			"/>
			<polygon class="st118" points="61.6,34.9 69.2,48 69,48.1 61.4,34.9 			"/>
			<polygon class="st119" points="61.9,34.9 69.4,47.9 69.2,48 61.6,34.9 			"/>
			<polygon class="st120" points="62.1,34.9 69.6,47.8 69.4,47.9 61.9,34.9 			"/>
			<polygon class="st121" points="62.4,34.9 69.8,47.7 69.6,47.8 62.1,34.9 			"/>
			<polygon class="st122" points="62.6,34.9 70,47.6 69.8,47.7 62.4,34.9 			"/>
			<polygon class="st123" points="62.9,34.9 70.2,47.5 70,47.6 62.6,34.9 			"/>
			<polygon class="st124" points="63.1,34.9 70.3,47.4 70.3,47.4 70.2,47.5 62.9,34.9 			"/>
			<polygon class="st125" points="63.4,34.9 70.3,46.9 70.3,47.4 63.1,34.9 			"/>
			<polygon class="st126" points="63.6,34.9 70.3,46.5 70.3,46.9 63.4,34.9 			"/>
			<polygon class="st127" points="63.9,34.9 70.3,46.1 70.3,46.5 63.6,34.9 			"/>
			<polygon class="st128" points="64.1,34.9 70.3,45.6 70.3,46.1 63.9,34.9 			"/>
			<polygon class="st129" points="64.4,34.9 70.3,45.2 70.3,45.6 64.1,34.9 			"/>
			<polygon class="st130" points="64.6,34.9 70.3,44.8 70.3,45.2 64.4,34.9 			"/>
			<polygon class="st131" points="64.9,34.9 70.3,44.4 70.3,44.8 64.6,34.9 			"/>
			<polygon class="st132" points="65.1,34.9 70.3,43.9 70.3,44.4 64.9,34.9 			"/>
			<polygon class="st133" points="65.4,34.9 70.3,43.5 70.3,43.9 65.1,34.9 			"/>
			<polygon class="st134" points="65.6,34.9 70.3,43.1 70.3,43.5 65.4,34.9 			"/>
			<polygon class="st135" points="65.9,34.9 70.3,42.6 70.3,43.1 65.6,34.9 			"/>
			<polygon class="st136" points="66.1,34.9 70.3,42.2 70.3,42.6 65.9,34.9 			"/>
			<polygon class="st137" points="66.4,34.9 70.3,41.8 70.3,42.2 66.1,34.9 			"/>
			<polygon class="st138" points="66.6,34.9 70.3,41.3 70.3,41.8 66.4,34.9 			"/>
			<polygon class="st138" points="70.3,41.3 66.6,34.9 70.3,34.9 			"/>
		</g>
	</g>
	<g class="st139">
		
			<image style="overflow:visible;" width="303" height="212" xlink:href="2ADD884F4002D95D.png"  transform="matrix(0.2411 0 0 0.2411 15.5338 16.6398)">
		</image>
	</g>
</g>
<path class="st140" d="M70.7,42.1L70.7,42.1c-0.1-4.3-8.4-7.8-18.7-7.8c-10.3,0-18.6,3.5-18.7,7.8h0v0.1c0,0,0,0,0,0s0,0,0,0v6.1h0
	c0,0,0,0,0,0v6.2h0c0,0,0,0,0,0v6.2h0c0,0,0,0,0,0v6.2h0c0,0,0,0,0,0v0h0c0.1,3.8,6.5,7,15.4,7.7l0-0.5c-8.5-0.6-14.9-3.7-14.9-7.2
	v-4.4c0.3,0.5,0.6,0.9,1.1,1.4l0.2-0.2l-0.2,0.2c3,2.8,9.7,4.6,17.1,4.6c8.9,0,16.3-2.6,18.2-6.1v4.4h0c0,0.8-0.4,1.6-1,2.4l0.4,0.3
	c0.8-0.9,1.2-1.8,1.2-2.7h0V42.1z M33.8,42.2c0-4,8.2-7.3,18.2-7.3c10,0,18.2,3.3,18.2,7.3S62,49.5,52,49.5
	C41.9,49.5,33.8,46.2,33.8,42.2L33.8,42.2z M33.8,44C35.7,47.4,43.1,50,52,50c8.9,0,16.3-2.6,18.2-6.1v4.4h0c0,4-8.2,7.3-18.2,7.3
	c-10,0-18.2-3.3-18.2-7.3V44z M33.8,50.1c1.9,3.5,9.3,6.1,18.2,6.1c8.9,0,16.3-2.6,18.2-6.1v4.4h0c0,4-8.2,7.3-18.2,7.3
	c-10,0-18.2-3.3-18.2-7.3V50.1z M70.2,60.7c0,4-8.2,7.3-18.2,7.3c-7.3,0-13.9-1.8-16.8-4.5l0,0c-1-0.9-1.4-1.9-1.4-2.8v-4.4
	c1.9,3.5,9.3,6.1,18.2,6.1c8.9,0,16.3-2.6,18.2-6.1L70.2,60.7L70.2,60.7z"/>
<g>
	<linearGradient id="SVGID_3_" gradientUnits="userSpaceOnUse" x1="51.8206" y1="84.5993" x2="80.5498" y2="68.0125">
		<stop  offset="0" style="stop-color:#8482FF"/>
		<stop  offset="1.961066e-02" style="stop-color:#6F7CFF"/>
		<stop  offset="4.340331e-02" style="stop-color:#5E77FF"/>
		<stop  offset="7.303896e-02" style="stop-color:#5374FF"/>
		<stop  offset="0.1146" style="stop-color:#4C72FF"/>
		<stop  offset="0.23" style="stop-color:#4A71FF"/>
		<stop  offset="0.3467" style="stop-color:#5378FE"/>
		<stop  offset="0.5403" style="stop-color:#6D8DFC"/>
		<stop  offset="0.7852" style="stop-color:#95ADF9"/>
		<stop  offset="1" style="stop-color:#BFCEF5"/>
	</linearGradient>
	<path class="st141" d="M75.3,83.1c-0.1-0.1-0.2-0.2-0.3-0.2c-0.3-0.3-0.6-0.5-1-0.8c-0.9-0.7-1.7-1.5-2.5-2.4
		c-0.8-0.9-1.5-2.1-1.8-3.3c-0.1-0.3-0.2-0.6-0.2-0.9c-0.1-0.4-0.1-0.7,0-1c0-0.3,0-0.5,0.1-0.8c0.1-0.2,0.2-0.4,0.3-0.6
		c0,0,0.1-0.1,0.1-0.1c0.1-0.3,0.2-0.6,0.4-0.9c0.2-0.5,0.3-0.9,0.5-1.4c0.1-0.2,0.2-0.4,0.3-0.6c0-0.1,0.1-0.1,0.1-0.2
		c0-0.1,0-0.2,0.1-0.3c-1.6-0.2-3.2-0.3-4.9-0.3c-10.3,0-18.7,3.3-18.7,7.4s8.4,7.4,18.7,7.4c3.3,0,6.3-0.3,9-0.9
		C75.4,83.3,75.4,83.2,75.3,83.1z"/>
	<g class="st139">
		
			<image style="overflow:visible;" width="266" height="213" xlink:href="2ADD884F4002D95F.png"  transform="matrix(0.2411 0 0 0.2411 29.5155 51.112)">
		</image>
	</g>
</g>
<g>
	
		<linearGradient id="SVGID_4_" gradientUnits="userSpaceOnUse" x1="-1134.2119" y1="512.8335" x2="-1105.9447" y2="496.5133" gradientTransform="matrix(0.9237 0.3831 -0.3831 0.9237 1317.1891 37.9726)">
		<stop  offset="0" style="stop-color:#8482FF"/>
		<stop  offset="1.961066e-02" style="stop-color:#6F7CFF"/>
		<stop  offset="4.340331e-02" style="stop-color:#5E77FF"/>
		<stop  offset="7.303896e-02" style="stop-color:#5374FF"/>
		<stop  offset="0.1146" style="stop-color:#4C72FF"/>
		<stop  offset="0.23" style="stop-color:#4A71FF"/>
		<stop  offset="0.3467" style="stop-color:#5378FE"/>
		<stop  offset="0.5403" style="stop-color:#6D8DFC"/>
		<stop  offset="0.7852" style="stop-color:#95ADF9"/>
		<stop  offset="1" style="stop-color:#BFCEF5"/>
	</linearGradient>
	<path class="st142" d="M106.2,82c-1.5,3.7-10.4,3.6-19.8-0.3S70.7,71.7,72.3,67.9c1.5-3.7,10.4-3.6,19.8,0.3S107.7,78.3,106.2,82z"
		/>
	<g class="st139">
		
			<image style="overflow:visible;" width="294" height="232" xlink:href="2ADD884F4002D95A.png"  transform="matrix(0.2411 0 0 0.2411 53.863 47.0139)">
		</image>
	</g>
</g>
<path class="st140" d="M103.5,74.8c-2.7-2.7-6.7-5.2-11.3-7c-9.5-3.9-18.5-3.8-20.2,0.1l0,0l0,0.1c0,0,0,0,0,0s0,0,0,0l-0.6,1.4
	c-0.7-0.1-1.4-0.2-2.1-0.2c-1-0.1-2.1-0.1-3.1-0.1c-10.3,0-18.6,3.5-18.7,7.8h0v0.1c0,0,0,0,0,0s0,0,0,0V83h0
	c0,4.3,8.4,7.8,18.7,7.8c6.6,0,12.5-1.4,15.9-3.7c0.6,0.3,1.2,0.6,1.9,0.8c4.6,1.9,9.2,2.9,12.9,2.9c0,0,0,0,0.1,0
	c3.9,0,6.5-1.1,7.3-3.1l-0.5-0.2c-0.7,1.8-3.1,2.8-6.8,2.8c-3.7,0-8.3-1-12.8-2.8c-9.3-3.8-15.6-9.9-14.1-13.7l-0.5-0.2
	c-1.1,2.6,1.3,6.2,5.7,9.5c-2.8,0.7-5.9,1-9.2,1c-10,0-18.2-3.3-18.2-7.3v0c0-4,8.2-7.3,18.2-7.3c1,0,2.1,0,3.1,0.1
	c0.6,0,1.3,0.1,1.9,0.2l-1.6,3.8l0.5,0.2l1.7-4.1c0.5,3.9,6.4,9.1,14.6,12.5c4.6,1.9,9.2,2.9,12.9,2.9c0,0,0,0,0.1,0
	c2.8,0,4.8-0.6,6.1-1.6l-1.6,4l0.5,0.2l2.4-5.8l0,0C107.3,80,106.2,77.4,103.5,74.8z M66.1,84.7c3.4,0,6.8-0.4,9.7-1.1
	c1.7,1.2,3.6,2.3,5.7,3.3c-3.3,2.1-9.2,3.5-15.4,3.5C56.1,90.3,48,87,48,83h0v-4.4C49.9,82.1,57.3,84.7,66.1,84.7z M99.3,84.6
	c-3.7,0-8.3-1-12.8-2.8c-9.3-3.8-15.6-9.9-14.1-13.7l0,0c0.8-1.9,3.3-2.8,6.8-2.8c3.6,0,8.1,1,12.8,2.9c4.5,1.8,8.5,4.3,11.2,6.9
	c2.6,2.6,3.6,5,2.9,6.7C105.3,83.6,102.9,84.6,99.3,84.6z"/>
<path class="st140" d="M70,0.2C53.6,0.2,38,6.4,26,17.5C14.3,28.6,7.1,43.4,5.9,59.4l-5.2-6.5l-0.4,0.3L6,60.5l7.2-5.8l-0.3-0.4
	l-6.6,5.3c1.2-15.9,8.3-30.7,20-41.6C38.2,6.8,53.7,0.7,70,0.7c32.1,0,59.3,24,63.3,55.8l0.5-0.1C129.8,24.4,102.3,0.2,70,0.2z"/>
<path class="st140" d="M139.3,77.9l-5.5-7.5l-7.5,5.5l0.3,0.4l6.8-5c-1.7,15.5-8.9,29.9-20.5,40.4c-11.8,10.7-27,16.6-42.9,16.6
	c-16.2,0-31.6-6.1-43.4-17C14.8,100.3,7.6,85.5,6.4,69.5l-0.5,0c1.3,16.1,8.5,31,20.3,42c11.9,11.1,27.5,17.2,43.8,17.2
	c16,0,31.4-5.9,43.2-16.7c11.7-10.6,19-25.1,20.7-40.7l5,6.8L139.3,77.9z"/>
</svg>
