<?xml version="1.0" encoding="UTF-8" standalone="no"?>
<!DOCTYPE svg PUBLIC "-//W3C//DTD SVG 1.1//EN"
 "http://www.w3.org/Graphics/SVG/1.1/DTD/svg11.dtd">
<!-- Generated by graphviz version 2.40.1 (20161225.0304)
 -->
<!-- Title: dependencies Pages: 1 -->
<svg width="508pt" height="284pt"
 viewBox="0.00 0.00 508.00 284.00" xmlns="http://www.w3.org/2000/svg" xmlns:xlink="http://www.w3.org/1999/xlink">
<g id="graph0" class="graph" transform="scale(1 1) rotate(0) translate(4 280)">
<title>dependencies</title>
<polygon fill="#ffffff" stroke="transparent" points="-4,4 -4,-280 504,-280 504,4 -4,4"/>
<text text-anchor="start" x="229.0091" y="-42.4" font-family="sans-serif" font-weight="bold" font-size="14.00" fill="#000000">Legend</text>
<polygon fill="#ffffb3" stroke="transparent" points="16,-10 16,-30 36,-30 36,-10 16,-10"/>
<text text-anchor="start" x="39.629" y="-15.4" font-family="sans-serif" font-size="14.00" fill="#000000"> &#160;Declarations</text>
<polygon fill="#8dd3c7" stroke="transparent" points="129,-10 129,-30 149,-30 149,-10 129,-10"/>
<text text-anchor="start" x="152.7251" y="-15.4" font-family="sans-serif" font-size="14.00" fill="#000000"> &#160;Module</text>
<polygon fill="#80b1d3" stroke="transparent" points="215,-10 215,-30 235,-30 235,-10 215,-10"/>
<text text-anchor="start" x="238.7812" y="-15.4" font-family="sans-serif" font-size="14.00" fill="#000000"> &#160;Bootstrap</text>
<polygon fill="#fdb462" stroke="transparent" points="312,-10 312,-30 332,-30 332,-10 312,-10"/>
<text text-anchor="start" x="335.6732" y="-15.4" font-family="sans-serif" font-size="14.00" fill="#000000"> &#160;Providers</text>
<polygon fill="#fb8072" stroke="transparent" points="408,-10 408,-30 428,-30 428,-10 408,-10"/>
<text text-anchor="start" x="431.7258" y="-15.4" font-family="sans-serif" font-size="14.00" fill="#000000"> &#160;Exports</text>
<g id="clust1" class="cluster">
<title>cluster_ActiveLoansModule</title>
<polygon fill="none" stroke="#000000" stroke-dasharray="1,5" points="8,-70 8,-268 492,-268 492,-70 8,-70"/>
</g>
<g id="clust2" class="cluster">
<title>cluster_ActiveLoansModule_declarations</title>
<polygon fill="none" stroke="#000000" points="316,-78 316,-130 484,-130 484,-78 316,-78"/>
</g>
<g id="clust4" class="cluster">
<title>cluster_ActiveLoansModule_imports</title>
<polygon fill="none" stroke="#000000" points="194,-78 194,-130 308,-130 308,-78 194,-78"/>
</g>
<g id="clust5" class="cluster">
<title>cluster_ActiveLoansModule_exports</title>
<polygon fill="none" stroke="#000000" points="165,-208 165,-260 337,-260 337,-208 165,-208"/>
</g>
<g id="clust7" class="cluster">
<title>cluster_ActiveLoansModule_providers</title>
<polygon fill="none" stroke="#000000" points="16,-78 16,-130 186,-130 186,-78 16,-78"/>
</g>
<!-- ActiveLoansComponent -->
<g id="node1" class="node">
<title>ActiveLoansComponent</title>
<polygon fill="#ffffb3" stroke="#000000" points="476.3613,-122 323.6387,-122 323.6387,-86 476.3613,-86 476.3613,-122"/>
<text text-anchor="middle" x="400" y="-99.8" font-family="Times,serif" font-size="14.00" fill="#000000">ActiveLoansComponent</text>
</g>
<!-- ActiveLoansModule -->
<g id="node2" class="node">
<title>ActiveLoansModule</title>
<polygon fill="#8dd3c7" stroke="#000000" points="316.5786,-187 313.5786,-191 292.5786,-191 289.5786,-187 185.4214,-187 185.4214,-151 316.5786,-151 316.5786,-187"/>
<text text-anchor="middle" x="251" y="-164.8" font-family="Times,serif" font-size="14.00" fill="#000000">ActiveLoansModule</text>
</g>
<!-- ActiveLoansComponent&#45;&gt;ActiveLoansModule -->
<g id="edge1" class="edge">
<title>ActiveLoansComponent&#45;&gt;ActiveLoansModule</title>
<path fill="none" stroke="#000000" d="M323.5052,-104C314.4653,-104 308.3752,-104 308.3752,-104 308.3752,-104 308.3752,-140.8939 308.3752,-140.8939"/>
<polygon fill="#000000" stroke="#000000" points="304.8753,-140.8938 308.3752,-150.8939 311.8753,-140.8939 304.8753,-140.8938"/>
</g>
<!-- ActiveLoansComponent  -->
<g id="node4" class="node">
<title>ActiveLoansComponent </title>
<polygon fill="#fb8072" stroke="#000000" points="329.3616,-252 172.6384,-252 172.6384,-216 329.3616,-216 329.3616,-252"/>
<text text-anchor="middle" x="251" y="-229.8" font-family="Times,serif" font-size="14.00" fill="#000000">ActiveLoansComponent </text>
</g>
<!-- ActiveLoansModule&#45;&gt;ActiveLoansComponent  -->
<g id="edge3" class="edge">
<title>ActiveLoansModule&#45;&gt;ActiveLoansComponent </title>
<path fill="none" stroke="#000000" stroke-dasharray="5,2" d="M251,-187.1061C251,-187.1061 251,-205.991 251,-205.991"/>
<polygon fill="#000000" stroke="#000000" points="247.5001,-205.9909 251,-215.991 254.5001,-205.991 247.5001,-205.9909"/>
</g>
<!-- SharedModule -->
<g id="node3" class="node">
<title>SharedModule</title>
<polygon fill="#8dd3c7" stroke="#000000" points="300.4231,-122 297.4231,-126 276.4231,-126 273.4231,-122 201.5769,-122 201.5769,-86 300.4231,-86 300.4231,-122"/>
<text text-anchor="middle" x="251" y="-99.8" font-family="Times,serif" font-size="14.00" fill="#000000">SharedModule</text>
</g>
<!-- SharedModule&#45;&gt;ActiveLoansModule -->
<g id="edge2" class="edge">
<title>SharedModule&#45;&gt;ActiveLoansModule</title>
<path fill="none" stroke="#000000" d="M251,-122.1061C251,-122.1061 251,-140.991 251,-140.991"/>
<polygon fill="#000000" stroke="#000000" points="247.5001,-140.9909 251,-150.991 254.5001,-140.991 247.5001,-140.9909"/>
</g>
<!-- ContractsService -->
<g id="node5" class="node">
<title>ContractsService</title>
<ellipse fill="#fdb462" stroke="#000000" cx="101" cy="-104" rx="77.0004" ry="18"/>
<text text-anchor="middle" x="101" y="-99.8" font-family="Times,serif" font-size="14.00" fill="#000000">ContractsService</text>
</g>
<!-- ContractsService&#45;&gt;ActiveLoansModule -->
<g id="edge4" class="edge">
<title>ContractsService&#45;&gt;ActiveLoansModule</title>
<path fill="none" stroke="#000000" d="M178.3297,-104C187.4683,-104 193.6248,-104 193.6248,-104 193.6248,-104 193.6248,-140.8939 193.6248,-140.8939"/>
<polygon fill="#000000" stroke="#000000" points="190.1249,-140.8938 193.6248,-150.8939 197.1249,-140.8939 190.1249,-140.8938"/>
</g>
</g>
</svg>
